<?xml version="1.0" encoding="UTF-8" standalone="no"?>
<!DOCTYPE svg PUBLIC "-//W3C//DTD SVG 1.1//EN"
 "http://www.w3.org/Graphics/SVG/1.1/DTD/svg11.dtd">
<!-- Generated by graphviz version 2.40.1 (0)
 -->
<!-- Title: snakemake_dag Pages: 1 -->
<svg width="1083pt" height="980pt"
 viewBox="0.00 0.00 1083.00 980.00" xmlns="http://www.w3.org/2000/svg" xmlns:xlink="http://www.w3.org/1999/xlink">
<g id="graph0" class="graph" transform="scale(1 1) rotate(0) translate(4 976)">
<title>snakemake_dag</title>
<polygon fill="#ffffff" stroke="transparent" points="-4,4 -4,-976 1079,-976 1079,4 -4,4"/>
<!-- 0 -->
<g id="node1" class="node">
<title>0</title>
<path fill="none" stroke="#d87556" stroke-width="2" d="M596,-36C596,-36 566,-36 566,-36 560,-36 554,-30 554,-24 554,-24 554,-12 554,-12 554,-6 560,0 566,0 566,0 596,0 596,0 602,0 608,-6 608,-12 608,-12 608,-24 608,-24 608,-30 602,-36 596,-36"/>
<text text-anchor="middle" x="581" y="-15.5" font-family="sans" font-size="10.00" fill="#000000">all</text>
</g>
<!-- 1 -->
<g id="node2" class="node">
<title>1</title>
<path fill="none" stroke="#56d882" stroke-width="2" d="M905,-468C905,-468 859,-468 859,-468 853,-468 847,-462 847,-456 847,-456 847,-444 847,-444 847,-438 853,-432 859,-432 859,-432 905,-432 905,-432 911,-432 917,-438 917,-444 917,-444 917,-456 917,-456 917,-462 911,-468 905,-468"/>
<text text-anchor="middle" x="882" y="-447.5" font-family="sans" font-size="10.00" fill="#000000">cp_multiqc</text>
</g>
<!-- 1&#45;&gt;0 -->
<g id="edge7" class="edge">
<title>1&#45;&gt;0</title>
<path fill="none" stroke="#c0c0c0" stroke-width="2" d="M880.7568,-431.8247C878.9994,-404.5213 876,-351.2893 876,-306 876,-306 876,-306 876,-162 876,-105.2759 697.6303,-49.6992 618.2872,-27.7833"/>
<polygon fill="#c0c0c0" stroke="#c0c0c0" stroke-width="2" points="618.7928,-24.2933 608.2241,-25.0378 616.9503,-31.0465 618.7928,-24.2933"/>
</g>
<!-- 2 -->
<g id="node3" class="node">
<title>2</title>
<path fill="none" stroke="#568ad8" stroke-width="2" d="M920,-612C920,-612 874,-612 874,-612 868,-612 862,-606 862,-600 862,-600 862,-588 862,-588 862,-582 868,-576 874,-576 874,-576 920,-576 920,-576 926,-576 932,-582 932,-588 932,-588 932,-600 932,-600 932,-606 926,-612 920,-612"/>
<text text-anchor="middle" x="897" y="-591.5" font-family="sans" font-size="10.00" fill="#000000">qc_multiqc</text>
</g>
<!-- 2&#45;&gt;1 -->
<g id="edge10" class="edge">
<title>2&#45;&gt;1</title>
<path fill="none" stroke="#c0c0c0" stroke-width="2" d="M895.1002,-575.7623C892.5418,-551.201 887.9633,-507.2474 884.9535,-478.3541"/>
<polygon fill="#c0c0c0" stroke="#c0c0c0" stroke-width="2" points="888.4016,-477.6731 883.8843,-468.0896 881.4393,-478.3985 888.4016,-477.6731"/>
</g>
<!-- 3 -->
<g id="node4" class="node">
<title>3</title>
<path fill="none" stroke="#d89c56" stroke-width="2" d="M658.5,-684C658.5,-684 577.5,-684 577.5,-684 571.5,-684 565.5,-678 565.5,-672 565.5,-672 565.5,-660 565.5,-660 565.5,-654 571.5,-648 577.5,-648 577.5,-648 658.5,-648 658.5,-648 664.5,-648 670.5,-654 670.5,-660 670.5,-660 670.5,-672 670.5,-672 670.5,-678 664.5,-684 658.5,-684"/>
<text text-anchor="middle" x="618" y="-663.5" font-family="sans" font-size="10.00" fill="#000000">qc_mosdepth_bed</text>
</g>
<!-- 3&#45;&gt;2 -->
<g id="edge12" class="edge">
<title>3&#45;&gt;2</title>
<path fill="none" stroke="#c0c0c0" stroke-width="2" d="M670.8058,-652.3727C723.1257,-638.8708 802.401,-618.4126 851.869,-605.6467"/>
<polygon fill="#c0c0c0" stroke="#c0c0c0" stroke-width="2" points="852.8419,-609.0104 861.6501,-603.1226 851.0927,-602.2324 852.8419,-609.0104"/>
</g>
<!-- 30 -->
<g id="node31" class="node">
<title>30</title>
<path fill="none" stroke="#59d856" stroke-width="2" d="M677,-180C677,-180 603,-180 603,-180 597,-180 591,-174 591,-168 591,-168 591,-156 591,-156 591,-150 597,-144 603,-144 603,-144 677,-144 677,-144 683,-144 689,-150 689,-156 689,-156 689,-168 689,-168 689,-174 683,-180 677,-180"/>
<text text-anchor="middle" x="640" y="-159.5" font-family="sans" font-size="10.00" fill="#000000">summary_report</text>
</g>
<!-- 3&#45;&gt;30 -->
<g id="edge54" class="edge">
<title>3&#45;&gt;30</title>
<path fill="none" stroke="#c0c0c0" stroke-width="2" d="M622.5584,-647.9498C629.0023,-620.8059 640,-567.775 640,-522 640,-522 640,-522 640,-306 640,-265.876 640,-219.4631 640,-190.4177"/>
<polygon fill="#c0c0c0" stroke="#c0c0c0" stroke-width="2" points="643.5001,-190.1853 640,-180.1854 636.5001,-190.1854 643.5001,-190.1853"/>
</g>
<!-- 4 -->
<g id="node5" class="node">
<title>4</title>
<path fill="none" stroke="#bed856" stroke-width="2" d="M692,-828C692,-828 626,-828 626,-828 620,-828 614,-822 614,-816 614,-816 614,-804 614,-804 614,-798 620,-792 626,-792 626,-792 692,-792 692,-792 698,-792 704,-798 704,-804 704,-804 704,-816 704,-816 704,-822 698,-828 692,-828"/>
<text text-anchor="middle" x="659" y="-807.5" font-family="sans" font-size="10.00" fill="#000000">alignment_star</text>
</g>
<!-- 4&#45;&gt;2 -->
<g id="edge11" class="edge">
<title>4&#45;&gt;2</title>
<path fill="none" stroke="#c0c0c0" stroke-width="2" d="M704.1804,-806.3314C773.4563,-797.9954 903.9799,-770.9639 962,-684 970.8799,-670.6903 968.7975,-662.4843 962,-648 956.5409,-636.3676 947.2088,-626.3739 937.2927,-618.2592"/>
<polygon fill="#c0c0c0" stroke="#c0c0c0" stroke-width="2" points="939.355,-615.4304 929.2779,-612.1588 935.1154,-621.0005 939.355,-615.4304"/>
</g>
<!-- 4&#45;&gt;3 -->
<g id="edge16" class="edge">
<title>4&#45;&gt;3</title>
<path fill="none" stroke="#c0c0c0" stroke-width="2" d="M653.8073,-791.7623C646.7834,-767.0928 634.1892,-722.8598 625.9646,-693.9731"/>
<polygon fill="#c0c0c0" stroke="#c0c0c0" stroke-width="2" points="629.2552,-692.7489 623.1505,-684.0896 622.5228,-694.6658 629.2552,-692.7489"/>
</g>
<!-- 7 -->
<g id="node8" class="node">
<title>7</title>
<path fill="none" stroke="#d89556" stroke-width="2" d="M496.5,-756C496.5,-756 371.5,-756 371.5,-756 365.5,-756 359.5,-750 359.5,-744 359.5,-744 359.5,-732 359.5,-732 359.5,-726 365.5,-720 371.5,-720 371.5,-720 496.5,-720 496.5,-720 502.5,-720 508.5,-726 508.5,-732 508.5,-732 508.5,-744 508.5,-744 508.5,-750 502.5,-756 496.5,-756"/>
<text text-anchor="middle" x="434" y="-735.5" font-family="sans" font-size="10.00" fill="#000000">alignment_samtools_index</text>
</g>
<!-- 4&#45;&gt;7 -->
<g id="edge21" class="edge">
<title>4&#45;&gt;7</title>
<path fill="none" stroke="#c0c0c0" stroke-width="2" d="M613.7386,-795.5163C581.1078,-785.0745 536.5563,-770.818 499.9728,-759.1113"/>
<polygon fill="#c0c0c0" stroke="#c0c0c0" stroke-width="2" points="500.9614,-755.7529 490.3704,-756.0385 498.8279,-762.4198 500.9614,-755.7529"/>
</g>
<!-- 10 -->
<g id="node11" class="node">
<title>10</title>
<path fill="none" stroke="#80d856" stroke-width="2" d="M1034.5,-756C1034.5,-756 1003.5,-756 1003.5,-756 997.5,-756 991.5,-750 991.5,-744 991.5,-744 991.5,-732 991.5,-732 991.5,-726 997.5,-720 1003.5,-720 1003.5,-720 1034.5,-720 1034.5,-720 1040.5,-720 1046.5,-726 1046.5,-732 1046.5,-732 1046.5,-744 1046.5,-744 1046.5,-750 1040.5,-756 1034.5,-756"/>
<text text-anchor="middle" x="1019" y="-735.5" font-family="sans" font-size="10.00" fill="#000000">cp_bam</text>
</g>
<!-- 4&#45;&gt;10 -->
<g id="edge22" class="edge">
<title>4&#45;&gt;10</title>
<path fill="none" stroke="#c0c0c0" stroke-width="2" d="M704.2611,-805.722C766.6292,-799.0622 882.0582,-783.9754 977,-756 978.6218,-755.5221 980.2647,-754.9991 981.9138,-754.4416"/>
<polygon fill="#c0c0c0" stroke="#c0c0c0" stroke-width="2" points="983.168,-757.7095 991.3255,-750.949 980.7326,-751.1468 983.168,-757.7095"/>
</g>
<!-- 13 -->
<g id="node14" class="node">
<title>13</title>
<path fill="none" stroke="#56d86b" stroke-width="2" d="M568,-396C568,-396 506,-396 506,-396 500,-396 494,-390 494,-384 494,-384 494,-372 494,-372 494,-366 500,-360 506,-360 506,-360 568,-360 568,-360 574,-360 580,-366 580,-372 580,-372 580,-384 580,-384 580,-390 574,-396 568,-396"/>
<text text-anchor="middle" x="537" y="-375.5" font-family="sans" font-size="10.00" fill="#000000">fusions_arriba</text>
</g>
<!-- 4&#45;&gt;13 -->
<g id="edge25" class="edge">
<title>4&#45;&gt;13</title>
<path fill="none" stroke="#c0c0c0" stroke-width="2" d="M628.2142,-791.8661C592.0728,-767.9886 537,-722.3577 537,-666 537,-666 537,-666 537,-522 537,-481.876 537,-435.4631 537,-406.4177"/>
<polygon fill="#c0c0c0" stroke="#c0c0c0" stroke-width="2" points="540.5001,-406.1853 537,-396.1854 533.5001,-406.1854 540.5001,-406.1853"/>
</g>
<!-- 15 -->
<g id="node16" class="node">
<title>15</title>
<path fill="none" stroke="#d8bc56" stroke-width="2" d="M806,-324C806,-324 680,-324 680,-324 674,-324 668,-318 668,-312 668,-312 668,-300 668,-300 668,-294 674,-288 680,-288 680,-288 806,-288 806,-288 812,-288 818,-294 818,-300 818,-300 818,-312 818,-312 818,-318 812,-324 806,-324"/>
<text text-anchor="middle" x="743" y="-303.5" font-family="sans" font-size="10.00" fill="#000000">fusions_arriba_draw_fusion</text>
</g>
<!-- 4&#45;&gt;15 -->
<g id="edge28" class="edge">
<title>4&#45;&gt;15</title>
<path fill="none" stroke="#c0c0c0" stroke-width="2" d="M667.483,-791.81C679.2246,-764.9218 699,-712.7039 699,-666 699,-666 699,-666 699,-450 699,-407.9089 716.4064,-361.7993 729.3231,-333.3774"/>
<polygon fill="#c0c0c0" stroke="#c0c0c0" stroke-width="2" points="732.5975,-334.638 733.6687,-324.0975 726.2581,-331.6693 732.5975,-334.638"/>
</g>
<!-- 25 -->
<g id="node26" class="node">
<title>25</title>
<path fill="none" stroke="#56a2d8" stroke-width="2" d="M247,-684C247,-684 83,-684 83,-684 77,-684 71,-678 71,-672 71,-672 71,-660 71,-660 71,-654 77,-648 83,-648 83,-648 247,-648 247,-648 253,-648 259,-654 259,-660 259,-660 259,-672 259,-672 259,-678 253,-684 247,-684"/>
<text text-anchor="middle" x="165" y="-663.5" font-family="sans" font-size="10.00" fill="#000000">alignment_samtools_extract_reads</text>
</g>
<!-- 4&#45;&gt;25 -->
<g id="edge45" class="edge">
<title>4&#45;&gt;25</title>
<path fill="none" stroke="#c0c0c0" stroke-width="2" d="M613.7892,-806.0928C552.7292,-799.9218 441.0643,-785.4613 350,-756 297.369,-738.9727 240.7092,-709.6077 204.1583,-689.0651"/>
<polygon fill="#c0c0c0" stroke="#c0c0c0" stroke-width="2" points="205.7382,-685.9373 195.3137,-684.0453 202.283,-692.0252 205.7382,-685.9373"/>
</g>
<!-- 5 -->
<g id="node6" class="node">
<title>5</title>
<path fill="none" stroke="#61d856" stroke-width="2" d="M882.5,-900C882.5,-900 781.5,-900 781.5,-900 775.5,-900 769.5,-894 769.5,-888 769.5,-888 769.5,-876 769.5,-876 769.5,-870 775.5,-864 781.5,-864 781.5,-864 882.5,-864 882.5,-864 888.5,-864 894.5,-870 894.5,-876 894.5,-876 894.5,-888 894.5,-888 894.5,-894 888.5,-900 882.5,-900"/>
<text text-anchor="middle" x="832" y="-879.5" font-family="sans" font-size="10.00" fill="#000000">prealignment_merged</text>
</g>
<!-- 5&#45;&gt;4 -->
<g id="edge18" class="edge">
<title>5&#45;&gt;4</title>
<path fill="none" stroke="#c0c0c0" stroke-width="2" d="M788.3448,-863.8314C765.1042,-854.159 736.3432,-842.1891 711.8477,-831.9944"/>
<polygon fill="#c0c0c0" stroke="#c0c0c0" stroke-width="2" points="712.9185,-828.6491 702.3413,-828.038 710.2288,-835.1117 712.9185,-828.6491"/>
</g>
<!-- 6 -->
<g id="node7" class="node">
<title>6</title>
<path fill="none" stroke="#565bd8" stroke-width="2" d="M929.5,-972C929.5,-972 824.5,-972 824.5,-972 818.5,-972 812.5,-966 812.5,-960 812.5,-960 812.5,-948 812.5,-948 812.5,-942 818.5,-936 824.5,-936 824.5,-936 929.5,-936 929.5,-936 935.5,-936 941.5,-942 941.5,-948 941.5,-948 941.5,-960 941.5,-960 941.5,-966 935.5,-972 929.5,-972"/>
<text text-anchor="middle" x="877" y="-951.5" font-family="sans" font-size="10.00" fill="#000000">prealignment_fastp_pe</text>
</g>
<!-- 6&#45;&gt;2 -->
<g id="edge15" class="edge">
<title>6&#45;&gt;2</title>
<path fill="none" stroke="#c0c0c0" stroke-width="2" d="M941.5586,-936.4691C999.3389,-916.3935 1075,-877.2635 1075,-810 1075,-810 1075,-810 1075,-738 1075,-669.5215 994.3886,-627.9957 941.6621,-608.1585"/>
<polygon fill="#c0c0c0" stroke="#c0c0c0" stroke-width="2" points="942.7611,-604.834 932.1671,-604.7053 940.3686,-611.4124 942.7611,-604.834"/>
</g>
<!-- 6&#45;&gt;5 -->
<g id="edge19" class="edge">
<title>6&#45;&gt;5</title>
<path fill="none" stroke="#c0c0c0" stroke-width="2" d="M865.6446,-935.8314C860.5674,-927.7079 854.4773,-917.9637 848.8824,-909.0118"/>
<polygon fill="#c0c0c0" stroke="#c0c0c0" stroke-width="2" points="851.7763,-907.0383 843.5083,-900.4133 845.8403,-910.7483 851.7763,-907.0383"/>
</g>
<!-- 7&#45;&gt;3 -->
<g id="edge17" class="edge">
<title>7&#45;&gt;3</title>
<path fill="none" stroke="#c0c0c0" stroke-width="2" d="M480.431,-719.8314C505.368,-710.0734 536.2809,-697.977 562.4826,-687.7242"/>
<polygon fill="#c0c0c0" stroke="#c0c0c0" stroke-width="2" points="563.8659,-690.9414 571.9029,-684.038 561.3151,-684.4227 563.8659,-690.9414"/>
</g>
<!-- 11 -->
<g id="node12" class="node">
<title>11</title>
<path fill="none" stroke="#d8a456" stroke-width="2" d="M459,-540C459,-540 429,-540 429,-540 423,-540 417,-534 417,-528 417,-528 417,-516 417,-516 417,-510 423,-504 429,-504 429,-504 459,-504 459,-504 465,-504 471,-510 471,-516 471,-516 471,-528 471,-528 471,-534 465,-540 459,-540"/>
<text text-anchor="middle" x="444" y="-519.5" font-family="sans" font-size="10.00" fill="#000000">cp_bai</text>
</g>
<!-- 7&#45;&gt;11 -->
<g id="edge23" class="edge">
<title>7&#45;&gt;11</title>
<path fill="none" stroke="#c0c0c0" stroke-width="2" d="M434.8354,-719.9555C436.5744,-682.3938 440.5947,-595.5541 442.6847,-550.4103"/>
<polygon fill="#c0c0c0" stroke="#c0c0c0" stroke-width="2" points="446.1936,-550.2963 443.16,-540.1451 439.2011,-549.9725 446.1936,-550.2963"/>
</g>
<!-- 7&#45;&gt;13 -->
<g id="edge26" class="edge">
<title>7&#45;&gt;13</title>
<path fill="none" stroke="#c0c0c0" stroke-width="2" d="M448.4256,-719.6392C467.5751,-693.37 499,-642.8235 499,-594 499,-594 499,-594 499,-522 499,-480.3681 514.0328,-434.14 525.1881,-405.567"/>
<polygon fill="#c0c0c0" stroke="#c0c0c0" stroke-width="2" points="528.4578,-406.817 528.9412,-396.2332 521.9632,-404.2055 528.4578,-406.817"/>
</g>
<!-- 24 -->
<g id="node25" class="node">
<title>24</title>
<path fill="none" stroke="#d8b456" stroke-width="2" d="M280,-612C280,-612 220,-612 220,-612 214,-612 208,-606 208,-600 208,-600 208,-588 208,-588 208,-582 214,-576 220,-576 220,-576 280,-576 280,-576 286,-576 292,-582 292,-588 292,-588 292,-600 292,-600 292,-606 286,-612 280,-612"/>
<text text-anchor="middle" x="250" y="-591.5" font-family="sans" font-size="10.00" fill="#000000">dotnet_pisces</text>
</g>
<!-- 7&#45;&gt;24 -->
<g id="edge44" class="edge">
<title>7&#45;&gt;24</title>
<path fill="none" stroke="#c0c0c0" stroke-width="2" d="M432.596,-719.674C430.1016,-699.5406 423.1822,-667.4819 404,-648 376.9784,-620.5562 335.2311,-607.0318 302.0162,-600.3825"/>
<polygon fill="#c0c0c0" stroke="#c0c0c0" stroke-width="2" points="302.4775,-596.9086 292.0078,-598.5319 301.2047,-603.7919 302.4775,-596.9086"/>
</g>
<!-- 7&#45;&gt;25 -->
<g id="edge46" class="edge">
<title>7&#45;&gt;25</title>
<path fill="none" stroke="#c0c0c0" stroke-width="2" d="M360.5239,-719.9243C321.9634,-709.8675 274.9479,-697.3052 236.6598,-686.8363"/>
<polygon fill="#c0c0c0" stroke="#c0c0c0" stroke-width="2" points="237.1861,-683.3515 226.6166,-684.0831 235.3355,-690.1024 237.1861,-683.3515"/>
</g>
<!-- 8 -->
<g id="node9" class="node">
<title>8</title>
<path fill="none" stroke="#d8c356" stroke-width="2" d="M940.5,-684C940.5,-684 901.5,-684 901.5,-684 895.5,-684 889.5,-678 889.5,-672 889.5,-672 889.5,-660 889.5,-660 889.5,-654 895.5,-648 901.5,-648 901.5,-648 940.5,-648 940.5,-648 946.5,-648 952.5,-654 952.5,-660 952.5,-660 952.5,-672 952.5,-672 952.5,-678 946.5,-684 940.5,-684"/>
<text text-anchor="middle" x="921" y="-663.5" font-family="sans" font-size="10.00" fill="#000000">qc_fastqc</text>
</g>
<!-- 8&#45;&gt;2 -->
<g id="edge14" class="edge">
<title>8&#45;&gt;2</title>
<path fill="none" stroke="#c0c0c0" stroke-width="2" d="M914.9438,-647.8314C912.3488,-640.0463 909.2576,-630.7729 906.3782,-622.1347"/>
<polygon fill="#c0c0c0" stroke="#c0c0c0" stroke-width="2" points="909.6205,-620.7933 903.1378,-612.4133 902.9797,-623.0069 909.6205,-620.7933"/>
</g>
<!-- 9 -->
<g id="node10" class="node">
<title>9</title>
<path fill="none" stroke="#56d8d8" stroke-width="2" d="M859,-684C859,-684 739,-684 739,-684 733,-684 727,-678 727,-672 727,-672 727,-660 727,-660 727,-654 733,-648 739,-648 739,-648 859,-648 859,-648 865,-648 871,-654 871,-660 871,-660 871,-672 871,-672 871,-678 865,-684 859,-684"/>
<text text-anchor="middle" x="799" y="-663.5" font-family="sans" font-size="10.00" fill="#000000">sample_order_for_multiqc</text>
</g>
<!-- 9&#45;&gt;2 -->
<g id="edge12" class="edge">
<title>9&#45;&gt;2</title>
<path fill="none" stroke="#c0c0c0" stroke-width="2" d="M823.7295,-647.8314C835.9162,-638.8779 850.7823,-627.9558 863.9312,-618.2955"/>
<polygon fill="#c0c0c0" stroke="#c0c0c0" stroke-width="2" points="866.2918,-620.9042 872.2784,-612.1628 862.1473,-615.263 866.2918,-620.9042"/>
</g>
<!-- 10&#45;&gt;0 -->
<g id="edge8" class="edge">
<title>10&#45;&gt;0</title>
<path fill="none" stroke="#c0c0c0" stroke-width="2" d="M1019,-719.8146C1019,-692.4983 1019,-639.25 1019,-594 1019,-594 1019,-594 1019,-162 1019,-77.9372 724.1615,-34.8808 618.2882,-22.1296"/>
<polygon fill="#c0c0c0" stroke="#c0c0c0" stroke-width="2" points="618.4098,-18.6197 608.0683,-20.9226 617.5888,-25.5714 618.4098,-18.6197"/>
</g>
<!-- 11&#45;&gt;0 -->
<g id="edge6" class="edge">
<title>11&#45;&gt;0</title>
<path fill="none" stroke="#c0c0c0" stroke-width="2" d="M443.037,-503.7228C440.498,-439.4592 439.0552,-219.8091 527,-72 533.2396,-61.5131 541.9726,-51.5868 550.5996,-43.1736"/>
<polygon fill="#c0c0c0" stroke="#c0c0c0" stroke-width="2" points="553.1596,-45.5721 558.0883,-36.1935 548.3867,-40.4515 553.1596,-45.5721"/>
</g>
<!-- 12 -->
<g id="node13" class="node">
<title>12</title>
<path fill="none" stroke="#afd856" stroke-width="2" d="M562,-324C562,-324 484,-324 484,-324 478,-324 472,-318 472,-312 472,-312 472,-300 472,-300 472,-294 478,-288 484,-288 484,-288 562,-288 562,-288 568,-288 574,-294 574,-300 574,-300 574,-312 574,-312 574,-318 568,-324 562,-324"/>
<text text-anchor="middle" x="523" y="-303.5" font-family="sans" font-size="10.00" fill="#000000">cp_arrbia_fusions</text>
</g>
<!-- 12&#45;&gt;0 -->
<g id="edge2" class="edge">
<title>12&#45;&gt;0</title>
<path fill="none" stroke="#c0c0c0" stroke-width="2" d="M521.0905,-287.9656C517.5242,-247.725 512.5811,-148.1566 541,-72 544.671,-62.1624 550.7047,-52.5677 556.9861,-44.261"/>
<polygon fill="#c0c0c0" stroke="#c0c0c0" stroke-width="2" points="559.7464,-46.4134 563.2717,-36.4223 554.2853,-42.0343 559.7464,-46.4134"/>
</g>
<!-- 13&#45;&gt;12 -->
<g id="edge24" class="edge">
<title>13&#45;&gt;12</title>
<path fill="none" stroke="#c0c0c0" stroke-width="2" d="M533.4672,-359.8314C531.9699,-352.131 530.1895,-342.9743 528.5255,-334.4166"/>
<polygon fill="#c0c0c0" stroke="#c0c0c0" stroke-width="2" points="531.9248,-333.5614 526.5804,-324.4133 525.0535,-334.8975 531.9248,-333.5614"/>
</g>
<!-- 13&#45;&gt;15 -->
<g id="edge29" class="edge">
<title>13&#45;&gt;15</title>
<path fill="none" stroke="#c0c0c0" stroke-width="2" d="M580.1844,-362.9064C609.7139,-352.5854 649.2816,-338.756 682.016,-327.3148"/>
<polygon fill="#c0c0c0" stroke="#c0c0c0" stroke-width="2" points="683.2088,-330.6056 691.494,-324.0021 680.8991,-323.9976 683.2088,-330.6056"/>
</g>
<!-- 13&#45;&gt;30 -->
<g id="edge52" class="edge">
<title>13&#45;&gt;30</title>
<path fill="none" stroke="#c0c0c0" stroke-width="2" d="M555.4588,-359.8084C564.7109,-349.8988 575.5091,-337.0242 583,-324 596.4352,-300.6404 619.3168,-229.4976 631.6056,-189.6991"/>
<polygon fill="#c0c0c0" stroke="#c0c0c0" stroke-width="2" points="634.9725,-190.6574 634.5608,-180.0705 628.2806,-188.6035 634.9725,-190.6574"/>
</g>
<!-- 14 -->
<g id="node15" class="node">
<title>14</title>
<path fill="none" stroke="#56c9d8" stroke-width="2" d="M831.5,-252C831.5,-252 772.5,-252 772.5,-252 766.5,-252 760.5,-246 760.5,-240 760.5,-240 760.5,-228 760.5,-228 760.5,-222 766.5,-216 772.5,-216 772.5,-216 831.5,-216 831.5,-216 837.5,-216 843.5,-222 843.5,-228 843.5,-228 843.5,-240 843.5,-240 843.5,-246 837.5,-252 831.5,-252"/>
<text text-anchor="middle" x="802" y="-231.5" font-family="sans" font-size="10.00" fill="#000000">cp_arrbia_pdf</text>
</g>
<!-- 14&#45;&gt;0 -->
<g id="edge4" class="edge">
<title>14&#45;&gt;0</title>
<path fill="none" stroke="#c0c0c0" stroke-width="2" d="M784.4537,-215.6915C755.2079,-185.3246 694.4256,-122.8451 641,-72 630.907,-62.3945 619.6039,-52.1052 609.5528,-43.112"/>
<polygon fill="#c0c0c0" stroke="#c0c0c0" stroke-width="2" points="611.6035,-40.2515 601.8076,-36.2153 606.9484,-45.4793 611.6035,-40.2515"/>
</g>
<!-- 15&#45;&gt;14 -->
<g id="edge27" class="edge">
<title>15&#45;&gt;14</title>
<path fill="none" stroke="#c0c0c0" stroke-width="2" d="M757.8882,-287.8314C764.753,-279.454 773.0301,-269.3531 780.5511,-260.1749"/>
<polygon fill="#c0c0c0" stroke="#c0c0c0" stroke-width="2" points="783.2803,-262.3665 786.9114,-252.4133 777.8659,-257.9297 783.2803,-262.3665"/>
</g>
<!-- 31 -->
<g id="node32" class="node">
<title>31</title>
<path fill="none" stroke="#d85656" stroke-width="2" d="M730,-252C730,-252 680,-252 680,-252 674,-252 668,-246 668,-240 668,-240 668,-228 668,-228 668,-222 674,-216 680,-216 680,-216 730,-216 730,-216 736,-216 742,-222 742,-228 742,-228 742,-240 742,-240 742,-246 736,-252 730,-252"/>
<text text-anchor="middle" x="705" y="-231.5" font-family="sans" font-size="10.00" fill="#000000">convert_pdf</text>
</g>
<!-- 15&#45;&gt;31 -->
<g id="edge55" class="edge">
<title>15&#45;&gt;31</title>
<path fill="none" stroke="#c0c0c0" stroke-width="2" d="M733.411,-287.8314C729.1683,-279.7925 724.0879,-270.1666 719.404,-261.2918"/>
<polygon fill="#c0c0c0" stroke="#c0c0c0" stroke-width="2" points="722.4811,-259.6235 714.7181,-252.4133 716.2904,-262.8908 722.4811,-259.6235"/>
</g>
<!-- 16 -->
<g id="node17" class="node">
<title>16</title>
<path fill="none" stroke="#56d892" stroke-width="2" d="M423,-180C423,-180 393,-180 393,-180 387,-180 381,-174 381,-168 381,-168 381,-156 381,-156 381,-150 387,-144 393,-144 393,-144 423,-144 423,-144 429,-144 435,-150 435,-156 435,-156 435,-168 435,-168 435,-174 429,-180 423,-180"/>
<text text-anchor="middle" x="408" y="-159.5" font-family="sans" font-size="10.00" fill="#000000">cp_vcf</text>
</g>
<!-- 16&#45;&gt;0 -->
<g id="edge1" class="edge">
<title>16&#45;&gt;0</title>
<path fill="none" stroke="#c0c0c0" stroke-width="2" d="M414.5098,-143.8848C422.4869,-123.9403 437.7442,-92.0504 460,-72 483.9901,-50.3871 518.0501,-36.2406 543.9246,-27.8704"/>
<polygon fill="#c0c0c0" stroke="#c0c0c0" stroke-width="2" points="545.2292,-31.1308 553.7532,-24.8386 543.1658,-24.4418 545.2292,-31.1308"/>
</g>
<!-- 17 -->
<g id="node18" class="node">
<title>17</title>
<path fill="none" stroke="#56d8a2" stroke-width="2" d="M433.5,-252C433.5,-252 320.5,-252 320.5,-252 314.5,-252 308.5,-246 308.5,-240 308.5,-240 308.5,-228 308.5,-228 308.5,-222 314.5,-216 320.5,-216 320.5,-216 433.5,-216 433.5,-216 439.5,-216 445.5,-222 445.5,-228 445.5,-228 445.5,-240 445.5,-240 445.5,-246 439.5,-252 433.5,-252"/>
<text text-anchor="middle" x="377" y="-231.5" font-family="sans" font-size="10.00" fill="#000000">snv_indels_bcftools_sort</text>
</g>
<!-- 17&#45;&gt;16 -->
<g id="edge30" class="edge">
<title>17&#45;&gt;16</title>
<path fill="none" stroke="#c0c0c0" stroke-width="2" d="M384.8226,-215.8314C388.2109,-207.9617 392.2541,-198.5712 396.0076,-189.8533"/>
<polygon fill="#c0c0c0" stroke="#c0c0c0" stroke-width="2" points="399.3321,-190.9822 400.0721,-180.4133 392.9027,-188.214 399.3321,-190.9822"/>
</g>
<!-- 27 -->
<g id="node28" class="node">
<title>27</title>
<path fill="none" stroke="#56c1d8" stroke-width="2" d="M329,-180C329,-180 255,-180 255,-180 249,-180 243,-174 243,-168 243,-168 243,-156 243,-156 243,-150 249,-144 255,-144 255,-144 329,-144 329,-144 335,-144 341,-150 341,-156 341,-156 341,-168 341,-168 341,-174 335,-180 329,-180"/>
<text text-anchor="middle" x="292" y="-159.5" font-family="sans" font-size="10.00" fill="#000000">snv_indels_tabix</text>
</g>
<!-- 17&#45;&gt;27 -->
<g id="edge48" class="edge">
<title>17&#45;&gt;27</title>
<path fill="none" stroke="#c0c0c0" stroke-width="2" d="M349.5985,-215.8314C338.4829,-207.1337 325.8496,-196.5783 315.1947,-187.1265"/>
<polygon fill="#c0c0c0" stroke="#c0c0c0" stroke-width="2" points="317.256,-184.2718 307.4904,-180.1628 312.5621,-189.4649 317.256,-184.2718"/>
</g>
<!-- 17&#45;&gt;30 -->
<g id="edge51" class="edge">
<title>17&#45;&gt;30</title>
<path fill="none" stroke="#c0c0c0" stroke-width="2" d="M443.0265,-215.9243C485.4784,-204.3025 540.1527,-189.3346 581.1237,-178.1182"/>
<polygon fill="#c0c0c0" stroke="#c0c0c0" stroke-width="2" points="582.2433,-181.4406 590.9642,-175.4243 580.3949,-174.689 582.2433,-181.4406"/>
</g>
<!-- 18 -->
<g id="node19" class="node">
<title>18</title>
<path fill="none" stroke="#d8c356" stroke-width="2" d="M399.5,-324C399.5,-324 286.5,-324 286.5,-324 280.5,-324 274.5,-318 274.5,-312 274.5,-312 274.5,-300 274.5,-300 274.5,-294 280.5,-288 286.5,-288 286.5,-288 399.5,-288 399.5,-288 405.5,-288 411.5,-294 411.5,-300 411.5,-300 411.5,-312 411.5,-312 411.5,-318 405.5,-324 399.5,-324"/>
<text text-anchor="middle" x="343" y="-303.5" font-family="sans" font-size="10.00" fill="#000000">snv_indels_vt_normalize</text>
</g>
<!-- 18&#45;&gt;17 -->
<g id="edge31" class="edge">
<title>18&#45;&gt;17</title>
<path fill="none" stroke="#c0c0c0" stroke-width="2" d="M351.5796,-287.8314C355.3358,-279.8771 359.8257,-270.369 363.9798,-261.5723"/>
<polygon fill="#c0c0c0" stroke="#c0c0c0" stroke-width="2" points="367.1996,-262.9503 368.3048,-252.4133 360.8699,-259.9612 367.1996,-262.9503"/>
</g>
<!-- 18&#45;&gt;27 -->
<g id="edge47" class="edge">
<title>18&#45;&gt;27</title>
<path fill="none" stroke="#c0c0c0" stroke-width="2" d="M323.5052,-287.8793C314.3966,-278.1802 304.3917,-265.4729 299,-252 291.1633,-232.4173 289.6318,-208.5499 289.9419,-190.3155"/>
<polygon fill="#c0c0c0" stroke="#c0c0c0" stroke-width="2" points="293.4401,-190.425 290.3035,-180.3052 286.4447,-190.1723 293.4401,-190.425"/>
</g>
<!-- 19 -->
<g id="node20" class="node">
<title>19</title>
<path fill="none" stroke="#569ad8" stroke-width="2" d="M403.5,-396C403.5,-396 282.5,-396 282.5,-396 276.5,-396 270.5,-390 270.5,-384 270.5,-384 270.5,-372 270.5,-372 270.5,-366 276.5,-360 282.5,-360 282.5,-360 403.5,-360 403.5,-360 409.5,-360 415.5,-366 415.5,-372 415.5,-372 415.5,-384 415.5,-384 415.5,-390 409.5,-396 403.5,-396"/>
<text text-anchor="middle" x="343" y="-375.5" font-family="sans" font-size="10.00" fill="#000000">snv_indels_vt_decompose</text>
</g>
<!-- 19&#45;&gt;18 -->
<g id="edge33" class="edge">
<title>19&#45;&gt;18</title>
<path fill="none" stroke="#c0c0c0" stroke-width="2" d="M343,-359.8314C343,-352.131 343,-342.9743 343,-334.4166"/>
<polygon fill="#c0c0c0" stroke="#c0c0c0" stroke-width="2" points="346.5001,-334.4132 343,-324.4133 339.5001,-334.4133 346.5001,-334.4132"/>
</g>
<!-- 20 -->
<g id="node21" class="node">
<title>20</title>
<path fill="none" stroke="#68d856" stroke-width="2" d="M201,-468C201,-468 125,-468 125,-468 119,-468 113,-462 113,-456 113,-456 113,-444 113,-444 113,-438 119,-432 125,-432 125,-432 201,-432 201,-432 207,-432 213,-438 213,-444 213,-444 213,-456 213,-456 213,-462 207,-468 201,-468"/>
<text text-anchor="middle" x="163" y="-447.5" font-family="sans" font-size="10.00" fill="#000000">snv_indels_bgzip</text>
</g>
<!-- 20&#45;&gt;19 -->
<g id="edge34" class="edge">
<title>20&#45;&gt;19</title>
<path fill="none" stroke="#c0c0c0" stroke-width="2" d="M208.4216,-431.8314C232.7095,-422.1162 262.7922,-410.0831 288.352,-399.8592"/>
<polygon fill="#c0c0c0" stroke="#c0c0c0" stroke-width="2" points="289.9201,-403.0016 297.905,-396.038 287.3204,-396.5023 289.9201,-403.0016"/>
</g>
<!-- 21 -->
<g id="node22" class="node">
<title>21</title>
<path fill="none" stroke="#a7d856" stroke-width="2" d="M201.5,-396C201.5,-396 124.5,-396 124.5,-396 118.5,-396 112.5,-390 112.5,-384 112.5,-384 112.5,-372 112.5,-372 112.5,-366 118.5,-360 124.5,-360 124.5,-360 201.5,-360 201.5,-360 207.5,-360 213.5,-366 213.5,-372 213.5,-372 213.5,-384 213.5,-384 213.5,-390 207.5,-396 201.5,-396"/>
<text text-anchor="middle" x="163" y="-375.5" font-family="sans" font-size="10.00" fill="#000000">snv_indels_fix_af</text>
</g>
<!-- 20&#45;&gt;21 -->
<g id="edge38" class="edge">
<title>20&#45;&gt;21</title>
<path fill="none" stroke="#c0c0c0" stroke-width="2" d="M157.0476,-431.8314C156.2972,-424.131 156.0763,-414.9743 156.3849,-406.4166"/>
<polygon fill="#c0c0c0" stroke="#c0c0c0" stroke-width="2" points="159.8792,-406.6161 157.024,-396.4133 152.8935,-406.1697 159.8792,-406.6161"/>
</g>
<!-- 22 -->
<g id="node23" class="node">
<title>22</title>
<path fill="none" stroke="#d85e56" stroke-width="2" d="M138,-108C138,-108 12,-108 12,-108 6,-108 0,-102 0,-96 0,-96 0,-84 0,-84 0,-78 6,-72 12,-72 12,-72 138,-72 138,-72 144,-72 150,-78 150,-84 150,-84 150,-96 150,-96 150,-102 144,-108 138,-108"/>
<text text-anchor="middle" x="75" y="-87.5" font-family="sans" font-size="10.00" fill="#000000">snv_indels_bcftools_concat</text>
</g>
<!-- 20&#45;&gt;22 -->
<g id="edge40" class="edge">
<title>20&#45;&gt;22</title>
<path fill="none" stroke="#c0c0c0" stroke-width="2" d="M129.1499,-431.9809C116.3657,-422.4849 102.921,-409.9241 94,-396 71.4013,-360.7273 66,-347.8911 66,-306 66,-306 66,-306 66,-234 66,-193.876 66,-147.4631 68.2178,-118.4177"/>
<polygon fill="#c0c0c0" stroke="#c0c0c0" stroke-width="2" points="71.7283,-118.4694 69.181,-108.1854 64.7591,-117.8133 71.7283,-118.4694"/>
</g>
<!-- 20&#45;&gt;27 -->
<g id="edge49" class="edge">
<title>20&#45;&gt;27</title>
<path fill="none" stroke="#c0c0c0" stroke-width="2" d="M188.3608,-431.9434C200.079,-422.4385 213.2945,-409.8811 222,-396 243.9135,-361.0587 272.9434,-244.1019 285.6209,-189.9508"/>
<polygon fill="#c0c0c0" stroke="#c0c0c0" stroke-width="2" points="289.0787,-190.5335 287.9315,-180.0009 282.2601,-188.95 289.0787,-190.5335"/>
</g>
<!-- 21&#45;&gt;20 -->
<g id="edge35" class="edge">
<title>21&#45;&gt;20</title>
<path fill="none" stroke="#c0c0c0" stroke-width="2" d="M168.976,-396.4133C169.7071,-404.0593 169.9203,-413.1084 169.6155,-421.5726"/>
<polygon fill="#c0c0c0" stroke="#c0c0c0" stroke-width="2" points="166.1048,-421.6264 168.9524,-431.8314 173.0902,-422.078 166.1048,-421.6264"/>
</g>
<!-- 22&#45;&gt;20 -->
<g id="edge36" class="edge">
<title>22&#45;&gt;20</title>
<path fill="none" stroke="#c0c0c0" stroke-width="2" d="M80.819,-108.1854C84,-135.5017 84,-188.75 84,-234 84,-306 84,-306 84,-306 84,-347.8911 89.4013,-360.7273 112,-396 118.9695,-406.8782 128.7001,-416.9243 137.8792,-425.327"/>
<polygon fill="#c0c0c0" stroke="#c0c0c0" stroke-width="2" points="135.5818,-427.9677 145.3871,-431.9809 140.2246,-422.7289 135.5818,-427.9677"/>
</g>
<!-- 23 -->
<g id="node24" class="node">
<title>23</title>
<path fill="none" stroke="#d8d356" stroke-width="2" d="M246,-540C246,-540 166,-540 166,-540 160,-540 154,-534 154,-528 154,-528 154,-516 154,-516 154,-510 160,-504 166,-504 166,-504 246,-504 246,-504 252,-504 258,-510 258,-516 258,-516 258,-528 258,-528 258,-534 252,-540 246,-540"/>
<text text-anchor="middle" x="206" y="-519.5" font-family="sans" font-size="10.00" fill="#000000">bcftools_reheader</text>
</g>
<!-- 23&#45;&gt;20 -->
<g id="edge37" class="edge">
<title>23&#45;&gt;20</title>
<path fill="none" stroke="#c0c0c0" stroke-width="2" d="M195.1493,-503.8314C190.2977,-495.7079 184.4783,-485.9637 179.132,-477.0118"/>
<polygon fill="#c0c0c0" stroke="#c0c0c0" stroke-width="2" points="182.1292,-475.2041 173.9968,-468.4133 176.1194,-478.7933 182.1292,-475.2041"/>
</g>
<!-- 24&#45;&gt;23 -->
<g id="edge41" class="edge">
<title>24&#45;&gt;23</title>
<path fill="none" stroke="#c0c0c0" stroke-width="2" d="M238.8969,-575.8314C233.9326,-567.7079 227.9778,-557.9637 222.5072,-549.0118"/>
<polygon fill="#c0c0c0" stroke="#c0c0c0" stroke-width="2" points="225.4536,-547.121 217.2526,-540.4133 219.4806,-550.7712 225.4536,-547.121"/>
</g>
<!-- 25&#45;&gt;7 -->
<g id="edge20" class="edge">
<title>25&#45;&gt;7</title>
<path fill="none" stroke="#c0c0c0" stroke-width="2" d="M238.5047,-684.0831C277.0693,-694.1412 324.0847,-706.7036 362.3686,-717.1715"/>
<polygon fill="#c0c0c0" stroke="#c0c0c0" stroke-width="2" points="361.8409,-720.6559 372.4105,-719.9243 363.6916,-713.905 361.8409,-720.6559"/>
</g>
<!-- 25&#45;&gt;24 -->
<g id="edge42" class="edge">
<title>25&#45;&gt;24</title>
<path fill="none" stroke="#c0c0c0" stroke-width="2" d="M186.4491,-647.8314C196.8178,-639.0485 209.4229,-628.3712 220.6646,-618.8489"/>
<polygon fill="#c0c0c0" stroke="#c0c0c0" stroke-width="2" points="223.1895,-621.297 228.5578,-612.1628 218.6651,-615.9556 223.1895,-621.297"/>
</g>
<!-- 26 -->
<g id="node27" class="node">
<title>26</title>
<path fill="none" stroke="#ced856" stroke-width="2" d="M383,-684C383,-684 289,-684 289,-684 283,-684 277,-678 277,-672 277,-672 277,-660 277,-660 277,-654 283,-648 289,-648 289,-648 383,-648 383,-648 389,-648 395,-654 395,-660 395,-660 395,-672 395,-672 395,-678 389,-684 383,-684"/>
<text text-anchor="middle" x="336" y="-663.5" font-family="sans" font-size="10.00" fill="#000000">snv_indels_bed_split</text>
</g>
<!-- 26&#45;&gt;24 -->
<g id="edge43" class="edge">
<title>26&#45;&gt;24</title>
<path fill="none" stroke="#c0c0c0" stroke-width="2" d="M314.2986,-647.8314C303.8079,-639.0485 291.0545,-628.3712 279.6806,-618.8489"/>
<polygon fill="#c0c0c0" stroke="#c0c0c0" stroke-width="2" points="281.6089,-615.8986 271.6945,-612.1628 277.1153,-621.2659 281.6089,-615.8986"/>
</g>
<!-- 27&#45;&gt;17 -->
<g id="edge32" class="edge">
<title>27&#45;&gt;17</title>
<path fill="none" stroke="#c0c0c0" stroke-width="2" d="M319.3941,-180.1628C330.509,-188.8596 343.1424,-199.4149 353.7982,-208.8672"/>
<polygon fill="#c0c0c0" stroke="#c0c0c0" stroke-width="2" points="351.7376,-211.7225 361.5033,-215.8314 356.4314,-206.5294 351.7376,-211.7225"/>
</g>
<!-- 27&#45;&gt;22 -->
<g id="edge39" class="edge">
<title>27&#45;&gt;22</title>
<path fill="none" stroke="#c0c0c0" stroke-width="2" d="M242.7593,-145.6621C212.03,-135.4662 172.1525,-122.2349 138.9875,-111.2309"/>
<polygon fill="#c0c0c0" stroke="#c0c0c0" stroke-width="2" points="139.971,-107.8696 129.3776,-108.0423 137.7666,-114.5135 139.971,-107.8696"/>
</g>
<!-- 28 -->
<g id="node29" class="node">
<title>28</title>
<path fill="none" stroke="#566bd8" stroke-width="2" d="M360,-108C360,-108 330,-108 330,-108 324,-108 318,-102 318,-96 318,-96 318,-84 318,-84 318,-78 324,-72 330,-72 330,-72 360,-72 360,-72 366,-72 372,-78 372,-84 372,-84 372,-96 372,-96 372,-102 366,-108 360,-108"/>
<text text-anchor="middle" x="345" y="-87.5" font-family="sans" font-size="10.00" fill="#000000">cp_tbi</text>
</g>
<!-- 27&#45;&gt;28 -->
<g id="edge50" class="edge">
<title>27&#45;&gt;28</title>
<path fill="none" stroke="#c0c0c0" stroke-width="2" d="M305.3741,-143.8314C311.4162,-135.6232 318.6763,-125.7606 325.3221,-116.7323"/>
<polygon fill="#c0c0c0" stroke="#c0c0c0" stroke-width="2" points="328.3363,-118.5415 331.4458,-108.4133 322.6989,-114.3918 328.3363,-118.5415"/>
</g>
<!-- 28&#45;&gt;0 -->
<g id="edge9" class="edge">
<title>28&#45;&gt;0</title>
<path fill="none" stroke="#c0c0c0" stroke-width="2" d="M372.0722,-81.7407C414.4597,-68.8089 496.5659,-43.7596 544.254,-29.2106"/>
<polygon fill="#c0c0c0" stroke="#c0c0c0" stroke-width="2" points="545.3376,-32.5394 553.881,-26.2736 543.2949,-25.844 545.3376,-32.5394"/>
</g>
<!-- 29 -->
<g id="node30" class="node">
<title>29</title>
<path fill="none" stroke="#d86e56" stroke-width="2" d="M600,-108C600,-108 562,-108 562,-108 556,-108 550,-102 550,-96 550,-96 550,-84 550,-84 550,-78 556,-72 562,-72 562,-72 600,-72 600,-72 606,-72 612,-78 612,-84 612,-84 612,-96 612,-96 612,-102 606,-108 600,-108"/>
<text text-anchor="middle" x="581" y="-87.5" font-family="sans" font-size="10.00" fill="#000000">cp_config</text>
</g>
<!-- 29&#45;&gt;0 -->
<g id="edge3" class="edge">
<title>29&#45;&gt;0</title>
<path fill="none" stroke="#c0c0c0" stroke-width="2" d="M581,-71.8314C581,-64.131 581,-54.9743 581,-46.4166"/>
<polygon fill="#c0c0c0" stroke="#c0c0c0" stroke-width="2" points="584.5001,-46.4132 581,-36.4133 577.5001,-46.4133 584.5001,-46.4132"/>
</g>
<!-- 30&#45;&gt;0 -->
<g id="edge5" class="edge">
<title>30&#45;&gt;0</title>
<path fill="none" stroke="#c0c0c0" stroke-width="2" d="M638.4508,-143.7034C636.3447,-124.9989 631.5496,-95.4467 621,-72 616.6198,-62.2648 610.2607,-52.5903 603.8969,-44.1767"/>
<polygon fill="#c0c0c0" stroke="#c0c0c0" stroke-width="2" points="606.5557,-41.8963 597.6047,-36.2278 601.0672,-46.2409 606.5557,-41.8963"/>
</g>
<!-- 31&#45;&gt;30 -->
<g id="edge53" class="edge">
<title>31&#45;&gt;30</title>
<path fill="none" stroke="#c0c0c0" stroke-width="2" d="M688.5978,-215.8314C680.9585,-207.3694 671.7317,-197.1489 663.3793,-187.8971"/>
<polygon fill="#c0c0c0" stroke="#c0c0c0" stroke-width="2" points="665.9221,-185.4906 656.6231,-180.4133 660.7262,-190.1813 665.9221,-185.4906"/>
</g>
</g>
</svg>
