<?xml version="1.0" encoding="UTF-8" standalone="no"?>
<!DOCTYPE svg PUBLIC "-//W3C//DTD SVG 1.1//EN"
 "http://www.w3.org/Graphics/SVG/1.1/DTD/svg11.dtd">
<!-- Generated by graphviz version 2.40.1 (0)
 -->
<!-- Title: snakemake_dag Pages: 1 -->
<svg width="839pt" height="980pt"
 viewBox="0.00 0.00 839.00 980.00" xmlns="http://www.w3.org/2000/svg" xmlns:xlink="http://www.w3.org/1999/xlink">
<g id="graph0" class="graph" transform="scale(1 1) rotate(0) translate(4 976)">
<title>snakemake_dag</title>
<polygon fill="#ffffff" stroke="transparent" points="-4,4 -4,-976 835,-976 835,4 -4,4"/>
<!-- 0 -->
<g id="node1" class="node">
<title>0</title>
<path fill="none" stroke="#d88d56" stroke-width="2" d="M401,-36C401,-36 371,-36 371,-36 365,-36 359,-30 359,-24 359,-24 359,-12 359,-12 359,-6 365,0 371,0 371,0 401,0 401,0 407,0 413,-6 413,-12 413,-12 413,-24 413,-24 413,-30 407,-36 401,-36"/>
<text text-anchor="middle" x="386" y="-15.5" font-family="sans" font-size="10.00" fill="#000000">all</text>
</g>
<!-- 1 -->
<g id="node2" class="node">
<title>1</title>
<path fill="none" stroke="#56d8c9" stroke-width="2" d="M75,-468C75,-468 29,-468 29,-468 23,-468 17,-462 17,-456 17,-456 17,-444 17,-444 17,-438 23,-432 29,-432 29,-432 75,-432 75,-432 81,-432 87,-438 87,-444 87,-444 87,-456 87,-456 87,-462 81,-468 75,-468"/>
<text text-anchor="middle" x="52" y="-447.5" font-family="sans" font-size="10.00" fill="#000000">cp_multiqc</text>
</g>
<!-- 1&#45;&gt;0 -->
<g id="edge6" class="edge">
<title>1&#45;&gt;0</title>
<path fill="none" stroke="#c0c0c0" stroke-width="2" d="M51.3784,-431.8172C50.4997,-404.504 49,-351.2598 49,-306 49,-306 49,-306 49,-162 49,-121.0242 39.3114,-100.2418 69,-72 108.6617,-34.2712 273.5784,-22.6578 348.5761,-19.2889"/>
<polygon fill="#c0c0c0" stroke="#c0c0c0" stroke-width="2" points="349.1202,-22.7691 358.9633,-18.8495 348.8243,-15.7753 349.1202,-22.7691"/>
</g>
<!-- 2 -->
<g id="node3" class="node">
<title>2</title>
<path fill="none" stroke="#d8c356" stroke-width="2" d="M83,-612C83,-612 37,-612 37,-612 31,-612 25,-606 25,-600 25,-600 25,-588 25,-588 25,-582 31,-576 37,-576 37,-576 83,-576 83,-576 89,-576 95,-582 95,-588 95,-588 95,-600 95,-600 95,-606 89,-612 83,-612"/>
<text text-anchor="middle" x="60" y="-591.5" font-family="sans" font-size="10.00" fill="#000000">qc_multiqc</text>
</g>
<!-- 2&#45;&gt;1 -->
<g id="edge9" class="edge">
<title>2&#45;&gt;1</title>
<path fill="none" stroke="#c0c0c0" stroke-width="2" d="M58.9868,-575.7623C57.6223,-551.201 55.1804,-507.2474 53.5752,-478.3541"/>
<polygon fill="#c0c0c0" stroke="#c0c0c0" stroke-width="2" points="57.0544,-477.88 53.005,-468.0896 50.0652,-478.2684 57.0544,-477.88"/>
</g>
<!-- 3 -->
<g id="node4" class="node">
<title>3</title>
<path fill="none" stroke="#bed856" stroke-width="2" d="M279.5,-684C279.5,-684 198.5,-684 198.5,-684 192.5,-684 186.5,-678 186.5,-672 186.5,-672 186.5,-660 186.5,-660 186.5,-654 192.5,-648 198.5,-648 198.5,-648 279.5,-648 279.5,-648 285.5,-648 291.5,-654 291.5,-660 291.5,-660 291.5,-672 291.5,-672 291.5,-678 285.5,-684 279.5,-684"/>
<text text-anchor="middle" x="239" y="-663.5" font-family="sans" font-size="10.00" fill="#000000">qc_mosdepth_bed</text>
</g>
<!-- 3&#45;&gt;2 -->
<g id="edge13" class="edge">
<title>3&#45;&gt;2</title>
<path fill="none" stroke="#c0c0c0" stroke-width="2" d="M193.8307,-647.8314C166.5003,-636.8381 131.7913,-622.877 104.5698,-611.9275"/>
<polygon fill="#c0c0c0" stroke="#c0c0c0" stroke-width="2" points="105.8616,-608.6746 95.2778,-608.19 103.2493,-615.169 105.8616,-608.6746"/>
</g>
<!-- 28 -->
<g id="node29" class="node">
<title>28</title>
<path fill="none" stroke="#569ad8" stroke-width="2" d="M266,-108C266,-108 192,-108 192,-108 186,-108 180,-102 180,-96 180,-96 180,-84 180,-84 180,-78 186,-72 192,-72 192,-72 266,-72 266,-72 272,-72 278,-78 278,-84 278,-84 278,-96 278,-96 278,-102 272,-108 266,-108"/>
<text text-anchor="middle" x="229" y="-87.5" font-family="sans" font-size="10.00" fill="#000000">summary_report</text>
</g>
<!-- 3&#45;&gt;28 -->
<g id="edge52" class="edge">
<title>3&#45;&gt;28</title>
<path fill="none" stroke="#c0c0c0" stroke-width="2" d="M242.3152,-647.8863C247.0017,-620.6615 255,-567.5285 255,-522 255,-522 255,-522 255,-234 255,-193.2738 244.804,-147.0849 237.182,-118.2458"/>
<polygon fill="#c0c0c0" stroke="#c0c0c0" stroke-width="2" points="240.5185,-117.1771 234.5139,-108.4481 233.7644,-119.0164 240.5185,-117.1771"/>
</g>
<!-- 4 -->
<g id="node5" class="node">
<title>4</title>
<path fill="none" stroke="#d85656" stroke-width="2" d="M332,-828C332,-828 266,-828 266,-828 260,-828 254,-822 254,-816 254,-816 254,-804 254,-804 254,-798 260,-792 266,-792 266,-792 332,-792 332,-792 338,-792 344,-798 344,-804 344,-804 344,-816 344,-816 344,-822 338,-828 332,-828"/>
<text text-anchor="middle" x="299" y="-807.5" font-family="sans" font-size="10.00" fill="#000000">alignment_star</text>
</g>
<!-- 4&#45;&gt;2 -->
<g id="edge10" class="edge">
<title>4&#45;&gt;2</title>
<path fill="none" stroke="#c0c0c0" stroke-width="2" d="M253.7474,-804.3951C219.7089,-797.9982 173.9617,-784.4531 144,-756 106.4162,-720.3086 125.4026,-693.1789 100,-648 94.6822,-638.5423 87.9492,-628.8296 81.5311,-620.2955"/>
<polygon fill="#c0c0c0" stroke="#c0c0c0" stroke-width="2" points="84.1655,-617.9806 75.2819,-612.2072 78.6262,-622.2603 84.1655,-617.9806"/>
</g>
<!-- 4&#45;&gt;3 -->
<g id="edge14" class="edge">
<title>4&#45;&gt;3</title>
<path fill="none" stroke="#c0c0c0" stroke-width="2" d="M291.401,-791.7623C281.0769,-766.9846 262.5297,-722.4714 250.4975,-693.5939"/>
<polygon fill="#c0c0c0" stroke="#c0c0c0" stroke-width="2" points="253.6143,-691.9742 246.5373,-684.0896 247.1528,-694.6666 253.6143,-691.9742"/>
</g>
<!-- 7 -->
<g id="node8" class="node">
<title>7</title>
<path fill="none" stroke="#56a2d8" stroke-width="2" d="M485.5,-756C485.5,-756 360.5,-756 360.5,-756 354.5,-756 348.5,-750 348.5,-744 348.5,-744 348.5,-732 348.5,-732 348.5,-726 354.5,-720 360.5,-720 360.5,-720 485.5,-720 485.5,-720 491.5,-720 497.5,-726 497.5,-732 497.5,-732 497.5,-744 497.5,-744 497.5,-750 491.5,-756 485.5,-756"/>
<text text-anchor="middle" x="423" y="-735.5" font-family="sans" font-size="10.00" fill="#000000">alignment_samtools_index</text>
</g>
<!-- 4&#45;&gt;7 -->
<g id="edge18" class="edge">
<title>4&#45;&gt;7</title>
<path fill="none" stroke="#c0c0c0" stroke-width="2" d="M330.2904,-791.8314C346.2977,-782.5368 365.9586,-771.1208 383.0494,-761.1971"/>
<polygon fill="#c0c0c0" stroke="#c0c0c0" stroke-width="2" points="384.8292,-764.211 391.7196,-756.1628 381.3142,-758.1575 384.8292,-764.211"/>
</g>
<!-- 9 -->
<g id="node10" class="node">
<title>9</title>
<path fill="none" stroke="#56d87b" stroke-width="2" d="M763.5,-756C763.5,-756 732.5,-756 732.5,-756 726.5,-756 720.5,-750 720.5,-744 720.5,-744 720.5,-732 720.5,-732 720.5,-726 726.5,-720 732.5,-720 732.5,-720 763.5,-720 763.5,-720 769.5,-720 775.5,-726 775.5,-732 775.5,-732 775.5,-744 775.5,-744 775.5,-750 769.5,-756 763.5,-756"/>
<text text-anchor="middle" x="748" y="-735.5" font-family="sans" font-size="10.00" fill="#000000">cp_bam</text>
</g>
<!-- 4&#45;&gt;9 -->
<g id="edge20" class="edge">
<title>4&#45;&gt;9</title>
<path fill="none" stroke="#c0c0c0" stroke-width="2" d="M344.1076,-802.7667C432.8247,-788.5404 628.498,-757.1629 710.591,-743.9988"/>
<polygon fill="#c0c0c0" stroke="#c0c0c0" stroke-width="2" points="711.1641,-747.4517 720.4838,-742.4124 710.0557,-740.54 711.1641,-747.4517"/>
</g>
<!-- 12 -->
<g id="node13" class="node">
<title>12</title>
<path fill="none" stroke="#56d85b" stroke-width="2" d="M357,-324C357,-324 295,-324 295,-324 289,-324 283,-318 283,-312 283,-312 283,-300 283,-300 283,-294 289,-288 295,-288 295,-288 357,-288 357,-288 363,-288 369,-294 369,-300 369,-300 369,-312 369,-312 369,-318 363,-324 357,-324"/>
<text text-anchor="middle" x="326" y="-303.5" font-family="sans" font-size="10.00" fill="#000000">fusions_arriba</text>
</g>
<!-- 4&#45;&gt;12 -->
<g id="edge23" class="edge">
<title>4&#45;&gt;12</title>
<path fill="none" stroke="#c0c0c0" stroke-width="2" d="M303.3512,-791.9379C309.5022,-764.7787 320,-711.7286 320,-666 320,-666 320,-666 320,-450 320,-409.8412 322.3583,-363.4372 324.1179,-334.4031"/>
<polygon fill="#c0c0c0" stroke="#c0c0c0" stroke-width="2" points="327.6264,-334.3741 324.7568,-324.1753 320.6401,-333.9376 327.6264,-334.3741"/>
</g>
<!-- 14 -->
<g id="node15" class="node">
<title>14</title>
<path fill="none" stroke="#56d8a9" stroke-width="2" d="M215,-252C215,-252 89,-252 89,-252 83,-252 77,-246 77,-240 77,-240 77,-228 77,-228 77,-222 83,-216 89,-216 89,-216 215,-216 215,-216 221,-216 227,-222 227,-228 227,-228 227,-240 227,-240 227,-246 221,-252 215,-252"/>
<text text-anchor="middle" x="152" y="-231.5" font-family="sans" font-size="10.00" fill="#000000">fusions_arriba_draw_fusion</text>
</g>
<!-- 4&#45;&gt;14 -->
<g id="edge26" class="edge">
<title>4&#45;&gt;14</title>
<path fill="none" stroke="#c0c0c0" stroke-width="2" d="M261.2146,-791.8986C219.4487,-768.947 158,-725.1314 158,-666 158,-666 158,-666 158,-378 158,-337.8412 155.6417,-291.4372 153.8821,-262.4031"/>
<polygon fill="#c0c0c0" stroke="#c0c0c0" stroke-width="2" points="157.3599,-261.9376 153.2432,-252.1753 150.3736,-262.3741 157.3599,-261.9376"/>
</g>
<!-- 23 -->
<g id="node24" class="node">
<title>23</title>
<path fill="none" stroke="#d6d856" stroke-width="2" d="M774,-684C774,-684 610,-684 610,-684 604,-684 598,-678 598,-672 598,-672 598,-660 598,-660 598,-654 604,-648 610,-648 610,-648 774,-648 774,-648 780,-648 786,-654 786,-660 786,-660 786,-672 786,-672 786,-678 780,-684 774,-684"/>
<text text-anchor="middle" x="692" y="-663.5" font-family="sans" font-size="10.00" fill="#000000">alignment_samtools_extract_reads</text>
</g>
<!-- 4&#45;&gt;23 -->
<g id="edge41" class="edge">
<title>4&#45;&gt;23</title>
<path fill="none" stroke="#c0c0c0" stroke-width="2" d="M344.0138,-801.0263C386.6835,-791.8887 452.2208,-776.2069 507,-756 558.1262,-737.1407 614.0223,-708.7938 650.8433,-688.9667"/>
<polygon fill="#c0c0c0" stroke="#c0c0c0" stroke-width="2" points="652.6572,-691.9646 659.7791,-684.1204 649.32,-685.8113 652.6572,-691.9646"/>
</g>
<!-- 5 -->
<g id="node6" class="node">
<title>5</title>
<path fill="none" stroke="#a7d856" stroke-width="2" d="M269.5,-900C269.5,-900 168.5,-900 168.5,-900 162.5,-900 156.5,-894 156.5,-888 156.5,-888 156.5,-876 156.5,-876 156.5,-870 162.5,-864 168.5,-864 168.5,-864 269.5,-864 269.5,-864 275.5,-864 281.5,-870 281.5,-876 281.5,-876 281.5,-888 281.5,-888 281.5,-894 275.5,-900 269.5,-900"/>
<text text-anchor="middle" x="219" y="-879.5" font-family="sans" font-size="10.00" fill="#000000">prealignment_merged</text>
</g>
<!-- 5&#45;&gt;4 -->
<g id="edge16" class="edge">
<title>5&#45;&gt;4</title>
<path fill="none" stroke="#c0c0c0" stroke-width="2" d="M239.1874,-863.8314C248.8514,-855.1337 260.5796,-844.5783 271.0816,-835.1265"/>
<polygon fill="#c0c0c0" stroke="#c0c0c0" stroke-width="2" points="273.7275,-837.454 278.8191,-828.1628 269.0447,-832.251 273.7275,-837.454"/>
</g>
<!-- 6 -->
<g id="node7" class="node">
<title>6</title>
<path fill="none" stroke="#56b9d8" stroke-width="2" d="M171.5,-972C171.5,-972 66.5,-972 66.5,-972 60.5,-972 54.5,-966 54.5,-960 54.5,-960 54.5,-948 54.5,-948 54.5,-942 60.5,-936 66.5,-936 66.5,-936 171.5,-936 171.5,-936 177.5,-936 183.5,-942 183.5,-948 183.5,-948 183.5,-960 183.5,-960 183.5,-966 177.5,-972 171.5,-972"/>
<text text-anchor="middle" x="119" y="-951.5" font-family="sans" font-size="10.00" fill="#000000">prealignment_fastp_pe</text>
</g>
<!-- 6&#45;&gt;2 -->
<g id="edge12" class="edge">
<title>6&#45;&gt;2</title>
<path fill="none" stroke="#c0c0c0" stroke-width="2" d="M89.2782,-935.8898C54.0313,-911.8777 0,-865.9449 0,-810 0,-810 0,-810 0,-738 0,-697.1184 2.0049,-685.1817 19,-648 23.4775,-638.2043 29.992,-628.5125 36.5154,-620.1017"/>
<polygon fill="#c0c0c0" stroke="#c0c0c0" stroke-width="2" points="39.3772,-622.1297 42.9667,-612.1615 33.9444,-617.7156 39.3772,-622.1297"/>
</g>
<!-- 6&#45;&gt;5 -->
<g id="edge17" class="edge">
<title>6&#45;&gt;5</title>
<path fill="none" stroke="#c0c0c0" stroke-width="2" d="M144.2342,-935.8314C156.788,-926.7927 172.1283,-915.7476 185.6391,-906.0198"/>
<polygon fill="#c0c0c0" stroke="#c0c0c0" stroke-width="2" points="187.7036,-908.8463 193.7739,-900.1628 183.6134,-903.1655 187.7036,-908.8463"/>
</g>
<!-- 7&#45;&gt;3 -->
<g id="edge15" class="edge">
<title>7&#45;&gt;3</title>
<path fill="none" stroke="#c0c0c0" stroke-width="2" d="M376.569,-719.8314C351.632,-710.0734 320.7191,-697.977 294.5174,-687.7242"/>
<polygon fill="#c0c0c0" stroke="#c0c0c0" stroke-width="2" points="295.6849,-684.4227 285.0971,-684.038 293.1341,-690.9414 295.6849,-684.4227"/>
</g>
<!-- 10 -->
<g id="node11" class="node">
<title>10</title>
<path fill="none" stroke="#56d8c1" stroke-width="2" d="M428,-540C428,-540 398,-540 398,-540 392,-540 386,-534 386,-528 386,-528 386,-516 386,-516 386,-510 392,-504 398,-504 398,-504 428,-504 428,-504 434,-504 440,-510 440,-516 440,-516 440,-528 440,-528 440,-534 434,-540 428,-540"/>
<text text-anchor="middle" x="413" y="-519.5" font-family="sans" font-size="10.00" fill="#000000">cp_bai</text>
</g>
<!-- 7&#45;&gt;10 -->
<g id="edge21" class="edge">
<title>7&#45;&gt;10</title>
<path fill="none" stroke="#c0c0c0" stroke-width="2" d="M419.6419,-719.576C417.9037,-709.1709 415.9509,-695.9035 415,-684 411.2573,-637.1462 411.5486,-582.4322 412.2022,-550.0847"/>
<polygon fill="#c0c0c0" stroke="#c0c0c0" stroke-width="2" points="415.7028,-550.0932 412.4324,-540.0158 408.7046,-549.9331 415.7028,-550.0932"/>
</g>
<!-- 7&#45;&gt;12 -->
<g id="edge24" class="edge">
<title>7&#45;&gt;12</title>
<path fill="none" stroke="#c0c0c0" stroke-width="2" d="M408.5744,-719.6392C389.4249,-693.37 358,-642.8235 358,-594 358,-594 358,-594 358,-450 358,-408.9442 345.4511,-362.8385 336.0701,-334.1076"/>
<polygon fill="#c0c0c0" stroke="#c0c0c0" stroke-width="2" points="339.2932,-332.7116 332.7864,-324.3503 332.6589,-334.9443 339.2932,-332.7116"/>
</g>
<!-- 22 -->
<g id="node23" class="node">
<title>22</title>
<path fill="none" stroke="#d8a456" stroke-width="2" d="M618,-612C618,-612 558,-612 558,-612 552,-612 546,-606 546,-600 546,-600 546,-588 546,-588 546,-582 552,-576 558,-576 558,-576 618,-576 618,-576 624,-576 630,-582 630,-588 630,-588 630,-600 630,-600 630,-606 624,-612 618,-612"/>
<text text-anchor="middle" x="588" y="-591.5" font-family="sans" font-size="10.00" fill="#000000">dotnet_pisces</text>
</g>
<!-- 7&#45;&gt;22 -->
<g id="edge38" class="edge">
<title>7&#45;&gt;22</title>
<path fill="none" stroke="#c0c0c0" stroke-width="2" d="M492.3974,-719.9729C513.317,-711.7859 534.9575,-700.1903 551,-684 567.7318,-667.1141 577.2486,-641.6003 582.4269,-622.0449"/>
<polygon fill="#c0c0c0" stroke="#c0c0c0" stroke-width="2" points="585.8679,-622.7057 584.8152,-612.1633 579.0638,-621.0611 585.8679,-622.7057"/>
</g>
<!-- 7&#45;&gt;23 -->
<g id="edge42" class="edge">
<title>7&#45;&gt;23</title>
<path fill="none" stroke="#c0c0c0" stroke-width="2" d="M484.5895,-719.9243C521.4092,-709.8033 568.6273,-697.1447 608.7305,-686.6361"/>
<polygon fill="#c0c0c0" stroke="#c0c0c0" stroke-width="2" points="609.7058,-689.9988 618.4953,-684.0831 607.9352,-683.2264 609.7058,-689.9988"/>
</g>
<!-- 8 -->
<g id="node9" class="node">
<title>8</title>
<path fill="none" stroke="#566bd8" stroke-width="2" d="M79.5,-684C79.5,-684 40.5,-684 40.5,-684 34.5,-684 28.5,-678 28.5,-672 28.5,-672 28.5,-660 28.5,-660 28.5,-654 34.5,-648 40.5,-648 40.5,-648 79.5,-648 79.5,-648 85.5,-648 91.5,-654 91.5,-660 91.5,-660 91.5,-672 91.5,-672 91.5,-678 85.5,-684 79.5,-684"/>
<text text-anchor="middle" x="60" y="-663.5" font-family="sans" font-size="10.00" fill="#000000">qc_fastqc</text>
</g>
<!-- 8&#45;&gt;2 -->
<g id="edge11" class="edge">
<title>8&#45;&gt;2</title>
<path fill="none" stroke="#c0c0c0" stroke-width="2" d="M60,-647.8314C60,-640.131 60,-630.9743 60,-622.4166"/>
<polygon fill="#c0c0c0" stroke="#c0c0c0" stroke-width="2" points="63.5001,-622.4132 60,-612.4133 56.5001,-622.4133 63.5001,-622.4132"/>
</g>
<!-- 9&#45;&gt;0 -->
<g id="edge1" class="edge">
<title>9&#45;&gt;0</title>
<path fill="none" stroke="#c0c0c0" stroke-width="2" d="M766.834,-719.9156C791.3225,-694.3605 831,-645.0742 831,-594 831,-594 831,-594 831,-162 831,-76.5395 530.1528,-34.2625 423.1892,-21.932"/>
<polygon fill="#c0c0c0" stroke="#c0c0c0" stroke-width="2" points="423.4967,-18.4445 413.1669,-20.7993 422.7105,-25.4003 423.4967,-18.4445"/>
</g>
<!-- 10&#45;&gt;0 -->
<g id="edge5" class="edge">
<title>10&#45;&gt;0</title>
<path fill="none" stroke="#c0c0c0" stroke-width="2" d="M409.6848,-503.8863C404.9983,-476.6615 397,-423.5285 397,-378 397,-378 397,-378 397,-234 397,-161.863 420.301,-142.9002 407,-72 405.365,-63.2844 402.3657,-54.1679 399.1358,-45.9601"/>
<polygon fill="#c0c0c0" stroke="#c0c0c0" stroke-width="2" points="402.2566,-44.352 395.1577,-36.4871 395.8026,-47.0623 402.2566,-44.352"/>
</g>
<!-- 11 -->
<g id="node12" class="node">
<title>11</title>
<path fill="none" stroke="#567bd8" stroke-width="2" d="M386,-108C386,-108 308,-108 308,-108 302,-108 296,-102 296,-96 296,-96 296,-84 296,-84 296,-78 302,-72 308,-72 308,-72 386,-72 386,-72 392,-72 398,-78 398,-84 398,-84 398,-96 398,-96 398,-102 392,-108 386,-108"/>
<text text-anchor="middle" x="347" y="-87.5" font-family="sans" font-size="10.00" fill="#000000">cp_arrbia_fusions</text>
</g>
<!-- 11&#45;&gt;0 -->
<g id="edge4" class="edge">
<title>11&#45;&gt;0</title>
<path fill="none" stroke="#c0c0c0" stroke-width="2" d="M356.8413,-71.8314C361.1957,-63.7925 366.4098,-54.1666 371.2169,-45.2918"/>
<polygon fill="#c0c0c0" stroke="#c0c0c0" stroke-width="2" points="374.3408,-46.8732 376.0261,-36.4133 368.1857,-43.5392 374.3408,-46.8732"/>
</g>
<!-- 12&#45;&gt;11 -->
<g id="edge22" class="edge">
<title>12&#45;&gt;11</title>
<path fill="none" stroke="#c0c0c0" stroke-width="2" d="M327.7543,-287.9555C331.4139,-250.3144 339.8846,-163.1867 344.2657,-118.1246"/>
<polygon fill="#c0c0c0" stroke="#c0c0c0" stroke-width="2" points="347.7517,-118.4369 345.2359,-108.1451 340.7846,-117.7594 347.7517,-118.4369"/>
</g>
<!-- 12&#45;&gt;14 -->
<g id="edge27" class="edge">
<title>12&#45;&gt;14</title>
<path fill="none" stroke="#c0c0c0" stroke-width="2" d="M282.9888,-288.2022C259.4302,-278.4539 230.0317,-266.289 205.0583,-255.9551"/>
<polygon fill="#c0c0c0" stroke="#c0c0c0" stroke-width="2" points="206.3035,-252.6826 195.725,-252.0931 203.627,-259.1508 206.3035,-252.6826"/>
</g>
<!-- 12&#45;&gt;28 -->
<g id="edge49" class="edge">
<title>12&#45;&gt;28</title>
<path fill="none" stroke="#c0c0c0" stroke-width="2" d="M321.5061,-287.7708C313.5043,-256.9884 295.1378,-193.2479 269,-144 263.9134,-134.416 257.2436,-124.6688 250.8122,-116.1419"/>
<polygon fill="#c0c0c0" stroke="#c0c0c0" stroke-width="2" points="253.4337,-113.8117 244.5277,-108.0729 247.9111,-118.113 253.4337,-113.8117"/>
</g>
<!-- 13 -->
<g id="node14" class="node">
<title>13</title>
<path fill="none" stroke="#565bd8" stroke-width="2" d="M149.5,-108C149.5,-108 90.5,-108 90.5,-108 84.5,-108 78.5,-102 78.5,-96 78.5,-96 78.5,-84 78.5,-84 78.5,-78 84.5,-72 90.5,-72 90.5,-72 149.5,-72 149.5,-72 155.5,-72 161.5,-78 161.5,-84 161.5,-84 161.5,-96 161.5,-96 161.5,-102 155.5,-108 149.5,-108"/>
<text text-anchor="middle" x="120" y="-87.5" font-family="sans" font-size="10.00" fill="#000000">cp_arrbia_pdf</text>
</g>
<!-- 13&#45;&gt;0 -->
<g id="edge8" class="edge">
<title>13&#45;&gt;0</title>
<path fill="none" stroke="#c0c0c0" stroke-width="2" d="M161.6442,-74.9462C164.799,-73.915 167.9433,-72.9211 171,-72 232.7866,-53.3814 305.8699,-35.9865 348.9453,-26.1997"/>
<polygon fill="#c0c0c0" stroke="#c0c0c0" stroke-width="2" points="349.9815,-29.5539 358.9652,-23.9376 348.4399,-22.7258 349.9815,-29.5539"/>
</g>
<!-- 14&#45;&gt;13 -->
<g id="edge25" class="edge">
<title>14&#45;&gt;13</title>
<path fill="none" stroke="#c0c0c0" stroke-width="2" d="M147.9472,-215.7623C142.4651,-191.0928 132.6355,-146.8598 126.2162,-117.9731"/>
<polygon fill="#c0c0c0" stroke="#c0c0c0" stroke-width="2" points="129.606,-117.0922 124.0199,-108.0896 122.7726,-118.6108 129.606,-117.0922"/>
</g>
<!-- 29 -->
<g id="node30" class="node">
<title>29</title>
<path fill="none" stroke="#56c1d8" stroke-width="2" d="M212,-180C212,-180 162,-180 162,-180 156,-180 150,-174 150,-168 150,-168 150,-156 150,-156 150,-150 156,-144 162,-144 162,-144 212,-144 212,-144 218,-144 224,-150 224,-156 224,-156 224,-168 224,-168 224,-174 218,-180 212,-180"/>
<text text-anchor="middle" x="187" y="-159.5" font-family="sans" font-size="10.00" fill="#000000">convert_pdf</text>
</g>
<!-- 14&#45;&gt;29 -->
<g id="edge53" class="edge">
<title>14&#45;&gt;29</title>
<path fill="none" stroke="#c0c0c0" stroke-width="2" d="M160.832,-215.8314C164.6986,-207.8771 169.3206,-198.369 173.5968,-189.5723"/>
<polygon fill="#c0c0c0" stroke="#c0c0c0" stroke-width="2" points="176.8249,-190.9371 178.0491,-180.4133 170.5293,-187.8768 176.8249,-190.9371"/>
</g>
<!-- 15 -->
<g id="node16" class="node">
<title>15</title>
<path fill="none" stroke="#88d856" stroke-width="2" d="M503,-108C503,-108 473,-108 473,-108 467,-108 461,-102 461,-96 461,-96 461,-84 461,-84 461,-78 467,-72 473,-72 473,-72 503,-72 503,-72 509,-72 515,-78 515,-84 515,-84 515,-96 515,-96 515,-102 509,-108 503,-108"/>
<text text-anchor="middle" x="488" y="-87.5" font-family="sans" font-size="10.00" fill="#000000">cp_vcf</text>
</g>
<!-- 15&#45;&gt;0 -->
<g id="edge2" class="edge">
<title>15&#45;&gt;0</title>
<path fill="none" stroke="#c0c0c0" stroke-width="2" d="M462.2611,-71.8314C449.4563,-62.7927 433.8091,-51.7476 420.0281,-42.0198"/>
<polygon fill="#c0c0c0" stroke="#c0c0c0" stroke-width="2" points="421.9188,-39.0703 411.7307,-36.1628 417.882,-44.7891 421.9188,-39.0703"/>
</g>
<!-- 16 -->
<g id="node17" class="node">
<title>16</title>
<path fill="none" stroke="#56d892" stroke-width="2" d="M554.5,-324C554.5,-324 441.5,-324 441.5,-324 435.5,-324 429.5,-318 429.5,-312 429.5,-312 429.5,-300 429.5,-300 429.5,-294 435.5,-288 441.5,-288 441.5,-288 554.5,-288 554.5,-288 560.5,-288 566.5,-294 566.5,-300 566.5,-300 566.5,-312 566.5,-312 566.5,-318 560.5,-324 554.5,-324"/>
<text text-anchor="middle" x="498" y="-303.5" font-family="sans" font-size="10.00" fill="#000000">snv_indels_vt_normalize</text>
</g>
<!-- 25 -->
<g id="node26" class="node">
<title>25</title>
<path fill="none" stroke="#68d856" stroke-width="2" d="M627,-252C627,-252 553,-252 553,-252 547,-252 541,-246 541,-240 541,-240 541,-228 541,-228 541,-222 547,-216 553,-216 553,-216 627,-216 627,-216 633,-216 639,-222 639,-228 639,-228 639,-240 639,-240 639,-246 633,-252 627,-252"/>
<text text-anchor="middle" x="590" y="-231.5" font-family="sans" font-size="10.00" fill="#000000">snv_indels_tabix</text>
</g>
<!-- 16&#45;&gt;25 -->
<g id="edge44" class="edge">
<title>16&#45;&gt;25</title>
<path fill="none" stroke="#c0c0c0" stroke-width="2" d="M521.2155,-287.8314C532.547,-278.9632 546.3464,-268.1637 558.6027,-258.5718"/>
<polygon fill="#c0c0c0" stroke="#c0c0c0" stroke-width="2" points="561.074,-261.0822 566.7919,-252.1628 556.7598,-255.5697 561.074,-261.0822"/>
</g>
<!-- 26 -->
<g id="node27" class="node">
<title>26</title>
<path fill="none" stroke="#56d873" stroke-width="2" d="M550.5,-180C550.5,-180 437.5,-180 437.5,-180 431.5,-180 425.5,-174 425.5,-168 425.5,-168 425.5,-156 425.5,-156 425.5,-150 431.5,-144 437.5,-144 437.5,-144 550.5,-144 550.5,-144 556.5,-144 562.5,-150 562.5,-156 562.5,-156 562.5,-168 562.5,-168 562.5,-174 556.5,-180 550.5,-180"/>
<text text-anchor="middle" x="494" y="-159.5" font-family="sans" font-size="10.00" fill="#000000">snv_indels_bcftools_sort</text>
</g>
<!-- 16&#45;&gt;26 -->
<g id="edge46" class="edge">
<title>16&#45;&gt;26</title>
<path fill="none" stroke="#c0c0c0" stroke-width="2" d="M497.4934,-287.7623C496.8111,-263.201 495.5902,-219.2474 494.7876,-190.3541"/>
<polygon fill="#c0c0c0" stroke="#c0c0c0" stroke-width="2" points="498.2789,-189.9885 494.5025,-180.0896 491.2816,-190.183 498.2789,-189.9885"/>
</g>
<!-- 17 -->
<g id="node18" class="node">
<title>17</title>
<path fill="none" stroke="#d88556" stroke-width="2" d="M558.5,-396C558.5,-396 437.5,-396 437.5,-396 431.5,-396 425.5,-390 425.5,-384 425.5,-384 425.5,-372 425.5,-372 425.5,-366 431.5,-360 437.5,-360 437.5,-360 558.5,-360 558.5,-360 564.5,-360 570.5,-366 570.5,-372 570.5,-372 570.5,-384 570.5,-384 570.5,-390 564.5,-396 558.5,-396"/>
<text text-anchor="middle" x="498" y="-375.5" font-family="sans" font-size="10.00" fill="#000000">snv_indels_vt_decompose</text>
</g>
<!-- 17&#45;&gt;16 -->
<g id="edge29" class="edge">
<title>17&#45;&gt;16</title>
<path fill="none" stroke="#c0c0c0" stroke-width="2" d="M498,-359.8314C498,-352.131 498,-342.9743 498,-334.4166"/>
<polygon fill="#c0c0c0" stroke="#c0c0c0" stroke-width="2" points="501.5001,-334.4132 498,-324.4133 494.5001,-334.4133 501.5001,-334.4132"/>
</g>
<!-- 18 -->
<g id="node19" class="node">
<title>18</title>
<path fill="none" stroke="#afd856" stroke-width="2" d="M677,-468C677,-468 601,-468 601,-468 595,-468 589,-462 589,-456 589,-456 589,-444 589,-444 589,-438 595,-432 601,-432 601,-432 677,-432 677,-432 683,-432 689,-438 689,-444 689,-444 689,-456 689,-456 689,-462 683,-468 677,-468"/>
<text text-anchor="middle" x="639" y="-447.5" font-family="sans" font-size="10.00" fill="#000000">snv_indels_bgzip</text>
</g>
<!-- 18&#45;&gt;17 -->
<g id="edge30" class="edge">
<title>18&#45;&gt;17</title>
<path fill="none" stroke="#c0c0c0" stroke-width="2" d="M603.4197,-431.8314C584.9675,-422.4089 562.2455,-410.8062 542.627,-400.7883"/>
<polygon fill="#c0c0c0" stroke="#c0c0c0" stroke-width="2" points="544.0667,-397.5935 533.5689,-396.1628 540.8832,-403.8278 544.0667,-397.5935"/>
</g>
<!-- 19 -->
<g id="node20" class="node">
<title>19</title>
<path fill="none" stroke="#70d856" stroke-width="2" d="M677.5,-396C677.5,-396 600.5,-396 600.5,-396 594.5,-396 588.5,-390 588.5,-384 588.5,-384 588.5,-372 588.5,-372 588.5,-366 594.5,-360 600.5,-360 600.5,-360 677.5,-360 677.5,-360 683.5,-360 689.5,-366 689.5,-372 689.5,-372 689.5,-384 689.5,-384 689.5,-390 683.5,-396 677.5,-396"/>
<text text-anchor="middle" x="639" y="-375.5" font-family="sans" font-size="10.00" fill="#000000">snv_indels_fix_af</text>
</g>
<!-- 18&#45;&gt;19 -->
<g id="edge34" class="edge">
<title>18&#45;&gt;19</title>
<path fill="none" stroke="#c0c0c0" stroke-width="2" d="M633.0476,-431.8314C632.2972,-424.131 632.0763,-414.9743 632.3849,-406.4166"/>
<polygon fill="#c0c0c0" stroke="#c0c0c0" stroke-width="2" points="635.8792,-406.6161 633.024,-396.4133 628.8935,-406.1697 635.8792,-406.6161"/>
</g>
<!-- 20 -->
<g id="node21" class="node">
<title>20</title>
<path fill="none" stroke="#56a9d8" stroke-width="2" d="M791,-180C791,-180 665,-180 665,-180 659,-180 653,-174 653,-168 653,-168 653,-156 653,-156 653,-150 659,-144 665,-144 665,-144 791,-144 791,-144 797,-144 803,-150 803,-156 803,-156 803,-168 803,-168 803,-174 797,-180 791,-180"/>
<text text-anchor="middle" x="728" y="-159.5" font-family="sans" font-size="10.00" fill="#000000">snv_indels_bcftools_concat</text>
</g>
<!-- 18&#45;&gt;20 -->
<g id="edge35" class="edge">
<title>18&#45;&gt;20</title>
<path fill="none" stroke="#c0c0c0" stroke-width="2" d="M669.4206,-431.8252C682.9821,-423.0846 697.632,-411.1632 706,-396 742.4908,-329.8766 732.899,-236.6204 728.2976,-190.3413"/>
<polygon fill="#c0c0c0" stroke="#c0c0c0" stroke-width="2" points="731.759,-189.7719 727.3135,-180.1548 724.7914,-190.4451 731.759,-189.7719"/>
</g>
<!-- 18&#45;&gt;25 -->
<g id="edge43" class="edge">
<title>18&#45;&gt;25</title>
<path fill="none" stroke="#c0c0c0" stroke-width="2" d="M668.2184,-431.8172C680.1119,-422.6828 692.5573,-410.4662 699,-396 705.5094,-381.384 704.5853,-374.9935 699,-360 683.6273,-318.733 647.9865,-281.985 621.6228,-258.977"/>
<polygon fill="#c0c0c0" stroke="#c0c0c0" stroke-width="2" points="623.6533,-256.1089 613.7715,-252.2879 619.1137,-261.4373 623.6533,-256.1089"/>
</g>
<!-- 19&#45;&gt;18 -->
<g id="edge32" class="edge">
<title>19&#45;&gt;18</title>
<path fill="none" stroke="#c0c0c0" stroke-width="2" d="M644.976,-396.4133C645.7071,-404.0593 645.9203,-413.1084 645.6155,-421.5726"/>
<polygon fill="#c0c0c0" stroke="#c0c0c0" stroke-width="2" points="642.1048,-421.6264 644.9524,-431.8314 649.0902,-422.078 642.1048,-421.6264"/>
</g>
<!-- 20&#45;&gt;18 -->
<g id="edge31" class="edge">
<title>20&#45;&gt;18</title>
<path fill="none" stroke="#c0c0c0" stroke-width="2" d="M736.6659,-180.1548C749.0649,-221.4935 763.4162,-324.5756 724,-396 717.2664,-408.2016 706.4651,-418.3041 694.7516,-426.3393"/>
<polygon fill="#c0c0c0" stroke="#c0c0c0" stroke-width="2" points="692.6746,-423.512 686.1063,-431.8252 696.4251,-429.4225 692.6746,-423.512"/>
</g>
<!-- 21 -->
<g id="node22" class="node">
<title>21</title>
<path fill="none" stroke="#c6d856" stroke-width="2" d="M645,-540C645,-540 565,-540 565,-540 559,-540 553,-534 553,-528 553,-528 553,-516 553,-516 553,-510 559,-504 565,-504 565,-504 645,-504 645,-504 651,-504 657,-510 657,-516 657,-516 657,-528 657,-528 657,-534 651,-540 645,-540"/>
<text text-anchor="middle" x="605" y="-519.5" font-family="sans" font-size="10.00" fill="#000000">bcftools_reheader</text>
</g>
<!-- 21&#45;&gt;18 -->
<g id="edge33" class="edge">
<title>21&#45;&gt;18</title>
<path fill="none" stroke="#c0c0c0" stroke-width="2" d="M613.5796,-503.8314C617.3358,-495.8771 621.8257,-486.369 625.9798,-477.5723"/>
<polygon fill="#c0c0c0" stroke="#c0c0c0" stroke-width="2" points="629.1996,-478.9503 630.3048,-468.4133 622.8699,-475.9612 629.1996,-478.9503"/>
</g>
<!-- 22&#45;&gt;21 -->
<g id="edge37" class="edge">
<title>22&#45;&gt;21</title>
<path fill="none" stroke="#c0c0c0" stroke-width="2" d="M592.2898,-575.8314C594.108,-568.131 596.2699,-558.9743 598.2905,-550.4166"/>
<polygon fill="#c0c0c0" stroke="#c0c0c0" stroke-width="2" points="601.7608,-550.95 600.6524,-540.4133 594.9481,-549.3414 601.7608,-550.95"/>
</g>
<!-- 23&#45;&gt;7 -->
<g id="edge19" class="edge">
<title>23&#45;&gt;7</title>
<path fill="none" stroke="#c0c0c0" stroke-width="2" d="M630.3834,-684.0831C593.5586,-694.2054 546.3397,-706.8641 506.2401,-717.3717"/>
<polygon fill="#c0c0c0" stroke="#c0c0c0" stroke-width="2" points="505.2657,-714.0087 496.4761,-719.9243 507.0363,-720.7811 505.2657,-714.0087"/>
</g>
<!-- 23&#45;&gt;22 -->
<g id="edge39" class="edge">
<title>23&#45;&gt;22</title>
<path fill="none" stroke="#c0c0c0" stroke-width="2" d="M665.7564,-647.8314C652.7005,-638.7927 636.7465,-627.7476 622.6953,-618.0198"/>
<polygon fill="#c0c0c0" stroke="#c0c0c0" stroke-width="2" points="624.4494,-614.9773 614.2352,-612.1628 620.4649,-620.7326 624.4494,-614.9773"/>
</g>
<!-- 24 -->
<g id="node25" class="node">
<title>24</title>
<path fill="none" stroke="#61d856" stroke-width="2" d="M530,-684C530,-684 436,-684 436,-684 430,-684 424,-678 424,-672 424,-672 424,-660 424,-660 424,-654 430,-648 436,-648 436,-648 530,-648 530,-648 536,-648 542,-654 542,-660 542,-660 542,-672 542,-672 542,-678 536,-684 530,-684"/>
<text text-anchor="middle" x="483" y="-663.5" font-family="sans" font-size="10.00" fill="#000000">snv_indels_bed_split</text>
</g>
<!-- 24&#45;&gt;22 -->
<g id="edge40" class="edge">
<title>24&#45;&gt;22</title>
<path fill="none" stroke="#c0c0c0" stroke-width="2" d="M509.4959,-647.8314C522.6774,-638.7927 538.7847,-627.7476 552.9711,-618.0198"/>
<polygon fill="#c0c0c0" stroke="#c0c0c0" stroke-width="2" points="555.2446,-620.7047 561.5125,-612.1628 551.2859,-614.9316 555.2446,-620.7047"/>
</g>
<!-- 25&#45;&gt;20 -->
<g id="edge36" class="edge">
<title>25&#45;&gt;20</title>
<path fill="none" stroke="#c0c0c0" stroke-width="2" d="M624.8232,-215.8314C642.8011,-206.4516 664.9203,-194.9112 684.0616,-184.9244"/>
<polygon fill="#c0c0c0" stroke="#c0c0c0" stroke-width="2" points="685.9411,-187.8916 693.1879,-180.1628 682.7031,-181.6855 685.9411,-187.8916"/>
</g>
<!-- 25&#45;&gt;26 -->
<g id="edge47" class="edge">
<title>25&#45;&gt;26</title>
<path fill="none" stroke="#c0c0c0" stroke-width="2" d="M559.8228,-215.8314C547.1343,-206.9632 532.573,-196.1637 520.3243,-186.5718"/>
<polygon fill="#c0c0c0" stroke="#c0c0c0" stroke-width="2" points="522.2706,-183.6478 512.2653,-180.1628 517.9135,-189.1265 522.2706,-183.6478"/>
</g>
<!-- 27 -->
<g id="node28" class="node">
<title>27</title>
<path fill="none" stroke="#56d0d8" stroke-width="2" d="M623,-180C623,-180 593,-180 593,-180 587,-180 581,-174 581,-168 581,-168 581,-156 581,-156 581,-150 587,-144 593,-144 593,-144 623,-144 623,-144 629,-144 635,-150 635,-156 635,-156 635,-168 635,-168 635,-174 629,-180 623,-180"/>
<text text-anchor="middle" x="608" y="-159.5" font-family="sans" font-size="10.00" fill="#000000">cp_tbi</text>
</g>
<!-- 25&#45;&gt;27 -->
<g id="edge48" class="edge">
<title>25&#45;&gt;27</title>
<path fill="none" stroke="#c0c0c0" stroke-width="2" d="M594.5422,-215.8314C596.4884,-208.0463 598.8068,-198.7729 600.9663,-190.1347"/>
<polygon fill="#c0c0c0" stroke="#c0c0c0" stroke-width="2" points="604.3668,-190.9636 603.3967,-180.4133 597.5758,-189.2658 604.3668,-190.9636"/>
</g>
<!-- 26&#45;&gt;15 -->
<g id="edge28" class="edge">
<title>26&#45;&gt;15</title>
<path fill="none" stroke="#c0c0c0" stroke-width="2" d="M492.4859,-143.8314C491.8442,-136.131 491.0812,-126.9743 490.3681,-118.4166"/>
<polygon fill="#c0c0c0" stroke="#c0c0c0" stroke-width="2" points="493.8529,-118.088 489.5344,-108.4133 486.8771,-118.6694 493.8529,-118.088"/>
</g>
<!-- 26&#45;&gt;25 -->
<g id="edge45" class="edge">
<title>26&#45;&gt;25</title>
<path fill="none" stroke="#c0c0c0" stroke-width="2" d="M524.1689,-180.1628C536.8566,-189.0301 551.4179,-199.8295 563.6677,-209.4219"/>
<polygon fill="#c0c0c0" stroke="#c0c0c0" stroke-width="2" points="561.7222,-212.3465 571.7275,-215.8314 566.0791,-206.8677 561.7222,-212.3465"/>
</g>
<!-- 26&#45;&gt;28 -->
<g id="edge50" class="edge">
<title>26&#45;&gt;28</title>
<path fill="none" stroke="#c0c0c0" stroke-width="2" d="M425.2572,-144.9064C387.2345,-135.2549 338.9433,-122.6768 287.6177,-108.1205"/>
<polygon fill="#c0c0c0" stroke="#c0c0c0" stroke-width="2" points="288.577,-104.7546 278.0006,-105.3798 286.6584,-111.4866 288.577,-104.7546"/>
</g>
<!-- 27&#45;&gt;0 -->
<g id="edge7" class="edge">
<title>27&#45;&gt;0</title>
<path fill="none" stroke="#c0c0c0" stroke-width="2" d="M595.0378,-143.8396C579.959,-123.8546 553.3539,-91.9285 524,-72 492.7737,-50.8003 452.0177,-36.1645 422.9087,-27.5316"/>
<polygon fill="#c0c0c0" stroke="#c0c0c0" stroke-width="2" points="423.7104,-24.1205 413.133,-24.7274 421.7803,-30.8491 423.7104,-24.1205"/>
</g>
<!-- 28&#45;&gt;0 -->
<g id="edge3" class="edge">
<title>28&#45;&gt;0</title>
<path fill="none" stroke="#c0c0c0" stroke-width="2" d="M268.6177,-71.8314C293.478,-60.4305 325.2988,-45.8375 349.5363,-34.7222"/>
<polygon fill="#c0c0c0" stroke="#c0c0c0" stroke-width="2" points="351.1228,-37.8452 358.7536,-30.4952 348.2048,-31.4824 351.1228,-37.8452"/>
</g>
<!-- 29&#45;&gt;28 -->
<g id="edge51" class="edge">
<title>29&#45;&gt;28</title>
<path fill="none" stroke="#c0c0c0" stroke-width="2" d="M197.5984,-143.8314C202.2877,-135.7925 207.9028,-126.1666 213.0798,-117.2918"/>
<polygon fill="#c0c0c0" stroke="#c0c0c0" stroke-width="2" points="216.2434,-118.8146 218.2589,-108.4133 210.1969,-115.2875 216.2434,-118.8146"/>
</g>
</g>
</svg>
