<?xml version="1.0" encoding="UTF-8" standalone="no"?>
<!DOCTYPE svg PUBLIC "-//W3C//DTD SVG 1.1//EN"
 "http://www.w3.org/Graphics/SVG/1.1/DTD/svg11.dtd">
<!-- Generated by graphviz version 2.40.1 (0)
 -->
<!-- Title: snakemake_dag Pages: 1 -->
<svg width="882pt" height="620pt"
 viewBox="0.00 0.00 882.00 620.00" xmlns="http://www.w3.org/2000/svg" xmlns:xlink="http://www.w3.org/1999/xlink">
<g id="graph0" class="graph" transform="scale(1 1) rotate(0) translate(4 616)">
<title>snakemake_dag</title>
<polygon fill="#ffffff" stroke="transparent" points="-4,4 -4,-616 878,-616 878,4 -4,4"/>
<!-- 0 -->
<g id="node1" class="node">
<title>0</title>
<path fill="none" stroke="#56d8c9" stroke-width="2" d="M304.5,-36C304.5,-36 274.5,-36 274.5,-36 268.5,-36 262.5,-30 262.5,-24 262.5,-24 262.5,-12 262.5,-12 262.5,-6 268.5,0 274.5,0 274.5,0 304.5,0 304.5,0 310.5,0 316.5,-6 316.5,-12 316.5,-12 316.5,-24 316.5,-24 316.5,-30 310.5,-36 304.5,-36"/>
<text text-anchor="middle" x="289.5" y="-15.5" font-family="sans" font-size="10.00" fill="#000000">all</text>
</g>
<!-- 1 -->
<g id="node2" class="node">
<title>1</title>
<path fill="none" stroke="#56d863" stroke-width="2" d="M469.5,-108C469.5,-108 423.5,-108 423.5,-108 417.5,-108 411.5,-102 411.5,-96 411.5,-96 411.5,-84 411.5,-84 411.5,-78 417.5,-72 423.5,-72 423.5,-72 469.5,-72 469.5,-72 475.5,-72 481.5,-78 481.5,-84 481.5,-84 481.5,-96 481.5,-96 481.5,-102 475.5,-108 469.5,-108"/>
<text text-anchor="middle" x="446.5" y="-87.5" font-family="sans" font-size="10.00" fill="#000000">cp_multiqc</text>
</g>
<!-- 1&#45;&gt;0 -->
<g id="edge2" class="edge">
<title>1&#45;&gt;0</title>
<path fill="none" stroke="#c0c0c0" stroke-width="2" d="M411.2661,-73.8418C385.9336,-62.2243 351.8589,-46.5977 326.1979,-34.8296"/>
<polygon fill="#c0c0c0" stroke="#c0c0c0" stroke-width="2" points="327.3596,-31.5119 316.8109,-30.5247 324.4416,-37.8747 327.3596,-31.5119"/>
</g>
<!-- 2 -->
<g id="node3" class="node">
<title>2</title>
<path fill="none" stroke="#569ad8" stroke-width="2" d="M494.5,-252C494.5,-252 448.5,-252 448.5,-252 442.5,-252 436.5,-246 436.5,-240 436.5,-240 436.5,-228 436.5,-228 436.5,-222 442.5,-216 448.5,-216 448.5,-216 494.5,-216 494.5,-216 500.5,-216 506.5,-222 506.5,-228 506.5,-228 506.5,-240 506.5,-240 506.5,-246 500.5,-252 494.5,-252"/>
<text text-anchor="middle" x="471.5" y="-231.5" font-family="sans" font-size="10.00" fill="#000000">qc_multiqc</text>
</g>
<!-- 2&#45;&gt;1 -->
<g id="edge9" class="edge">
<title>2&#45;&gt;1</title>
<path fill="none" stroke="#c0c0c0" stroke-width="2" d="M468.3337,-215.7623C464.0508,-191.0928 456.3715,-146.8598 451.3564,-117.9731"/>
<polygon fill="#c0c0c0" stroke="#c0c0c0" stroke-width="2" points="454.7996,-117.3435 449.6406,-108.0896 447.9027,-118.541 454.7996,-117.3435"/>
</g>
<!-- 3 -->
<g id="node4" class="node">
<title>3</title>
<path fill="none" stroke="#59d856" stroke-width="2" d="M483,-612C483,-612 378,-612 378,-612 372,-612 366,-606 366,-600 366,-600 366,-588 366,-588 366,-582 372,-576 378,-576 378,-576 483,-576 483,-576 489,-576 495,-582 495,-588 495,-588 495,-600 495,-600 495,-606 489,-612 483,-612"/>
<text text-anchor="middle" x="430.5" y="-591.5" font-family="sans" font-size="10.00" fill="#000000">prealignment_fastp_pe</text>
</g>
<!-- 3&#45;&gt;2 -->
<g id="edge12" class="edge">
<title>3&#45;&gt;2</title>
<path fill="none" stroke="#c0c0c0" stroke-width="2" d="M467.3845,-575.9612C508.564,-552.9289 569.5,-508.8961 569.5,-450 569.5,-450 569.5,-450 569.5,-378 569.5,-329.6274 531.2374,-285.4833 502.5288,-259.1696"/>
<polygon fill="#c0c0c0" stroke="#c0c0c0" stroke-width="2" points="504.5239,-256.2601 494.7246,-252.2319 499.8731,-261.4918 504.5239,-256.2601"/>
</g>
<!-- 6 -->
<g id="node7" class="node">
<title>6</title>
<path fill="none" stroke="#56d8b1" stroke-width="2" d="M436,-540C436,-540 335,-540 335,-540 329,-540 323,-534 323,-528 323,-528 323,-516 323,-516 323,-510 329,-504 335,-504 335,-504 436,-504 436,-504 442,-504 448,-510 448,-516 448,-516 448,-528 448,-528 448,-534 442,-540 436,-540"/>
<text text-anchor="middle" x="385.5" y="-519.5" font-family="sans" font-size="10.00" fill="#000000">prealignment_merged</text>
</g>
<!-- 3&#45;&gt;6 -->
<g id="edge17" class="edge">
<title>3&#45;&gt;6</title>
<path fill="none" stroke="#c0c0c0" stroke-width="2" d="M419.1446,-575.8314C414.0674,-567.7079 407.9773,-557.9637 402.3824,-549.0118"/>
<polygon fill="#c0c0c0" stroke="#c0c0c0" stroke-width="2" points="405.2763,-547.0383 397.0083,-540.4133 399.3403,-550.7483 405.2763,-547.0383"/>
</g>
<!-- 4 -->
<g id="node5" class="node">
<title>4</title>
<path fill="none" stroke="#5673d8" stroke-width="2" d="M410,-324C410,-324 329,-324 329,-324 323,-324 317,-318 317,-312 317,-312 317,-300 317,-300 317,-294 323,-288 329,-288 329,-288 410,-288 410,-288 416,-288 422,-294 422,-300 422,-300 422,-312 422,-312 422,-318 416,-324 410,-324"/>
<text text-anchor="middle" x="369.5" y="-303.5" font-family="sans" font-size="10.00" fill="#000000">qc_mosdepth_bed</text>
</g>
<!-- 4&#45;&gt;2 -->
<g id="edge13" class="edge">
<title>4&#45;&gt;2</title>
<path fill="none" stroke="#c0c0c0" stroke-width="2" d="M395.2389,-287.8314C408.0437,-278.7927 423.6909,-267.7476 437.4719,-258.0198"/>
<polygon fill="#c0c0c0" stroke="#c0c0c0" stroke-width="2" points="439.618,-260.7891 445.7693,-252.1628 435.5812,-255.0703 439.618,-260.7891"/>
</g>
<!-- 24 -->
<g id="node25" class="node">
<title>24</title>
<path fill="none" stroke="#56c9d8" stroke-width="2" d="M366.5,-108C366.5,-108 292.5,-108 292.5,-108 286.5,-108 280.5,-102 280.5,-96 280.5,-96 280.5,-84 280.5,-84 280.5,-78 286.5,-72 292.5,-72 292.5,-72 366.5,-72 366.5,-72 372.5,-72 378.5,-78 378.5,-84 378.5,-84 378.5,-96 378.5,-96 378.5,-102 372.5,-108 366.5,-108"/>
<text text-anchor="middle" x="329.5" y="-87.5" font-family="sans" font-size="10.00" fill="#000000">summary_report</text>
</g>
<!-- 4&#45;&gt;24 -->
<g id="edge40" class="edge">
<title>4&#45;&gt;24</title>
<path fill="none" stroke="#c0c0c0" stroke-width="2" d="M374.5358,-287.8015C382.1009,-257.0642 393.6842,-193.3886 375.5,-144 371.695,-133.6656 364.9356,-123.9621 357.75,-115.7098"/>
<polygon fill="#c0c0c0" stroke="#c0c0c0" stroke-width="2" points="360.192,-113.1965 350.8127,-108.2692 355.0721,-117.9701 360.192,-113.1965"/>
</g>
<!-- 5 -->
<g id="node6" class="node">
<title>5</title>
<path fill="none" stroke="#80d856" stroke-width="2" d="M322.5,-468C322.5,-468 256.5,-468 256.5,-468 250.5,-468 244.5,-462 244.5,-456 244.5,-456 244.5,-444 244.5,-444 244.5,-438 250.5,-432 256.5,-432 256.5,-432 322.5,-432 322.5,-432 328.5,-432 334.5,-438 334.5,-444 334.5,-444 334.5,-456 334.5,-456 334.5,-462 328.5,-468 322.5,-468"/>
<text text-anchor="middle" x="289.5" y="-447.5" font-family="sans" font-size="10.00" fill="#000000">alignment_star</text>
</g>
<!-- 5&#45;&gt;2 -->
<g id="edge11" class="edge">
<title>5&#45;&gt;2</title>
<path fill="none" stroke="#c0c0c0" stroke-width="2" d="M334.7208,-439.137C388.0569,-423.6314 474.2864,-389.4831 512.5,-324 524.5825,-303.2954 511.2909,-278.405 496.7084,-260.0529"/>
<polygon fill="#c0c0c0" stroke="#c0c0c0" stroke-width="2" points="499.132,-257.4983 490.004,-252.1195 493.7854,-262.0165 499.132,-257.4983"/>
</g>
<!-- 5&#45;&gt;4 -->
<g id="edge15" class="edge">
<title>5&#45;&gt;4</title>
<path fill="none" stroke="#c0c0c0" stroke-width="2" d="M299.6321,-431.7623C313.5176,-406.7682 338.5598,-361.6924 354.5884,-332.8409"/>
<polygon fill="#c0c0c0" stroke="#c0c0c0" stroke-width="2" points="357.6533,-334.531 359.4502,-324.0896 351.5342,-331.1314 357.6533,-334.531"/>
</g>
<!-- 7 -->
<g id="node8" class="node">
<title>7</title>
<path fill="none" stroke="#d85656" stroke-width="2" d="M249,-396C249,-396 124,-396 124,-396 118,-396 112,-390 112,-384 112,-384 112,-372 112,-372 112,-366 118,-360 124,-360 124,-360 249,-360 249,-360 255,-360 261,-366 261,-372 261,-372 261,-384 261,-384 261,-390 255,-396 249,-396"/>
<text text-anchor="middle" x="186.5" y="-375.5" font-family="sans" font-size="10.00" fill="#000000">alignment_samtools_index</text>
</g>
<!-- 5&#45;&gt;7 -->
<g id="edge18" class="edge">
<title>5&#45;&gt;7</title>
<path fill="none" stroke="#c0c0c0" stroke-width="2" d="M263.5088,-431.8314C250.5784,-422.7927 234.7778,-411.7476 220.8617,-402.0198"/>
<polygon fill="#c0c0c0" stroke="#c0c0c0" stroke-width="2" points="222.6843,-399.0235 212.4829,-396.1628 218.6737,-404.7608 222.6843,-399.0235"/>
</g>
<!-- 9 -->
<g id="node10" class="node">
<title>9</title>
<path fill="none" stroke="#afd856" stroke-width="2" d="M43,-396C43,-396 12,-396 12,-396 6,-396 0,-390 0,-384 0,-384 0,-372 0,-372 0,-366 6,-360 12,-360 12,-360 43,-360 43,-360 49,-360 55,-366 55,-372 55,-372 55,-384 55,-384 55,-390 49,-396 43,-396"/>
<text text-anchor="middle" x="27.5" y="-375.5" font-family="sans" font-size="10.00" fill="#000000">cp_bam</text>
</g>
<!-- 5&#45;&gt;9 -->
<g id="edge19" class="edge">
<title>5&#45;&gt;9</title>
<path fill="none" stroke="#c0c0c0" stroke-width="2" d="M244.2217,-441.1605C199.3066,-431.863 128.8022,-415.8362 69.5,-396 67.8966,-395.4637 66.269,-394.8919 64.6325,-394.2943"/>
<polygon fill="#c0c0c0" stroke="#c0c0c0" stroke-width="2" points="65.8554,-391.0145 55.2666,-390.656 63.3206,-397.5395 65.8554,-391.0145"/>
</g>
<!-- 12 -->
<g id="node13" class="node">
<title>12</title>
<path fill="none" stroke="#565bd8" stroke-width="2" d="M217.5,-324C217.5,-324 155.5,-324 155.5,-324 149.5,-324 143.5,-318 143.5,-312 143.5,-312 143.5,-300 143.5,-300 143.5,-294 149.5,-288 155.5,-288 155.5,-288 217.5,-288 217.5,-288 223.5,-288 229.5,-294 229.5,-300 229.5,-300 229.5,-312 229.5,-312 229.5,-318 223.5,-324 217.5,-324"/>
<text text-anchor="middle" x="186.5" y="-303.5" font-family="sans" font-size="10.00" fill="#000000">fusions_arriba</text>
</g>
<!-- 5&#45;&gt;12 -->
<g id="edge23" class="edge">
<title>5&#45;&gt;12</title>
<path fill="none" stroke="#c0c0c0" stroke-width="2" d="M244.4496,-443.286C194.7639,-434.852 119.5614,-418.6853 102.5,-396 92.8829,-383.2128 94.833,-374.0434 102.5,-360 109.7224,-346.771 121.7269,-336.2994 134.4326,-328.2381"/>
<polygon fill="#c0c0c0" stroke="#c0c0c0" stroke-width="2" points="136.4387,-331.1189 143.2906,-323.0379 132.8949,-325.0822 136.4387,-331.1189"/>
</g>
<!-- 14 -->
<g id="node15" class="node">
<title>14</title>
<path fill="none" stroke="#d88d56" stroke-width="2" d="M354.5,-252C354.5,-252 228.5,-252 228.5,-252 222.5,-252 216.5,-246 216.5,-240 216.5,-240 216.5,-228 216.5,-228 216.5,-222 222.5,-216 228.5,-216 228.5,-216 354.5,-216 354.5,-216 360.5,-216 366.5,-222 366.5,-228 366.5,-228 366.5,-240 366.5,-240 366.5,-246 360.5,-252 354.5,-252"/>
<text text-anchor="middle" x="291.5" y="-231.5" font-family="sans" font-size="10.00" fill="#000000">fusions_arriba_draw_fusion</text>
</g>
<!-- 5&#45;&gt;14 -->
<g id="edge26" class="edge">
<title>5&#45;&gt;14</title>
<path fill="none" stroke="#c0c0c0" stroke-width="2" d="M289.6671,-431.9555C290.0149,-394.3938 290.8189,-307.5541 291.2369,-262.4103"/>
<polygon fill="#c0c0c0" stroke="#c0c0c0" stroke-width="2" points="294.7392,-262.1771 291.332,-252.1451 287.7395,-262.1122 294.7392,-262.1771"/>
</g>
<!-- 6&#45;&gt;5 -->
<g id="edge16" class="edge">
<title>6&#45;&gt;5</title>
<path fill="none" stroke="#c0c0c0" stroke-width="2" d="M361.2751,-503.8314C349.3372,-494.8779 334.7744,-483.9558 321.894,-474.2955"/>
<polygon fill="#c0c0c0" stroke="#c0c0c0" stroke-width="2" points="323.8171,-471.3629 313.7171,-468.1628 319.6171,-476.9629 323.8171,-471.3629"/>
</g>
<!-- 7&#45;&gt;4 -->
<g id="edge14" class="edge">
<title>7&#45;&gt;4</title>
<path fill="none" stroke="#c0c0c0" stroke-width="2" d="M232.6786,-359.8314C257.4801,-350.0734 288.225,-337.977 314.2843,-327.7242"/>
<polygon fill="#c0c0c0" stroke="#c0c0c0" stroke-width="2" points="315.6292,-330.9563 323.6534,-324.038 313.0663,-324.4423 315.6292,-330.9563"/>
</g>
<!-- 10 -->
<g id="node11" class="node">
<title>10</title>
<path fill="none" stroke="#56d8d0" stroke-width="2" d="M97.5,-252C97.5,-252 67.5,-252 67.5,-252 61.5,-252 55.5,-246 55.5,-240 55.5,-240 55.5,-228 55.5,-228 55.5,-222 61.5,-216 67.5,-216 67.5,-216 97.5,-216 97.5,-216 103.5,-216 109.5,-222 109.5,-228 109.5,-228 109.5,-240 109.5,-240 109.5,-246 103.5,-252 97.5,-252"/>
<text text-anchor="middle" x="82.5" y="-231.5" font-family="sans" font-size="10.00" fill="#000000">cp_bai</text>
</g>
<!-- 7&#45;&gt;10 -->
<g id="edge20" class="edge">
<title>7&#45;&gt;10</title>
<path fill="none" stroke="#c0c0c0" stroke-width="2" d="M166.7728,-359.7755C156.5075,-349.7557 144.1272,-336.7902 134.5,-324 119.529,-304.1103 105.5928,-279.5217 95.9236,-261.0743"/>
<polygon fill="#c0c0c0" stroke="#c0c0c0" stroke-width="2" points="98.9635,-259.3324 91.2733,-252.0447 92.7403,-262.5375 98.9635,-259.3324"/>
</g>
<!-- 7&#45;&gt;12 -->
<g id="edge22" class="edge">
<title>7&#45;&gt;12</title>
<path fill="none" stroke="#c0c0c0" stroke-width="2" d="M186.5,-359.8314C186.5,-352.131 186.5,-342.9743 186.5,-334.4166"/>
<polygon fill="#c0c0c0" stroke="#c0c0c0" stroke-width="2" points="190.0001,-334.4132 186.5,-324.4133 183.0001,-334.4133 190.0001,-334.4132"/>
</g>
<!-- 8 -->
<g id="node9" class="node">
<title>8</title>
<path fill="none" stroke="#56d88a" stroke-width="2" d="M491,-324C491,-324 452,-324 452,-324 446,-324 440,-318 440,-312 440,-312 440,-300 440,-300 440,-294 446,-288 452,-288 452,-288 491,-288 491,-288 497,-288 503,-294 503,-300 503,-300 503,-312 503,-312 503,-318 497,-324 491,-324"/>
<text text-anchor="middle" x="471.5" y="-303.5" font-family="sans" font-size="10.00" fill="#000000">qc_fastqc</text>
</g>
<!-- 8&#45;&gt;2 -->
<g id="edge10" class="edge">
<title>8&#45;&gt;2</title>
<path fill="none" stroke="#c0c0c0" stroke-width="2" d="M471.5,-287.8314C471.5,-280.131 471.5,-270.9743 471.5,-262.4166"/>
<polygon fill="#c0c0c0" stroke="#c0c0c0" stroke-width="2" points="475.0001,-262.4132 471.5,-252.4133 468.0001,-262.4133 475.0001,-262.4132"/>
</g>
<!-- 9&#45;&gt;0 -->
<g id="edge4" class="edge">
<title>9&#45;&gt;0</title>
<path fill="none" stroke="#c0c0c0" stroke-width="2" d="M27.5,-359.8146C27.5,-332.4983 27.5,-279.25 27.5,-234 27.5,-234 27.5,-234 27.5,-162 27.5,-115.3524 44.1453,-99.9397 81.5,-72 108.3883,-51.8887 200.2969,-33.3622 252.4979,-24.1345"/>
<polygon fill="#c0c0c0" stroke="#c0c0c0" stroke-width="2" points="253.1258,-27.5779 262.3777,-22.4152 251.9256,-20.6816 253.1258,-27.5779"/>
</g>
<!-- 10&#45;&gt;0 -->
<g id="edge8" class="edge">
<title>10&#45;&gt;0</title>
<path fill="none" stroke="#c0c0c0" stroke-width="2" d="M79.1933,-215.9172C74.2905,-183.0396 69.1265,-113.0809 104.5,-72 123.7207,-49.6782 204.0219,-32.5161 252.2866,-23.9761"/>
<polygon fill="#c0c0c0" stroke="#c0c0c0" stroke-width="2" points="253.0983,-27.3878 262.3567,-22.2369 251.9069,-20.49 253.0983,-27.3878"/>
</g>
<!-- 11 -->
<g id="node12" class="node">
<title>11</title>
<path fill="none" stroke="#56d892" stroke-width="2" d="M203.5,-108C203.5,-108 125.5,-108 125.5,-108 119.5,-108 113.5,-102 113.5,-96 113.5,-96 113.5,-84 113.5,-84 113.5,-78 119.5,-72 125.5,-72 125.5,-72 203.5,-72 203.5,-72 209.5,-72 215.5,-78 215.5,-84 215.5,-84 215.5,-96 215.5,-96 215.5,-102 209.5,-108 203.5,-108"/>
<text text-anchor="middle" x="164.5" y="-87.5" font-family="sans" font-size="10.00" fill="#000000">cp_arrbia_fusions</text>
</g>
<!-- 11&#45;&gt;0 -->
<g id="edge6" class="edge">
<title>11&#45;&gt;0</title>
<path fill="none" stroke="#c0c0c0" stroke-width="2" d="M196.0428,-71.8314C213.4109,-61.8273 235.0459,-49.3655 253.1246,-38.9522"/>
<polygon fill="#c0c0c0" stroke="#c0c0c0" stroke-width="2" points="255.2947,-41.7414 262.213,-33.7173 251.8008,-35.6757 255.2947,-41.7414"/>
</g>
<!-- 12&#45;&gt;11 -->
<g id="edge21" class="edge">
<title>12&#45;&gt;11</title>
<path fill="none" stroke="#c0c0c0" stroke-width="2" d="M176.4118,-287.7381C161.1736,-257.9492 135.0169,-196.9083 144.5,-144 146.0973,-135.0882 149.0674,-125.7238 152.2391,-117.3422"/>
<polygon fill="#c0c0c0" stroke="#c0c0c0" stroke-width="2" points="155.496,-118.6241 155.9849,-108.0406 149.0027,-116.0093 155.496,-118.6241"/>
</g>
<!-- 12&#45;&gt;14 -->
<g id="edge25" class="edge">
<title>12&#45;&gt;14</title>
<path fill="none" stroke="#c0c0c0" stroke-width="2" d="M212.9959,-287.8314C226.1774,-278.7927 242.2847,-267.7476 256.4711,-258.0198"/>
<polygon fill="#c0c0c0" stroke="#c0c0c0" stroke-width="2" points="258.7446,-260.7047 265.0125,-252.1628 254.7859,-254.9316 258.7446,-260.7047"/>
</g>
<!-- 12&#45;&gt;24 -->
<g id="edge41" class="edge">
<title>12&#45;&gt;24</title>
<path fill="none" stroke="#c0c0c0" stroke-width="2" d="M187.6484,-287.9786C189.5312,-268.9692 194.4864,-238.6852 207.5,-216 219.0763,-195.8202 229.1109,-196.5116 245.5,-180 266.3912,-158.9526 289.3122,-134.2822 305.9257,-116.0989"/>
<polygon fill="#c0c0c0" stroke="#c0c0c0" stroke-width="2" points="308.9398,-117.9875 313.0852,-108.2373 303.7642,-113.2742 308.9398,-117.9875"/>
</g>
<!-- 13 -->
<g id="node14" class="node">
<title>13</title>
<path fill="none" stroke="#9fd856" stroke-width="2" d="M224,-180C224,-180 165,-180 165,-180 159,-180 153,-174 153,-168 153,-168 153,-156 153,-156 153,-150 159,-144 165,-144 165,-144 224,-144 224,-144 230,-144 236,-150 236,-156 236,-156 236,-168 236,-168 236,-174 230,-180 224,-180"/>
<text text-anchor="middle" x="194.5" y="-159.5" font-family="sans" font-size="10.00" fill="#000000">cp_arrbia_pdf</text>
</g>
<!-- 13&#45;&gt;0 -->
<g id="edge7" class="edge">
<title>13&#45;&gt;0</title>
<path fill="none" stroke="#c0c0c0" stroke-width="2" d="M206.5318,-143.7623C223.0923,-118.66 253.0162,-73.3017 272.0391,-44.4671"/>
<polygon fill="#c0c0c0" stroke="#c0c0c0" stroke-width="2" points="274.9805,-46.3642 277.5659,-36.0896 269.1375,-42.5094 274.9805,-46.3642"/>
</g>
<!-- 14&#45;&gt;13 -->
<g id="edge24" class="edge">
<title>14&#45;&gt;13</title>
<path fill="none" stroke="#c0c0c0" stroke-width="2" d="M267.0228,-215.8314C254.9605,-206.8779 240.246,-195.9558 227.2314,-186.2955"/>
<polygon fill="#c0c0c0" stroke="#c0c0c0" stroke-width="2" points="229.0852,-183.3127 218.9694,-180.1628 224.913,-188.9335 229.0852,-183.3127"/>
</g>
<!-- 25 -->
<g id="node26" class="node">
<title>25</title>
<path fill="none" stroke="#d8a456" stroke-width="2" d="M354.5,-180C354.5,-180 304.5,-180 304.5,-180 298.5,-180 292.5,-174 292.5,-168 292.5,-168 292.5,-156 292.5,-156 292.5,-150 298.5,-144 304.5,-144 304.5,-144 354.5,-144 354.5,-144 360.5,-144 366.5,-150 366.5,-156 366.5,-156 366.5,-168 366.5,-168 366.5,-174 360.5,-180 354.5,-180"/>
<text text-anchor="middle" x="329.5" y="-159.5" font-family="sans" font-size="10.00" fill="#000000">convert_pdf</text>
</g>
<!-- 14&#45;&gt;25 -->
<g id="edge42" class="edge">
<title>14&#45;&gt;25</title>
<path fill="none" stroke="#c0c0c0" stroke-width="2" d="M301.089,-215.8314C305.3317,-207.7925 310.4121,-198.1666 315.096,-189.2918"/>
<polygon fill="#c0c0c0" stroke="#c0c0c0" stroke-width="2" points="318.2096,-190.8908 319.7819,-180.4133 312.0189,-187.6235 318.2096,-190.8908"/>
</g>
<!-- 15 -->
<g id="node16" class="node">
<title>15</title>
<path fill="none" stroke="#5692d8" stroke-width="2" d="M540.5,-180C540.5,-180 510.5,-180 510.5,-180 504.5,-180 498.5,-174 498.5,-168 498.5,-168 498.5,-156 498.5,-156 498.5,-150 504.5,-144 510.5,-144 510.5,-144 540.5,-144 540.5,-144 546.5,-144 552.5,-150 552.5,-156 552.5,-156 552.5,-168 552.5,-168 552.5,-174 546.5,-180 540.5,-180"/>
<text text-anchor="middle" x="525.5" y="-159.5" font-family="sans" font-size="10.00" fill="#000000">cp_vcf</text>
</g>
<!-- 15&#45;&gt;0 -->
<g id="edge5" class="edge">
<title>15&#45;&gt;0</title>
<path fill="none" stroke="#c0c0c0" stroke-width="2" d="M523.3073,-143.7088C519.8853,-123.2988 511.3409,-90.6953 490.5,-72 466.4689,-50.4429 378.0559,-32.6703 326.8471,-23.9019"/>
<polygon fill="#c0c0c0" stroke="#c0c0c0" stroke-width="2" points="327.2677,-20.4236 316.8262,-22.2196 326.1087,-27.327 327.2677,-20.4236"/>
</g>
<!-- 16 -->
<g id="node17" class="node">
<title>16</title>
<path fill="none" stroke="#56d0d8" stroke-width="2" d="M663,-252C663,-252 550,-252 550,-252 544,-252 538,-246 538,-240 538,-240 538,-228 538,-228 538,-222 544,-216 550,-216 550,-216 663,-216 663,-216 669,-216 675,-222 675,-228 675,-228 675,-240 675,-240 675,-246 669,-252 663,-252"/>
<text text-anchor="middle" x="606.5" y="-231.5" font-family="sans" font-size="10.00" fill="#000000">snv_indels_bcftools_sort</text>
</g>
<!-- 16&#45;&gt;15 -->
<g id="edge27" class="edge">
<title>16&#45;&gt;15</title>
<path fill="none" stroke="#c0c0c0" stroke-width="2" d="M586.0603,-215.8314C576.1795,-207.0485 564.1676,-196.3712 553.455,-186.8489"/>
<polygon fill="#c0c0c0" stroke="#c0c0c0" stroke-width="2" points="555.7326,-184.1906 545.9332,-180.1628 551.082,-189.4224 555.7326,-184.1906"/>
</g>
<!-- 22 -->
<g id="node23" class="node">
<title>22</title>
<path fill="none" stroke="#d8b456" stroke-width="2" d="M656.5,-180C656.5,-180 582.5,-180 582.5,-180 576.5,-180 570.5,-174 570.5,-168 570.5,-168 570.5,-156 570.5,-156 570.5,-150 576.5,-144 582.5,-144 582.5,-144 656.5,-144 656.5,-144 662.5,-144 668.5,-150 668.5,-156 668.5,-156 668.5,-168 668.5,-168 668.5,-174 662.5,-180 656.5,-180"/>
<text text-anchor="middle" x="619.5" y="-159.5" font-family="sans" font-size="10.00" fill="#000000">snv_indels_tabix</text>
</g>
<!-- 16&#45;&gt;22 -->
<g id="edge35" class="edge">
<title>16&#45;&gt;22</title>
<path fill="none" stroke="#c0c0c0" stroke-width="2" d="M603.8281,-215.8314C604.475,-208.0463 605.9319,-198.7729 607.8154,-190.1347"/>
<polygon fill="#c0c0c0" stroke="#c0c0c0" stroke-width="2" points="611.2169,-190.9591 610.1994,-180.4133 604.4183,-189.2919 611.2169,-190.9591"/>
</g>
<!-- 16&#45;&gt;24 -->
<g id="edge38" class="edge">
<title>16&#45;&gt;24</title>
<path fill="none" stroke="#c0c0c0" stroke-width="2" d="M565.234,-215.925C542.6526,-205.792 514.3022,-192.6736 489.5,-180 447.6048,-158.5921 400.8238,-131.9469 368.7227,-113.2232"/>
<polygon fill="#c0c0c0" stroke="#c0c0c0" stroke-width="2" points="370.4728,-110.1921 360.0741,-108.1631 366.9379,-116.234 370.4728,-110.1921"/>
</g>
<!-- 17 -->
<g id="node18" class="node">
<title>17</title>
<path fill="none" stroke="#566bd8" stroke-width="2" d="M760,-324C760,-324 647,-324 647,-324 641,-324 635,-318 635,-312 635,-312 635,-300 635,-300 635,-294 641,-288 647,-288 647,-288 760,-288 760,-288 766,-288 772,-294 772,-300 772,-300 772,-312 772,-312 772,-318 766,-324 760,-324"/>
<text text-anchor="middle" x="703.5" y="-303.5" font-family="sans" font-size="10.00" fill="#000000">snv_indels_vt_normalize</text>
</g>
<!-- 17&#45;&gt;16 -->
<g id="edge29" class="edge">
<title>17&#45;&gt;16</title>
<path fill="none" stroke="#c0c0c0" stroke-width="2" d="M679.0228,-287.8314C666.9605,-278.8779 652.246,-267.9558 639.2314,-258.2955"/>
<polygon fill="#c0c0c0" stroke="#c0c0c0" stroke-width="2" points="641.0852,-255.3127 630.9694,-252.1628 636.913,-260.9335 641.0852,-255.3127"/>
</g>
<!-- 17&#45;&gt;22 -->
<g id="edge36" class="edge">
<title>17&#45;&gt;22</title>
<path fill="none" stroke="#c0c0c0" stroke-width="2" d="M703.1228,-287.8215C701.972,-268.681 697.9458,-238.2885 684.5,-216 677.6831,-204.7 667.6315,-194.6739 657.46,-186.4217"/>
<polygon fill="#c0c0c0" stroke="#c0c0c0" stroke-width="2" points="659.402,-183.5004 649.3365,-180.1934 655.1429,-189.0555 659.402,-183.5004"/>
</g>
<!-- 18 -->
<g id="node19" class="node">
<title>18</title>
<path fill="none" stroke="#d8cb56" stroke-width="2" d="M862,-396C862,-396 741,-396 741,-396 735,-396 729,-390 729,-384 729,-384 729,-372 729,-372 729,-366 735,-360 741,-360 741,-360 862,-360 862,-360 868,-360 874,-366 874,-372 874,-372 874,-384 874,-384 874,-390 868,-396 862,-396"/>
<text text-anchor="middle" x="801.5" y="-375.5" font-family="sans" font-size="10.00" fill="#000000">snv_indels_vt_decompose</text>
</g>
<!-- 18&#45;&gt;17 -->
<g id="edge30" class="edge">
<title>18&#45;&gt;17</title>
<path fill="none" stroke="#c0c0c0" stroke-width="2" d="M776.7705,-359.8314C764.5838,-350.8779 749.7177,-339.9558 736.5688,-330.2955"/>
<polygon fill="#c0c0c0" stroke="#c0c0c0" stroke-width="2" points="738.3527,-327.263 728.2216,-324.1628 734.2082,-332.9042 738.3527,-327.263"/>
</g>
<!-- 19 -->
<g id="node20" class="node">
<title>19</title>
<path fill="none" stroke="#d8c356" stroke-width="2" d="M704.5,-468C704.5,-468 628.5,-468 628.5,-468 622.5,-468 616.5,-462 616.5,-456 616.5,-456 616.5,-444 616.5,-444 616.5,-438 622.5,-432 628.5,-432 628.5,-432 704.5,-432 704.5,-432 710.5,-432 716.5,-438 716.5,-444 716.5,-444 716.5,-456 716.5,-456 716.5,-462 710.5,-468 704.5,-468"/>
<text text-anchor="middle" x="666.5" y="-447.5" font-family="sans" font-size="10.00" fill="#000000">snv_indels_bgzip</text>
</g>
<!-- 19&#45;&gt;18 -->
<g id="edge31" class="edge">
<title>19&#45;&gt;18</title>
<path fill="none" stroke="#c0c0c0" stroke-width="2" d="M700.5662,-431.8314C718.1533,-422.4516 739.7916,-410.9112 758.5168,-400.9244"/>
<polygon fill="#c0c0c0" stroke="#c0c0c0" stroke-width="2" points="760.2682,-403.957 767.4447,-396.1628 756.9741,-397.7805 760.2682,-403.957"/>
</g>
<!-- 20 -->
<g id="node21" class="node">
<title>20</title>
<path fill="none" stroke="#56d8d8" stroke-width="2" d="M699,-396C699,-396 622,-396 622,-396 616,-396 610,-390 610,-384 610,-384 610,-372 610,-372 610,-366 616,-360 622,-360 622,-360 699,-360 699,-360 705,-360 711,-366 711,-372 711,-372 711,-384 711,-384 711,-390 705,-396 699,-396"/>
<text text-anchor="middle" x="660.5" y="-375.5" font-family="sans" font-size="10.00" fill="#000000">snv_indels_fix_af</text>
</g>
<!-- 19&#45;&gt;20 -->
<g id="edge34" class="edge">
<title>19&#45;&gt;20</title>
<path fill="none" stroke="#c0c0c0" stroke-width="2" d="M659.0336,-431.8314C657.6414,-424.131 656.6575,-414.9743 656.253,-406.4166"/>
<polygon fill="#c0c0c0" stroke="#c0c0c0" stroke-width="2" points="659.7523,-406.3433 656.0584,-396.4133 652.7536,-406.4795 659.7523,-406.3433"/>
</g>
<!-- 20&#45;&gt;19 -->
<g id="edge33" class="edge">
<title>20&#45;&gt;19</title>
<path fill="none" stroke="#c0c0c0" stroke-width="2" d="M668.0104,-396.4133C669.3787,-404.0593 670.346,-413.1084 670.7465,-421.5726"/>
<polygon fill="#c0c0c0" stroke="#c0c0c0" stroke-width="2" points="667.2519,-421.8986 670.9383,-431.8314 674.2507,-421.7676 667.2519,-421.8986"/>
</g>
<!-- 21 -->
<g id="node22" class="node">
<title>21</title>
<path fill="none" stroke="#567bd8" stroke-width="2" d="M735.5,-540C735.5,-540 609.5,-540 609.5,-540 603.5,-540 597.5,-534 597.5,-528 597.5,-528 597.5,-516 597.5,-516 597.5,-510 603.5,-504 609.5,-504 609.5,-504 735.5,-504 735.5,-504 741.5,-504 747.5,-510 747.5,-516 747.5,-516 747.5,-528 747.5,-528 747.5,-534 741.5,-540 735.5,-540"/>
<text text-anchor="middle" x="672.5" y="-519.5" font-family="sans" font-size="10.00" fill="#000000">snv_indels_bcftools_concat</text>
</g>
<!-- 21&#45;&gt;19 -->
<g id="edge32" class="edge">
<title>21&#45;&gt;19</title>
<path fill="none" stroke="#c0c0c0" stroke-width="2" d="M670.9859,-503.8314C670.3442,-496.131 669.5812,-486.9743 668.8681,-478.4166"/>
<polygon fill="#c0c0c0" stroke="#c0c0c0" stroke-width="2" points="672.3529,-478.088 668.0344,-468.4133 665.3771,-478.6694 672.3529,-478.088"/>
</g>
<!-- 22&#45;&gt;16 -->
<g id="edge28" class="edge">
<title>22&#45;&gt;16</title>
<path fill="none" stroke="#c0c0c0" stroke-width="2" d="M622.1514,-180.4133C621.4948,-188.1442 620.0496,-197.3097 618.187,-205.8545"/>
<polygon fill="#c0c0c0" stroke="#c0c0c0" stroke-width="2" points="614.7228,-205.2848 615.7328,-215.8314 621.5202,-206.9569 614.7228,-205.2848"/>
</g>
<!-- 23 -->
<g id="node24" class="node">
<title>23</title>
<path fill="none" stroke="#d6d856" stroke-width="2" d="M610.5,-108C610.5,-108 580.5,-108 580.5,-108 574.5,-108 568.5,-102 568.5,-96 568.5,-96 568.5,-84 568.5,-84 568.5,-78 574.5,-72 580.5,-72 580.5,-72 610.5,-72 610.5,-72 616.5,-72 622.5,-78 622.5,-84 622.5,-84 622.5,-96 622.5,-96 622.5,-102 616.5,-108 610.5,-108"/>
<text text-anchor="middle" x="595.5" y="-87.5" font-family="sans" font-size="10.00" fill="#000000">cp_tbi</text>
</g>
<!-- 22&#45;&gt;23 -->
<g id="edge37" class="edge">
<title>22&#45;&gt;23</title>
<path fill="none" stroke="#c0c0c0" stroke-width="2" d="M613.4438,-143.8314C610.8488,-136.0463 607.7576,-126.7729 604.8782,-118.1347"/>
<polygon fill="#c0c0c0" stroke="#c0c0c0" stroke-width="2" points="608.1205,-116.7933 601.6378,-108.4133 601.4797,-119.0069 608.1205,-116.7933"/>
</g>
<!-- 23&#45;&gt;0 -->
<g id="edge3" class="edge">
<title>23&#45;&gt;0</title>
<path fill="none" stroke="#c0c0c0" stroke-width="2" d="M568.495,-82.0518C557.113,-78.7938 543.6996,-75.0742 531.5,-72 459.3614,-53.8214 374.3349,-35.5774 326.6966,-25.6408"/>
<polygon fill="#c0c0c0" stroke="#c0c0c0" stroke-width="2" points="327.3369,-22.1991 316.8339,-23.591 325.9125,-29.0527 327.3369,-22.1991"/>
</g>
<!-- 24&#45;&gt;0 -->
<g id="edge1" class="edge">
<title>24&#45;&gt;0</title>
<path fill="none" stroke="#c0c0c0" stroke-width="2" d="M319.4063,-71.8314C314.9403,-63.7925 309.5925,-54.1666 304.6621,-45.2918"/>
<polygon fill="#c0c0c0" stroke="#c0c0c0" stroke-width="2" points="307.6456,-43.4551 299.7296,-36.4133 301.5265,-46.8546 307.6456,-43.4551"/>
</g>
<!-- 25&#45;&gt;24 -->
<g id="edge39" class="edge">
<title>25&#45;&gt;24</title>
<path fill="none" stroke="#c0c0c0" stroke-width="2" d="M329.5,-143.8314C329.5,-136.131 329.5,-126.9743 329.5,-118.4166"/>
<polygon fill="#c0c0c0" stroke="#c0c0c0" stroke-width="2" points="333.0001,-118.4132 329.5,-108.4133 326.0001,-118.4133 333.0001,-118.4132"/>
</g>
</g>
</svg>
