<?xml version="1.0" encoding="UTF-8" standalone="no"?>
<!DOCTYPE svg PUBLIC "-//W3C//DTD SVG 1.1//EN"
 "http://www.w3.org/Graphics/SVG/1.1/DTD/svg11.dtd">
<!-- Generated by graphviz version 2.40.1 (0)
 -->
<!-- Title: snakemake_dag Pages: 1 -->
<svg width="1410pt" height="980pt"
 viewBox="0.00 0.00 1410.09 980.00" xmlns="http://www.w3.org/2000/svg" xmlns:xlink="http://www.w3.org/1999/xlink">
<g id="graph0" class="graph" transform="scale(1 1) rotate(0) translate(4 976)">
<title>snakemake_dag</title>
<polygon fill="#ffffff" stroke="transparent" points="-4,4 -4,-976 1406.0864,-976 1406.0864,4 -4,4"/>
<!-- 0 -->
<g id="node1" class="node">
<title>0</title>
<path fill="none" stroke="#88d856" stroke-width="2" d="M925.5864,-36C925.5864,-36 895.5864,-36 895.5864,-36 889.5864,-36 883.5864,-30 883.5864,-24 883.5864,-24 883.5864,-12 883.5864,-12 883.5864,-6 889.5864,0 895.5864,0 895.5864,0 925.5864,0 925.5864,0 931.5864,0 937.5864,-6 937.5864,-12 937.5864,-12 937.5864,-24 937.5864,-24 937.5864,-30 931.5864,-36 925.5864,-36"/>
<text text-anchor="middle" x="910.5864" y="-15.5" font-family="sans" font-size="10.00" fill="#000000">all</text>
</g>
<!-- 1 -->
<g id="node2" class="node">
<title>1</title>
<path fill="none" stroke="#d89c56" stroke-width="2" d="M372.5864,-468C372.5864,-468 326.5864,-468 326.5864,-468 320.5864,-468 314.5864,-462 314.5864,-456 314.5864,-456 314.5864,-444 314.5864,-444 314.5864,-438 320.5864,-432 326.5864,-432 326.5864,-432 372.5864,-432 372.5864,-432 378.5864,-432 384.5864,-438 384.5864,-444 384.5864,-444 384.5864,-456 384.5864,-456 384.5864,-462 378.5864,-468 372.5864,-468"/>
<text text-anchor="middle" x="349.5864" y="-447.5" font-family="sans" font-size="10.00" fill="#000000">cp_multiqc</text>
</g>
<!-- 1&#45;&gt;0 -->
<g id="edge3" class="edge">
<title>1&#45;&gt;0</title>
<path fill="none" stroke="#c0c0c0" stroke-width="2" d="M358.9177,-431.9025C371.8335,-405.1296 393.5864,-353.0538 393.5864,-306 393.5864,-306 393.5864,-306 393.5864,-162 393.5864,-119.8363 390.7942,-98.5037 423.5864,-72 458.4014,-43.8615 765.2064,-25.4883 873.188,-19.8451"/>
<polygon fill="#c0c0c0" stroke="#c0c0c0" stroke-width="2" points="873.49,-23.3343 883.2964,-19.3238 873.1294,-16.3436 873.49,-23.3343"/>
</g>
<!-- 2 -->
<g id="node3" class="node">
<title>2</title>
<path fill="none" stroke="#566bd8" stroke-width="2" d="M345.5864,-612C345.5864,-612 299.5864,-612 299.5864,-612 293.5864,-612 287.5864,-606 287.5864,-600 287.5864,-600 287.5864,-588 287.5864,-588 287.5864,-582 293.5864,-576 299.5864,-576 299.5864,-576 345.5864,-576 345.5864,-576 351.5864,-576 357.5864,-582 357.5864,-588 357.5864,-588 357.5864,-600 357.5864,-600 357.5864,-606 351.5864,-612 345.5864,-612"/>
<text text-anchor="middle" x="322.5864" y="-591.5" font-family="sans" font-size="10.00" fill="#000000">qc_multiqc</text>
</g>
<!-- 2&#45;&gt;1 -->
<g id="edge10" class="edge">
<title>2&#45;&gt;1</title>
<path fill="none" stroke="#c0c0c0" stroke-width="2" d="M326.006,-575.7623C330.6315,-551.0928 338.9252,-506.8598 344.3415,-477.9731"/>
<polygon fill="#c0c0c0" stroke="#c0c0c0" stroke-width="2" points="347.7917,-478.5634 346.1946,-468.0896 340.9116,-477.2733 347.7917,-478.5634"/>
</g>
<!-- 3 -->
<g id="node4" class="node">
<title>3</title>
<path fill="none" stroke="#56d8d8" stroke-width="2" d="M784.0864,-684C784.0864,-684 703.0864,-684 703.0864,-684 697.0864,-684 691.0864,-678 691.0864,-672 691.0864,-672 691.0864,-660 691.0864,-660 691.0864,-654 697.0864,-648 703.0864,-648 703.0864,-648 784.0864,-648 784.0864,-648 790.0864,-648 796.0864,-654 796.0864,-660 796.0864,-660 796.0864,-672 796.0864,-672 796.0864,-678 790.0864,-684 784.0864,-684"/>
<text text-anchor="middle" x="743.5864" y="-663.5" font-family="sans" font-size="10.00" fill="#000000">qc_mosdepth_bed</text>
</g>
<!-- 3&#45;&gt;2 -->
<g id="edge16" class="edge">
<title>3&#45;&gt;2</title>
<path fill="none" stroke="#c0c0c0" stroke-width="2" d="M690.944,-650.199C687.7885,-649.413 684.6519,-648.6724 681.5864,-648 569.8873,-623.4992 436.1909,-606.6031 367.7846,-598.8391"/>
<polygon fill="#c0c0c0" stroke="#c0c0c0" stroke-width="2" points="368.1058,-595.3533 357.7778,-597.7158 367.3249,-602.3096 368.1058,-595.3533"/>
</g>
<!-- 33 -->
<g id="node34" class="node">
<title>33</title>
<path fill="none" stroke="#56b9d8" stroke-width="2" d="M947.5864,-180C947.5864,-180 873.5864,-180 873.5864,-180 867.5864,-180 861.5864,-174 861.5864,-168 861.5864,-168 861.5864,-156 861.5864,-156 861.5864,-150 867.5864,-144 873.5864,-144 873.5864,-144 947.5864,-144 947.5864,-144 953.5864,-144 959.5864,-150 959.5864,-156 959.5864,-156 959.5864,-168 959.5864,-168 959.5864,-174 953.5864,-180 947.5864,-180"/>
<text text-anchor="middle" x="910.5864" y="-159.5" font-family="sans" font-size="10.00" fill="#000000">summary_report</text>
</g>
<!-- 3&#45;&gt;33 -->
<g id="edge59" class="edge">
<title>3&#45;&gt;33</title>
<path fill="none" stroke="#c0c0c0" stroke-width="2" d="M749.6287,-647.7646C774.7412,-571.9762 870.9654,-281.5747 901.3415,-189.9009"/>
<polygon fill="#c0c0c0" stroke="#c0c0c0" stroke-width="2" points="904.7293,-190.8042 904.5523,-180.2109 898.0845,-188.6025 904.7293,-190.8042"/>
</g>
<!-- 4 -->
<g id="node5" class="node">
<title>4</title>
<path fill="none" stroke="#d85e56" stroke-width="2" d="M765.5864,-828C765.5864,-828 699.5864,-828 699.5864,-828 693.5864,-828 687.5864,-822 687.5864,-816 687.5864,-816 687.5864,-804 687.5864,-804 687.5864,-798 693.5864,-792 699.5864,-792 699.5864,-792 765.5864,-792 765.5864,-792 771.5864,-792 777.5864,-798 777.5864,-804 777.5864,-804 777.5864,-816 777.5864,-816 777.5864,-822 771.5864,-828 765.5864,-828"/>
<text text-anchor="middle" x="732.5864" y="-807.5" font-family="sans" font-size="10.00" fill="#000000">alignment_star</text>
</g>
<!-- 4&#45;&gt;2 -->
<g id="edge11" class="edge">
<title>4&#45;&gt;2</title>
<path fill="none" stroke="#c0c0c0" stroke-width="2" d="M687.5119,-801.5594C594.7822,-783.2685 387.4833,-737.3014 341.5864,-684 326.9916,-667.0507 322.6796,-641.7074 321.7673,-622.2288"/>
<polygon fill="#c0c0c0" stroke="#c0c0c0" stroke-width="2" points="325.2641,-622.0298 321.5665,-612.1012 318.2655,-622.1686 325.2641,-622.0298"/>
</g>
<!-- 4&#45;&gt;3 -->
<g id="edge19" class="edge">
<title>4&#45;&gt;3</title>
<path fill="none" stroke="#c0c0c0" stroke-width="2" d="M733.9796,-791.7623C735.8558,-767.201 739.2134,-723.2474 741.4205,-694.3541"/>
<polygon fill="#c0c0c0" stroke="#c0c0c0" stroke-width="2" points="744.9327,-694.3272 742.2046,-684.0896 737.953,-693.794 744.9327,-694.3272"/>
</g>
<!-- 7 -->
<g id="node8" class="node">
<title>7</title>
<path fill="none" stroke="#56d863" stroke-width="2" d="M898.0864,-756C898.0864,-756 773.0864,-756 773.0864,-756 767.0864,-756 761.0864,-750 761.0864,-744 761.0864,-744 761.0864,-732 761.0864,-732 761.0864,-726 767.0864,-720 773.0864,-720 773.0864,-720 898.0864,-720 898.0864,-720 904.0864,-720 910.0864,-726 910.0864,-732 910.0864,-732 910.0864,-744 910.0864,-744 910.0864,-750 904.0864,-756 898.0864,-756"/>
<text text-anchor="middle" x="835.5864" y="-735.5" font-family="sans" font-size="10.00" fill="#000000">alignment_samtools_index</text>
</g>
<!-- 4&#45;&gt;7 -->
<g id="edge23" class="edge">
<title>4&#45;&gt;7</title>
<path fill="none" stroke="#c0c0c0" stroke-width="2" d="M758.5777,-791.8314C771.5081,-782.7927 787.3086,-771.7476 801.2248,-762.0198"/>
<polygon fill="#c0c0c0" stroke="#c0c0c0" stroke-width="2" points="803.4127,-764.7608 809.6035,-756.1628 799.4022,-759.0235 803.4127,-764.7608"/>
</g>
<!-- 8 -->
<g id="node9" class="node">
<title>8</title>
<path fill="none" stroke="#61d856" stroke-width="2" d="M474.5864,-684C474.5864,-684 362.5864,-684 362.5864,-684 356.5864,-684 350.5864,-678 350.5864,-672 350.5864,-672 350.5864,-660 350.5864,-660 350.5864,-654 356.5864,-648 362.5864,-648 362.5864,-648 474.5864,-648 474.5864,-648 480.5864,-648 486.5864,-654 486.5864,-660 486.5864,-660 486.5864,-672 486.5864,-672 486.5864,-678 480.5864,-684 474.5864,-684"/>
<text text-anchor="middle" x="418.5864" y="-663.5" font-family="sans" font-size="10.00" fill="#000000">qc_rseqc_inner_distance</text>
</g>
<!-- 4&#45;&gt;8 -->
<g id="edge25" class="edge">
<title>4&#45;&gt;8</title>
<path fill="none" stroke="#c0c0c0" stroke-width="2" d="M693.1361,-791.9081C635.7941,-765.6112 529.5012,-716.8654 467.3348,-688.356"/>
<polygon fill="#c0c0c0" stroke="#c0c0c0" stroke-width="2" points="468.6712,-685.1183 458.1224,-684.1311 465.7531,-691.4812 468.6712,-685.1183"/>
</g>
<!-- 10 -->
<g id="node11" class="node">
<title>10</title>
<path fill="none" stroke="#d8b456" stroke-width="2" d="M660.5864,-684C660.5864,-684 516.5864,-684 516.5864,-684 510.5864,-684 504.5864,-678 504.5864,-672 504.5864,-672 504.5864,-660 504.5864,-660 504.5864,-654 510.5864,-648 516.5864,-648 516.5864,-648 660.5864,-648 660.5864,-648 666.5864,-648 672.5864,-654 672.5864,-660 672.5864,-660 672.5864,-672 672.5864,-672 672.5864,-678 666.5864,-684 660.5864,-684"/>
<text text-anchor="middle" x="588.5864" y="-663.5" font-family="sans" font-size="10.00" fill="#000000">qc_rseqc_gene_body_coverage</text>
</g>
<!-- 4&#45;&gt;10 -->
<g id="edge27" class="edge">
<title>4&#45;&gt;10</title>
<path fill="none" stroke="#c0c0c0" stroke-width="2" d="M714.3487,-791.7623C688.9219,-766.3354 642.7117,-720.1253 613.9433,-691.3569"/>
<polygon fill="#c0c0c0" stroke="#c0c0c0" stroke-width="2" points="616.222,-688.6858 606.6761,-684.0896 611.2723,-693.6356 616.222,-688.6858"/>
</g>
<!-- 11 -->
<g id="node12" class="node">
<title>11</title>
<path fill="none" stroke="#56d85b" stroke-width="2" d="M282.0864,-756C282.0864,-756 199.0864,-756 199.0864,-756 193.0864,-756 187.0864,-750 187.0864,-744 187.0864,-744 187.0864,-732 187.0864,-732 187.0864,-726 193.0864,-720 199.0864,-720 199.0864,-720 282.0864,-720 282.0864,-720 288.0864,-720 294.0864,-726 294.0864,-732 294.0864,-732 294.0864,-744 294.0864,-744 294.0864,-750 288.0864,-756 282.0864,-756"/>
<text text-anchor="middle" x="240.5864" y="-735.5" font-family="sans" font-size="10.00" fill="#000000">qc_samtools_stats</text>
</g>
<!-- 4&#45;&gt;11 -->
<g id="edge29" class="edge">
<title>4&#45;&gt;11</title>
<path fill="none" stroke="#c0c0c0" stroke-width="2" d="M687.4034,-806.2221C609.5559,-799.2735 445.3283,-782.6846 308.5864,-756 307.1256,-755.7149 305.6498,-755.4162 304.1637,-755.1058"/>
<polygon fill="#c0c0c0" stroke="#c0c0c0" stroke-width="2" points="304.7771,-751.6568 294.2564,-752.9077 303.2609,-758.4907 304.7771,-751.6568"/>
</g>
<!-- 13 -->
<g id="node14" class="node">
<title>13</title>
<path fill="none" stroke="#567bd8" stroke-width="2" d="M1390.0864,-612C1390.0864,-612 1359.0864,-612 1359.0864,-612 1353.0864,-612 1347.0864,-606 1347.0864,-600 1347.0864,-600 1347.0864,-588 1347.0864,-588 1347.0864,-582 1353.0864,-576 1359.0864,-576 1359.0864,-576 1390.0864,-576 1390.0864,-576 1396.0864,-576 1402.0864,-582 1402.0864,-588 1402.0864,-588 1402.0864,-600 1402.0864,-600 1402.0864,-606 1396.0864,-612 1390.0864,-612"/>
<text text-anchor="middle" x="1374.5864" y="-591.5" font-family="sans" font-size="10.00" fill="#000000">cp_bam</text>
</g>
<!-- 4&#45;&gt;13 -->
<g id="edge30" class="edge">
<title>4&#45;&gt;13</title>
<path fill="none" stroke="#c0c0c0" stroke-width="2" d="M777.7868,-808.889C910.1929,-805.2302 1290.5126,-791.6864 1332.5864,-756 1371.5089,-722.9865 1376.7913,-659.004 1376.2734,-622.0965"/>
<polygon fill="#c0c0c0" stroke="#c0c0c0" stroke-width="2" points="1379.7695,-621.907 1375.9773,-612.0141 1372.7725,-622.1126 1379.7695,-621.907"/>
</g>
<!-- 16 -->
<g id="node17" class="node">
<title>16</title>
<path fill="none" stroke="#5692d8" stroke-width="2" d="M1100.5864,-396C1100.5864,-396 1038.5864,-396 1038.5864,-396 1032.5864,-396 1026.5864,-390 1026.5864,-384 1026.5864,-384 1026.5864,-372 1026.5864,-372 1026.5864,-366 1032.5864,-360 1038.5864,-360 1038.5864,-360 1100.5864,-360 1100.5864,-360 1106.5864,-360 1112.5864,-366 1112.5864,-372 1112.5864,-372 1112.5864,-384 1112.5864,-384 1112.5864,-390 1106.5864,-396 1100.5864,-396"/>
<text text-anchor="middle" x="1069.5864" y="-375.5" font-family="sans" font-size="10.00" fill="#000000">fusions_arriba</text>
</g>
<!-- 4&#45;&gt;16 -->
<g id="edge33" class="edge">
<title>4&#45;&gt;16</title>
<path fill="none" stroke="#c0c0c0" stroke-width="2" d="M777.6005,-808.5874C903.98,-804.2217 1255.4206,-789.1898 1294.5864,-756 1326.1693,-729.2362 1318.5864,-707.3978 1318.5864,-666 1318.5864,-666 1318.5864,-666 1318.5864,-522 1318.5864,-432.2155 1195.767,-397.5175 1122.6447,-384.8157"/>
<polygon fill="#c0c0c0" stroke="#c0c0c0" stroke-width="2" points="1123.1119,-381.3455 1112.6747,-383.166 1121.9691,-388.2516 1123.1119,-381.3455"/>
</g>
<!-- 18 -->
<g id="node19" class="node">
<title>18</title>
<path fill="none" stroke="#56b1d8" stroke-width="2" d="M1018.5864,-324C1018.5864,-324 892.5864,-324 892.5864,-324 886.5864,-324 880.5864,-318 880.5864,-312 880.5864,-312 880.5864,-300 880.5864,-300 880.5864,-294 886.5864,-288 892.5864,-288 892.5864,-288 1018.5864,-288 1018.5864,-288 1024.5864,-288 1030.5864,-294 1030.5864,-300 1030.5864,-300 1030.5864,-312 1030.5864,-312 1030.5864,-318 1024.5864,-324 1018.5864,-324"/>
<text text-anchor="middle" x="955.5864" y="-303.5" font-family="sans" font-size="10.00" fill="#000000">fusions_arriba_draw_fusion</text>
</g>
<!-- 4&#45;&gt;18 -->
<g id="edge36" class="edge">
<title>4&#45;&gt;18</title>
<path fill="none" stroke="#c0c0c0" stroke-width="2" d="M778.0012,-806.294C895.0407,-795.7004 1201.9611,-760.9659 1261.5864,-684 1303.4685,-629.9375 1257.4383,-688.841 1017.5864,-396 1000.9522,-375.6908 984.188,-351.0451 972.2932,-332.6828"/>
<polygon fill="#c0c0c0" stroke="#c0c0c0" stroke-width="2" points="975.211,-330.749 966.8671,-324.2199 969.3182,-334.5273 975.211,-330.749"/>
</g>
<!-- 28 -->
<g id="node29" class="node">
<title>28</title>
<path fill="none" stroke="#5673d8" stroke-width="2" d="M1240.5864,-684C1240.5864,-684 1076.5864,-684 1076.5864,-684 1070.5864,-684 1064.5864,-678 1064.5864,-672 1064.5864,-672 1064.5864,-660 1064.5864,-660 1064.5864,-654 1070.5864,-648 1076.5864,-648 1076.5864,-648 1240.5864,-648 1240.5864,-648 1246.5864,-648 1252.5864,-654 1252.5864,-660 1252.5864,-660 1252.5864,-672 1252.5864,-672 1252.5864,-678 1246.5864,-684 1240.5864,-684"/>
<text text-anchor="middle" x="1158.5864" y="-663.5" font-family="sans" font-size="10.00" fill="#000000">alignment_samtools_extract_reads</text>
</g>
<!-- 4&#45;&gt;28 -->
<g id="edge53" class="edge">
<title>4&#45;&gt;28</title>
<path fill="none" stroke="#c0c0c0" stroke-width="2" d="M777.6053,-797.9654C815.4597,-787.5993 870.8794,-771.8447 918.5864,-756 982.9238,-734.6319 1055.6803,-706.8237 1104.0514,-687.8074"/>
<polygon fill="#c0c0c0" stroke="#c0c0c0" stroke-width="2" points="1105.3711,-691.0494 1113.3908,-684.1259 1102.8039,-684.5371 1105.3711,-691.0494"/>
</g>
<!-- 5 -->
<g id="node6" class="node">
<title>5</title>
<path fill="none" stroke="#d8bc56" stroke-width="2" d="M598.0864,-900C598.0864,-900 497.0864,-900 497.0864,-900 491.0864,-900 485.0864,-894 485.0864,-888 485.0864,-888 485.0864,-876 485.0864,-876 485.0864,-870 491.0864,-864 497.0864,-864 497.0864,-864 598.0864,-864 598.0864,-864 604.0864,-864 610.0864,-870 610.0864,-876 610.0864,-876 610.0864,-888 610.0864,-888 610.0864,-894 604.0864,-900 598.0864,-900"/>
<text text-anchor="middle" x="547.5864" y="-879.5" font-family="sans" font-size="10.00" fill="#000000">prealignment_merged</text>
</g>
<!-- 5&#45;&gt;4 -->
<g id="edge21" class="edge">
<title>5&#45;&gt;4</title>
<path fill="none" stroke="#c0c0c0" stroke-width="2" d="M594.2698,-863.8314C619.7236,-853.925 651.37,-841.6086 677.966,-831.2577"/>
<polygon fill="#c0c0c0" stroke="#c0c0c0" stroke-width="2" points="679.4655,-834.4299 687.5152,-827.5412 676.9267,-827.9065 679.4655,-834.4299"/>
</g>
<!-- 6 -->
<g id="node7" class="node">
<title>6</title>
<path fill="none" stroke="#56a9d8" stroke-width="2" d="M414.0864,-972C414.0864,-972 309.0864,-972 309.0864,-972 303.0864,-972 297.0864,-966 297.0864,-960 297.0864,-960 297.0864,-948 297.0864,-948 297.0864,-942 303.0864,-936 309.0864,-936 309.0864,-936 414.0864,-936 414.0864,-936 420.0864,-936 426.0864,-942 426.0864,-948 426.0864,-948 426.0864,-960 426.0864,-960 426.0864,-966 420.0864,-972 414.0864,-972"/>
<text text-anchor="middle" x="361.5864" y="-951.5" font-family="sans" font-size="10.00" fill="#000000">prealignment_fastp_pe</text>
</g>
<!-- 6&#45;&gt;2 -->
<g id="edge15" class="edge">
<title>6&#45;&gt;2</title>
<path fill="none" stroke="#c0c0c0" stroke-width="2" d="M296.9898,-941.8545C193.6315,-920.555 2.5864,-872.7045 2.5864,-810 2.5864,-810 2.5864,-810 2.5864,-738 2.5864,-697.1184 -7.7593,-676.4629 21.5864,-648 57.3476,-613.3148 202.4428,-600.4635 277.3479,-596.0743"/>
<polygon fill="#c0c0c0" stroke="#c0c0c0" stroke-width="2" points="277.6441,-599.5633 287.4328,-595.5098 277.2528,-592.5743 277.6441,-599.5633"/>
</g>
<!-- 6&#45;&gt;5 -->
<g id="edge22" class="edge">
<title>6&#45;&gt;5</title>
<path fill="none" stroke="#c0c0c0" stroke-width="2" d="M408.5221,-935.8314C433.7302,-926.0734 464.9791,-913.977 491.4656,-903.7242"/>
<polygon fill="#c0c0c0" stroke="#c0c0c0" stroke-width="2" points="492.9261,-906.912 500.9883,-900.038 490.3991,-900.384 492.9261,-906.912"/>
</g>
<!-- 7&#45;&gt;3 -->
<g id="edge20" class="edge">
<title>7&#45;&gt;3</title>
<path fill="none" stroke="#c0c0c0" stroke-width="2" d="M812.371,-719.8314C801.0394,-710.9632 787.24,-700.1637 774.9838,-690.5718"/>
<polygon fill="#c0c0c0" stroke="#c0c0c0" stroke-width="2" points="776.8267,-687.5697 766.7945,-684.1628 772.5125,-693.0822 776.8267,-687.5697"/>
</g>
<!-- 7&#45;&gt;8 -->
<g id="edge26" class="edge">
<title>7&#45;&gt;8</title>
<path fill="none" stroke="#c0c0c0" stroke-width="2" d="M761.0293,-727.738C694.2545,-718.1859 593.4594,-702.8791 496.8973,-684.1917"/>
<polygon fill="#c0c0c0" stroke="#c0c0c0" stroke-width="2" points="497.4501,-680.7337 486.965,-682.2545 496.11,-687.6042 497.4501,-680.7337"/>
</g>
<!-- 7&#45;&gt;10 -->
<g id="edge28" class="edge">
<title>7&#45;&gt;10</title>
<path fill="none" stroke="#c0c0c0" stroke-width="2" d="M773.5767,-719.9243C739.2231,-709.9103 696.3472,-697.412 660.5253,-686.97"/>
<polygon fill="#c0c0c0" stroke="#c0c0c0" stroke-width="2" points="661.2016,-683.5216 650.6217,-684.0831 659.2426,-690.2419 661.2016,-683.5216"/>
</g>
<!-- 14 -->
<g id="node15" class="node">
<title>14</title>
<path fill="none" stroke="#a7d856" stroke-width="2" d="M856.5864,-540C856.5864,-540 826.5864,-540 826.5864,-540 820.5864,-540 814.5864,-534 814.5864,-528 814.5864,-528 814.5864,-516 814.5864,-516 814.5864,-510 820.5864,-504 826.5864,-504 826.5864,-504 856.5864,-504 856.5864,-504 862.5864,-504 868.5864,-510 868.5864,-516 868.5864,-516 868.5864,-528 868.5864,-528 868.5864,-534 862.5864,-540 856.5864,-540"/>
<text text-anchor="middle" x="841.5864" y="-519.5" font-family="sans" font-size="10.00" fill="#000000">cp_bai</text>
</g>
<!-- 7&#45;&gt;14 -->
<g id="edge31" class="edge">
<title>7&#45;&gt;14</title>
<path fill="none" stroke="#c0c0c0" stroke-width="2" d="M836.0877,-719.9555C837.1311,-682.3938 839.5433,-595.5541 840.7973,-550.4103"/>
<polygon fill="#c0c0c0" stroke="#c0c0c0" stroke-width="2" points="844.3033,-550.2384 841.0824,-540.1451 837.306,-550.044 844.3033,-550.2384"/>
</g>
<!-- 7&#45;&gt;16 -->
<g id="edge34" class="edge">
<title>7&#45;&gt;16</title>
<path fill="none" stroke="#c0c0c0" stroke-width="2" d="M909.2608,-719.9427C956.2577,-707.7783 1009.7778,-692.4628 1017.5864,-684 1045.3094,-653.9543 1036.5864,-634.8816 1036.5864,-594 1036.5864,-594 1036.5864,-594 1036.5864,-522 1036.5864,-480.8829 1049.5275,-434.7926 1059.2016,-406.082"/>
<polygon fill="#c0c0c0" stroke="#c0c0c0" stroke-width="2" points="1062.6132,-406.9269 1062.588,-396.3321 1056.0007,-404.6302 1062.6132,-406.9269"/>
</g>
<!-- 27 -->
<g id="node28" class="node">
<title>27</title>
<path fill="none" stroke="#56d892" stroke-width="2" d="M974.5864,-612C974.5864,-612 914.5864,-612 914.5864,-612 908.5864,-612 902.5864,-606 902.5864,-600 902.5864,-600 902.5864,-588 902.5864,-588 902.5864,-582 908.5864,-576 914.5864,-576 914.5864,-576 974.5864,-576 974.5864,-576 980.5864,-576 986.5864,-582 986.5864,-588 986.5864,-588 986.5864,-600 986.5864,-600 986.5864,-606 980.5864,-612 974.5864,-612"/>
<text text-anchor="middle" x="944.5864" y="-591.5" font-family="sans" font-size="10.00" fill="#000000">dotnet_pisces</text>
</g>
<!-- 7&#45;&gt;27 -->
<g id="edge50" class="edge">
<title>7&#45;&gt;27</title>
<path fill="none" stroke="#c0c0c0" stroke-width="2" d="M842.3794,-719.892C850.076,-700.8104 863.8845,-670.4666 881.5864,-648 890.0283,-637.2859 900.8441,-627.11 911.1229,-618.5399"/>
<polygon fill="#c0c0c0" stroke="#c0c0c0" stroke-width="2" points="913.6072,-621.0328 919.1954,-612.0315 909.2137,-615.5833 913.6072,-621.0328"/>
</g>
<!-- 7&#45;&gt;28 -->
<g id="edge54" class="edge">
<title>7&#45;&gt;28</title>
<path fill="none" stroke="#c0c0c0" stroke-width="2" d="M910.3256,-720.0171C955.4591,-709.7297 1013.408,-696.7975 1061.9864,-686.1661"/>
<polygon fill="#c0c0c0" stroke="#c0c0c0" stroke-width="2" points="1062.8635,-689.5571 1071.8859,-684.0032 1061.3693,-682.7185 1062.8635,-689.5571"/>
</g>
<!-- 8&#45;&gt;2 -->
<g id="edge17" class="edge">
<title>8&#45;&gt;2</title>
<path fill="none" stroke="#c0c0c0" stroke-width="2" d="M394.3616,-647.8314C382.4237,-638.8779 367.8609,-627.9558 354.9804,-618.2955"/>
<polygon fill="#c0c0c0" stroke="#c0c0c0" stroke-width="2" points="356.9036,-615.3629 346.8035,-612.1628 352.7035,-620.9629 356.9036,-615.3629"/>
</g>
<!-- 9 -->
<g id="node10" class="node">
<title>9</title>
<path fill="none" stroke="#d87556" stroke-width="2" d="M82.0864,-684C82.0864,-684 43.0864,-684 43.0864,-684 37.0864,-684 31.0864,-678 31.0864,-672 31.0864,-672 31.0864,-660 31.0864,-660 31.0864,-654 37.0864,-648 43.0864,-648 43.0864,-648 82.0864,-648 82.0864,-648 88.0864,-648 94.0864,-654 94.0864,-660 94.0864,-660 94.0864,-672 94.0864,-672 94.0864,-678 88.0864,-684 82.0864,-684"/>
<text text-anchor="middle" x="62.5864" y="-663.5" font-family="sans" font-size="10.00" fill="#000000">qc_fastqc</text>
</g>
<!-- 9&#45;&gt;2 -->
<g id="edge13" class="edge">
<title>9&#45;&gt;2</title>
<path fill="none" stroke="#c0c0c0" stroke-width="2" d="M94.1574,-651.4977C97.3147,-650.2416 100.4952,-649.051 103.5864,-648 162.5759,-627.9447 232.8344,-611.9597 277.5681,-602.7324"/>
<polygon fill="#c0c0c0" stroke="#c0c0c0" stroke-width="2" points="278.44,-606.1268 287.5397,-600.7004 277.0422,-599.2677 278.44,-606.1268"/>
</g>
<!-- 10&#45;&gt;2 -->
<g id="edge18" class="edge">
<title>10&#45;&gt;2</title>
<path fill="none" stroke="#c0c0c0" stroke-width="2" d="M521.8068,-647.9243C473.6508,-634.8896 409.9447,-617.6458 367.6828,-606.2065"/>
<polygon fill="#c0c0c0" stroke="#c0c0c0" stroke-width="2" points="368.5182,-602.8068 357.9511,-603.5724 366.6892,-609.5636 368.5182,-602.8068"/>
</g>
<!-- 11&#45;&gt;2 -->
<g id="edge12" class="edge">
<title>11&#45;&gt;2</title>
<path fill="none" stroke="#c0c0c0" stroke-width="2" d="M250.9718,-719.7623C265.2045,-694.7682 290.8727,-649.6924 307.3021,-620.8409"/>
<polygon fill="#c0c0c0" stroke="#c0c0c0" stroke-width="2" points="310.3784,-622.5114 312.2854,-612.0896 304.2955,-619.0475 310.3784,-622.5114"/>
</g>
<!-- 12 -->
<g id="node13" class="node">
<title>12</title>
<path fill="none" stroke="#56d88a" stroke-width="2" d="M244.5864,-684C244.5864,-684 124.5864,-684 124.5864,-684 118.5864,-684 112.5864,-678 112.5864,-672 112.5864,-672 112.5864,-660 112.5864,-660 112.5864,-654 118.5864,-648 124.5864,-648 124.5864,-648 244.5864,-648 244.5864,-648 250.5864,-648 256.5864,-654 256.5864,-660 256.5864,-660 256.5864,-672 256.5864,-672 256.5864,-678 250.5864,-684 244.5864,-684"/>
<text text-anchor="middle" x="184.5864" y="-663.5" font-family="sans" font-size="10.00" fill="#000000">sample_order_for_multiqc</text>
</g>
<!-- 12&#45;&gt;2 -->
<g id="edge14" class="edge">
<title>12&#45;&gt;2</title>
<path fill="none" stroke="#c0c0c0" stroke-width="2" d="M219.4097,-647.8314C237.3876,-638.4516 259.5067,-626.9112 278.6481,-616.9244"/>
<polygon fill="#c0c0c0" stroke="#c0c0c0" stroke-width="2" points="280.5275,-619.8916 287.7744,-612.1628 277.2895,-613.6855 280.5275,-619.8916"/>
</g>
<!-- 13&#45;&gt;0 -->
<g id="edge7" class="edge">
<title>13&#45;&gt;0</title>
<path fill="none" stroke="#c0c0c0" stroke-width="2" d="M1372.7216,-575.8374C1370.0855,-548.55 1365.5864,-495.3383 1365.5864,-450 1365.5864,-450 1365.5864,-450 1365.5864,-162 1365.5864,-96.3951 1308.8307,-97.9737 1248.5864,-72 1194.9052,-48.8558 1024.0956,-29.3908 947.9001,-21.62"/>
<polygon fill="#c0c0c0" stroke="#c0c0c0" stroke-width="2" points="948.0992,-18.1224 937.7986,-20.6019 947.3972,-25.0871 948.0992,-18.1224"/>
</g>
<!-- 14&#45;&gt;0 -->
<g id="edge4" class="edge">
<title>14&#45;&gt;0</title>
<path fill="none" stroke="#c0c0c0" stroke-width="2" d="M814.4515,-518.3523C723.8697,-505.4274 437.5864,-458.2319 437.5864,-378 437.5864,-378 437.5864,-378 437.5864,-162 437.5864,-121.1184 426.4122,-99.583 456.5864,-72 487.1768,-44.0366 770.0431,-25.758 873.1832,-19.9743"/>
<polygon fill="#c0c0c0" stroke="#c0c0c0" stroke-width="2" points="873.6474,-23.4541 883.4389,-19.4073 873.2609,-16.4647 873.6474,-23.4541"/>
</g>
<!-- 15 -->
<g id="node16" class="node">
<title>15</title>
<path fill="none" stroke="#56d873" stroke-width="2" d="M1182.5864,-324C1182.5864,-324 1104.5864,-324 1104.5864,-324 1098.5864,-324 1092.5864,-318 1092.5864,-312 1092.5864,-312 1092.5864,-300 1092.5864,-300 1092.5864,-294 1098.5864,-288 1104.5864,-288 1104.5864,-288 1182.5864,-288 1182.5864,-288 1188.5864,-288 1194.5864,-294 1194.5864,-300 1194.5864,-300 1194.5864,-312 1194.5864,-312 1194.5864,-318 1188.5864,-324 1182.5864,-324"/>
<text text-anchor="middle" x="1143.5864" y="-303.5" font-family="sans" font-size="10.00" fill="#000000">cp_arrbia_fusions</text>
</g>
<!-- 15&#45;&gt;0 -->
<g id="edge1" class="edge">
<title>15&#45;&gt;0</title>
<path fill="none" stroke="#c0c0c0" stroke-width="2" d="M1144.3276,-287.7171C1144.3478,-268.7607 1142.2365,-238.7677 1130.5864,-216 1088.5216,-133.7925 997.1007,-69.43 946.3481,-38.3697"/>
<polygon fill="#c0c0c0" stroke="#c0c0c0" stroke-width="2" points="948.0374,-35.3014 937.6657,-33.1385 944.4249,-41.2972 948.0374,-35.3014"/>
</g>
<!-- 16&#45;&gt;15 -->
<g id="edge32" class="edge">
<title>16&#45;&gt;15</title>
<path fill="none" stroke="#c0c0c0" stroke-width="2" d="M1088.2598,-359.8314C1097.1113,-351.219 1107.8351,-340.7851 1117.4759,-331.4048"/>
<polygon fill="#c0c0c0" stroke="#c0c0c0" stroke-width="2" points="1120.1926,-333.645 1124.9191,-324.1628 1115.311,-328.6279 1120.1926,-333.645"/>
</g>
<!-- 16&#45;&gt;18 -->
<g id="edge37" class="edge">
<title>16&#45;&gt;18</title>
<path fill="none" stroke="#c0c0c0" stroke-width="2" d="M1040.8194,-359.8314C1026.3731,-350.7074 1008.6899,-339.539 993.1825,-329.7449"/>
<polygon fill="#c0c0c0" stroke="#c0c0c0" stroke-width="2" points="994.6681,-326.5436 984.3442,-324.1628 990.9302,-332.462 994.6681,-326.5436"/>
</g>
<!-- 16&#45;&gt;33 -->
<g id="edge60" class="edge">
<title>16&#45;&gt;33</title>
<path fill="none" stroke="#c0c0c0" stroke-width="2" d="M1065.1188,-359.8347C1060.1832,-341.235 1051.3504,-311.7647 1039.5864,-288 1022.4143,-253.3101 1018.0088,-243.3182 990.5864,-216 979.1927,-204.6495 965.0976,-194.2198 951.9282,-185.6158"/>
<polygon fill="#c0c0c0" stroke="#c0c0c0" stroke-width="2" points="953.7645,-182.6358 943.4454,-180.234 950.0145,-188.5466 953.7645,-182.6358"/>
</g>
<!-- 17 -->
<g id="node18" class="node">
<title>17</title>
<path fill="none" stroke="#bed856" stroke-width="2" d="M1109.0864,-252C1109.0864,-252 1050.0864,-252 1050.0864,-252 1044.0864,-252 1038.0864,-246 1038.0864,-240 1038.0864,-240 1038.0864,-228 1038.0864,-228 1038.0864,-222 1044.0864,-216 1050.0864,-216 1050.0864,-216 1109.0864,-216 1109.0864,-216 1115.0864,-216 1121.0864,-222 1121.0864,-228 1121.0864,-228 1121.0864,-240 1121.0864,-240 1121.0864,-246 1115.0864,-252 1109.0864,-252"/>
<text text-anchor="middle" x="1079.5864" y="-231.5" font-family="sans" font-size="10.00" fill="#000000">cp_arrbia_pdf</text>
</g>
<!-- 17&#45;&gt;0 -->
<g id="edge2" class="edge">
<title>17&#45;&gt;0</title>
<path fill="none" stroke="#c0c0c0" stroke-width="2" d="M1065.4683,-215.9555C1035.5827,-177.7585 965.8264,-88.6025 931.051,-44.1559"/>
<polygon fill="#c0c0c0" stroke="#c0c0c0" stroke-width="2" points="933.702,-41.8642 924.7833,-36.1451 928.1889,-46.1777 933.702,-41.8642"/>
</g>
<!-- 18&#45;&gt;17 -->
<g id="edge35" class="edge">
<title>18&#45;&gt;17</title>
<path fill="none" stroke="#c0c0c0" stroke-width="2" d="M986.8769,-287.8314C1002.8841,-278.5368 1022.545,-267.1208 1039.6359,-257.1971"/>
<polygon fill="#c0c0c0" stroke="#c0c0c0" stroke-width="2" points="1041.4156,-260.211 1048.306,-252.1628 1037.9006,-254.1575 1041.4156,-260.211"/>
</g>
<!-- 34 -->
<g id="node35" class="node">
<title>34</title>
<path fill="none" stroke="#56c1d8" stroke-width="2" d="M969.5864,-252C969.5864,-252 919.5864,-252 919.5864,-252 913.5864,-252 907.5864,-246 907.5864,-240 907.5864,-240 907.5864,-228 907.5864,-228 907.5864,-222 913.5864,-216 919.5864,-216 919.5864,-216 969.5864,-216 969.5864,-216 975.5864,-216 981.5864,-222 981.5864,-228 981.5864,-228 981.5864,-240 981.5864,-240 981.5864,-246 975.5864,-252 969.5864,-252"/>
<text text-anchor="middle" x="944.5864" y="-231.5" font-family="sans" font-size="10.00" fill="#000000">convert_pdf</text>
</g>
<!-- 18&#45;&gt;34 -->
<g id="edge63" class="edge">
<title>18&#45;&gt;34</title>
<path fill="none" stroke="#c0c0c0" stroke-width="2" d="M952.8107,-287.8314C951.6342,-280.131 950.2353,-270.9743 948.9279,-262.4166"/>
<polygon fill="#c0c0c0" stroke="#c0c0c0" stroke-width="2" points="952.3698,-261.7699 947.3996,-252.4133 945.4501,-262.8272 952.3698,-261.7699"/>
</g>
<!-- 19 -->
<g id="node20" class="node">
<title>19</title>
<path fill="none" stroke="#5682d8" stroke-width="2" d="M814.5864,-180C814.5864,-180 784.5864,-180 784.5864,-180 778.5864,-180 772.5864,-174 772.5864,-168 772.5864,-168 772.5864,-156 772.5864,-156 772.5864,-150 778.5864,-144 784.5864,-144 784.5864,-144 814.5864,-144 814.5864,-144 820.5864,-144 826.5864,-150 826.5864,-156 826.5864,-156 826.5864,-168 826.5864,-168 826.5864,-174 820.5864,-180 814.5864,-180"/>
<text text-anchor="middle" x="799.5864" y="-159.5" font-family="sans" font-size="10.00" fill="#000000">cp_vcf</text>
</g>
<!-- 19&#45;&gt;0 -->
<g id="edge8" class="edge">
<title>19&#45;&gt;0</title>
<path fill="none" stroke="#c0c0c0" stroke-width="2" d="M813.6447,-143.7623C833.0777,-118.5518 868.2597,-72.9103 890.4714,-44.0952"/>
<polygon fill="#c0c0c0" stroke="#c0c0c0" stroke-width="2" points="893.3093,-46.1465 896.6424,-36.0896 887.7652,-41.8729 893.3093,-46.1465"/>
</g>
<!-- 20 -->
<g id="node21" class="node">
<title>20</title>
<path fill="none" stroke="#d6d856" stroke-width="2" d="M839.0864,-252C839.0864,-252 726.0864,-252 726.0864,-252 720.0864,-252 714.0864,-246 714.0864,-240 714.0864,-240 714.0864,-228 714.0864,-228 714.0864,-222 720.0864,-216 726.0864,-216 726.0864,-216 839.0864,-216 839.0864,-216 845.0864,-216 851.0864,-222 851.0864,-228 851.0864,-228 851.0864,-240 851.0864,-240 851.0864,-246 845.0864,-252 839.0864,-252"/>
<text text-anchor="middle" x="782.5864" y="-231.5" font-family="sans" font-size="10.00" fill="#000000">snv_indels_bcftools_sort</text>
</g>
<!-- 20&#45;&gt;19 -->
<g id="edge38" class="edge">
<title>20&#45;&gt;19</title>
<path fill="none" stroke="#c0c0c0" stroke-width="2" d="M786.8763,-215.8314C788.6944,-208.131 790.8564,-198.9743 792.877,-190.4166"/>
<polygon fill="#c0c0c0" stroke="#c0c0c0" stroke-width="2" points="796.3472,-190.95 795.2389,-180.4133 789.5345,-189.3414 796.3472,-190.95"/>
</g>
<!-- 30 -->
<g id="node31" class="node">
<title>30</title>
<path fill="none" stroke="#d87d56" stroke-width="2" d="M741.5864,-180C741.5864,-180 667.5864,-180 667.5864,-180 661.5864,-180 655.5864,-174 655.5864,-168 655.5864,-168 655.5864,-156 655.5864,-156 655.5864,-150 661.5864,-144 667.5864,-144 667.5864,-144 741.5864,-144 741.5864,-144 747.5864,-144 753.5864,-150 753.5864,-156 753.5864,-156 753.5864,-168 753.5864,-168 753.5864,-174 747.5864,-180 741.5864,-180"/>
<text text-anchor="middle" x="704.5864" y="-159.5" font-family="sans" font-size="10.00" fill="#000000">snv_indels_tabix</text>
</g>
<!-- 20&#45;&gt;30 -->
<g id="edge56" class="edge">
<title>20&#45;&gt;30</title>
<path fill="none" stroke="#c0c0c0" stroke-width="2" d="M756.9514,-215.8314C746.8596,-207.2848 735.4769,-196.9443 725.8471,-187.6198"/>
<polygon fill="#c0c0c0" stroke="#c0c0c0" stroke-width="2" points="728.1301,-184.9551 718.5581,-180.4133 723.2085,-189.933 728.1301,-184.9551"/>
</g>
<!-- 20&#45;&gt;33 -->
<g id="edge62" class="edge">
<title>20&#45;&gt;33</title>
<path fill="none" stroke="#c0c0c0" stroke-width="2" d="M814.8862,-215.8314C831.4098,-206.5368 851.705,-195.1208 869.3471,-185.1971"/>
<polygon fill="#c0c0c0" stroke="#c0c0c0" stroke-width="2" points="871.2971,-188.116 878.297,-180.1628 867.8653,-182.015 871.2971,-188.116"/>
</g>
<!-- 21 -->
<g id="node22" class="node">
<title>21</title>
<path fill="none" stroke="#5663d8" stroke-width="2" d="M704.0864,-324C704.0864,-324 591.0864,-324 591.0864,-324 585.0864,-324 579.0864,-318 579.0864,-312 579.0864,-312 579.0864,-300 579.0864,-300 579.0864,-294 585.0864,-288 591.0864,-288 591.0864,-288 704.0864,-288 704.0864,-288 710.0864,-288 716.0864,-294 716.0864,-300 716.0864,-300 716.0864,-312 716.0864,-312 716.0864,-318 710.0864,-324 704.0864,-324"/>
<text text-anchor="middle" x="647.5864" y="-303.5" font-family="sans" font-size="10.00" fill="#000000">snv_indels_vt_normalize</text>
</g>
<!-- 21&#45;&gt;20 -->
<g id="edge39" class="edge">
<title>21&#45;&gt;20</title>
<path fill="none" stroke="#c0c0c0" stroke-width="2" d="M681.6526,-287.8314C699.2397,-278.4516 720.878,-266.9112 739.6033,-256.9244"/>
<polygon fill="#c0c0c0" stroke="#c0c0c0" stroke-width="2" points="741.3547,-259.957 748.5311,-252.1628 738.0605,-253.7805 741.3547,-259.957"/>
</g>
<!-- 21&#45;&gt;30 -->
<g id="edge55" class="edge">
<title>21&#45;&gt;30</title>
<path fill="none" stroke="#c0c0c0" stroke-width="2" d="M650.8147,-287.9045C654.4878,-269.3602 661.3382,-239.9335 671.5864,-216 675.5247,-206.8027 680.8367,-197.3159 686.0469,-188.9093"/>
<polygon fill="#c0c0c0" stroke="#c0c0c0" stroke-width="2" points="689.1324,-190.5817 691.5906,-180.276 683.2422,-186.7994 689.1324,-190.5817"/>
</g>
<!-- 22 -->
<g id="node23" class="node">
<title>22</title>
<path fill="none" stroke="#d86e56" stroke-width="2" d="M655.0864,-396C655.0864,-396 534.0864,-396 534.0864,-396 528.0864,-396 522.0864,-390 522.0864,-384 522.0864,-384 522.0864,-372 522.0864,-372 522.0864,-366 528.0864,-360 534.0864,-360 534.0864,-360 655.0864,-360 655.0864,-360 661.0864,-360 667.0864,-366 667.0864,-372 667.0864,-372 667.0864,-384 667.0864,-384 667.0864,-390 661.0864,-396 655.0864,-396"/>
<text text-anchor="middle" x="594.5864" y="-375.5" font-family="sans" font-size="10.00" fill="#000000">snv_indels_vt_decompose</text>
</g>
<!-- 22&#45;&gt;21 -->
<g id="edge41" class="edge">
<title>22&#45;&gt;21</title>
<path fill="none" stroke="#c0c0c0" stroke-width="2" d="M607.9606,-359.8314C614.0027,-351.6232 621.2627,-341.7606 627.9085,-332.7323"/>
<polygon fill="#c0c0c0" stroke="#c0c0c0" stroke-width="2" points="630.9227,-334.5415 634.0322,-324.4133 625.2853,-330.3918 630.9227,-334.5415"/>
</g>
<!-- 23 -->
<g id="node24" class="node">
<title>23</title>
<path fill="none" stroke="#56d8c9" stroke-width="2" d="M773.5864,-468C773.5864,-468 697.5864,-468 697.5864,-468 691.5864,-468 685.5864,-462 685.5864,-456 685.5864,-456 685.5864,-444 685.5864,-444 685.5864,-438 691.5864,-432 697.5864,-432 697.5864,-432 773.5864,-432 773.5864,-432 779.5864,-432 785.5864,-438 785.5864,-444 785.5864,-444 785.5864,-456 785.5864,-456 785.5864,-462 779.5864,-468 773.5864,-468"/>
<text text-anchor="middle" x="735.5864" y="-447.5" font-family="sans" font-size="10.00" fill="#000000">snv_indels_bgzip</text>
</g>
<!-- 23&#45;&gt;22 -->
<g id="edge42" class="edge">
<title>23&#45;&gt;22</title>
<path fill="none" stroke="#c0c0c0" stroke-width="2" d="M700.0062,-431.8314C681.5539,-422.4089 658.8319,-410.8062 639.2135,-400.7883"/>
<polygon fill="#c0c0c0" stroke="#c0c0c0" stroke-width="2" points="640.6531,-397.5935 630.1553,-396.1628 637.4696,-403.8278 640.6531,-397.5935"/>
</g>
<!-- 24 -->
<g id="node25" class="node">
<title>24</title>
<path fill="none" stroke="#56d8c1" stroke-width="2" d="M774.0864,-396C774.0864,-396 697.0864,-396 697.0864,-396 691.0864,-396 685.0864,-390 685.0864,-384 685.0864,-384 685.0864,-372 685.0864,-372 685.0864,-366 691.0864,-360 697.0864,-360 697.0864,-360 774.0864,-360 774.0864,-360 780.0864,-360 786.0864,-366 786.0864,-372 786.0864,-372 786.0864,-384 786.0864,-384 786.0864,-390 780.0864,-396 774.0864,-396"/>
<text text-anchor="middle" x="735.5864" y="-375.5" font-family="sans" font-size="10.00" fill="#000000">snv_indels_fix_af</text>
</g>
<!-- 23&#45;&gt;24 -->
<g id="edge46" class="edge">
<title>23&#45;&gt;24</title>
<path fill="none" stroke="#c0c0c0" stroke-width="2" d="M729.634,-431.8314C728.8836,-424.131 728.6627,-414.9743 728.9713,-406.4166"/>
<polygon fill="#c0c0c0" stroke="#c0c0c0" stroke-width="2" points="732.4657,-406.6161 729.6104,-396.4133 725.4799,-406.1697 732.4657,-406.6161"/>
</g>
<!-- 25 -->
<g id="node26" class="node">
<title>25</title>
<path fill="none" stroke="#56d8a2" stroke-width="2" d="M603.5864,-108C603.5864,-108 477.5864,-108 477.5864,-108 471.5864,-108 465.5864,-102 465.5864,-96 465.5864,-96 465.5864,-84 465.5864,-84 465.5864,-78 471.5864,-72 477.5864,-72 477.5864,-72 603.5864,-72 603.5864,-72 609.5864,-72 615.5864,-78 615.5864,-84 615.5864,-84 615.5864,-96 615.5864,-96 615.5864,-102 609.5864,-108 603.5864,-108"/>
<text text-anchor="middle" x="540.5864" y="-87.5" font-family="sans" font-size="10.00" fill="#000000">snv_indels_bcftools_concat</text>
</g>
<!-- 23&#45;&gt;25 -->
<g id="edge47" class="edge">
<title>23&#45;&gt;25</title>
<path fill="none" stroke="#c0c0c0" stroke-width="2" d="M685.5372,-444.5352C625.241,-436.5583 529.1906,-420.0148 503.5864,-396 473.0318,-367.342 475.5864,-347.8911 475.5864,-306 475.5864,-306 475.5864,-306 475.5864,-234 475.5864,-190.6742 497.8789,-144.6965 516.5941,-116.6604"/>
<polygon fill="#c0c0c0" stroke="#c0c0c0" stroke-width="2" points="519.6401,-118.4124 522.5119,-108.2143 513.9072,-114.3956 519.6401,-118.4124"/>
</g>
<!-- 23&#45;&gt;30 -->
<g id="edge57" class="edge">
<title>23&#45;&gt;30</title>
<path fill="none" stroke="#c0c0c0" stroke-width="2" d="M764.0184,-431.9601C775.8092,-422.7801 788.2069,-410.4872 794.5864,-396 801.0347,-381.3569 800.0332,-375.0443 794.5864,-360 773.316,-301.25 725.8569,-310.75 704.5864,-252 697.4276,-232.227 697.796,-208.3694 699.7556,-190.187"/>
<polygon fill="#c0c0c0" stroke="#c0c0c0" stroke-width="2" points="703.2341,-190.578 701.0485,-180.2111 696.2922,-189.6783 703.2341,-190.578"/>
</g>
<!-- 24&#45;&gt;23 -->
<g id="edge44" class="edge">
<title>24&#45;&gt;23</title>
<path fill="none" stroke="#c0c0c0" stroke-width="2" d="M741.5624,-396.4133C742.2936,-404.0593 742.5067,-413.1084 742.2019,-421.5726"/>
<polygon fill="#c0c0c0" stroke="#c0c0c0" stroke-width="2" points="738.6912,-421.6264 741.5388,-431.8314 745.6766,-422.078 738.6912,-421.6264"/>
</g>
<!-- 25&#45;&gt;23 -->
<g id="edge45" class="edge">
<title>25&#45;&gt;23</title>
<path fill="none" stroke="#c0c0c0" stroke-width="2" d="M534.3586,-108.2143C520.9652,-134.7135 493.5864,-185.9852 493.5864,-234 493.5864,-306 493.5864,-306 493.5864,-306 493.5864,-347.8911 491.0318,-367.342 521.5864,-396 543.9808,-417.0043 620.2663,-432.2931 675.4542,-441.1335"/>
<polygon fill="#c0c0c0" stroke="#c0c0c0" stroke-width="2" points="675.0741,-444.6166 685.4957,-442.7091 676.1592,-437.7012 675.0741,-444.6166"/>
</g>
<!-- 26 -->
<g id="node27" class="node">
<title>26</title>
<path fill="none" stroke="#56c9d8" stroke-width="2" d="M981.5864,-540C981.5864,-540 901.5864,-540 901.5864,-540 895.5864,-540 889.5864,-534 889.5864,-528 889.5864,-528 889.5864,-516 889.5864,-516 889.5864,-510 895.5864,-504 901.5864,-504 901.5864,-504 981.5864,-504 981.5864,-504 987.5864,-504 993.5864,-510 993.5864,-516 993.5864,-516 993.5864,-528 993.5864,-528 993.5864,-534 987.5864,-540 981.5864,-540"/>
<text text-anchor="middle" x="941.5864" y="-519.5" font-family="sans" font-size="10.00" fill="#000000">bcftools_reheader</text>
</g>
<!-- 26&#45;&gt;23 -->
<g id="edge43" class="edge">
<title>26&#45;&gt;23</title>
<path fill="none" stroke="#c0c0c0" stroke-width="2" d="M889.8698,-503.9243C861.1558,-493.8883 825.3028,-481.3572 795.3875,-470.9013"/>
<polygon fill="#c0c0c0" stroke="#c0c0c0" stroke-width="2" points="796.4948,-467.5808 785.8999,-467.5853 794.1851,-474.1888 796.4948,-467.5808"/>
</g>
<!-- 27&#45;&gt;26 -->
<g id="edge49" class="edge">
<title>27&#45;&gt;26</title>
<path fill="none" stroke="#c0c0c0" stroke-width="2" d="M943.8294,-575.8314C943.5086,-568.131 943.127,-558.9743 942.7705,-550.4166"/>
<polygon fill="#c0c0c0" stroke="#c0c0c0" stroke-width="2" points="946.267,-550.2589 942.3537,-540.4133 939.2731,-550.5503 946.267,-550.2589"/>
</g>
<!-- 28&#45;&gt;7 -->
<g id="edge24" class="edge">
<title>28&#45;&gt;7</title>
<path fill="none" stroke="#c0c0c0" stroke-width="2" d="M1083.7567,-684.0036C1034.8243,-695.1565 970.8573,-709.4118 920.0963,-720.4744"/>
<polygon fill="#c0c0c0" stroke="#c0c0c0" stroke-width="2" points="919.1561,-717.097 910.1285,-722.6425 920.644,-723.9371 919.1561,-717.097"/>
</g>
<!-- 28&#45;&gt;27 -->
<g id="edge52" class="edge">
<title>28&#45;&gt;27</title>
<path fill="none" stroke="#c0c0c0" stroke-width="2" d="M1104.8614,-647.9243C1071.7615,-636.7879 1029.5298,-622.5791 996.7273,-611.5427"/>
<polygon fill="#c0c0c0" stroke="#c0c0c0" stroke-width="2" points="997.4645,-608.098 986.8704,-608.2264 995.2323,-614.7326 997.4645,-608.098"/>
</g>
<!-- 29 -->
<g id="node30" class="node">
<title>29</title>
<path fill="none" stroke="#56d8a2" stroke-width="2" d="M996.5864,-684C996.5864,-684 902.5864,-684 902.5864,-684 896.5864,-684 890.5864,-678 890.5864,-672 890.5864,-672 890.5864,-660 890.5864,-660 890.5864,-654 896.5864,-648 902.5864,-648 902.5864,-648 996.5864,-648 996.5864,-648 1002.5864,-648 1008.5864,-654 1008.5864,-660 1008.5864,-660 1008.5864,-672 1008.5864,-672 1008.5864,-678 1002.5864,-684 996.5864,-684"/>
<text text-anchor="middle" x="949.5864" y="-663.5" font-family="sans" font-size="10.00" fill="#000000">snv_indels_bed_split</text>
</g>
<!-- 29&#45;&gt;27 -->
<g id="edge51" class="edge">
<title>29&#45;&gt;27</title>
<path fill="none" stroke="#c0c0c0" stroke-width="2" d="M948.3247,-647.8314C947.79,-640.131 947.1541,-630.9743 946.5598,-622.4166"/>
<polygon fill="#c0c0c0" stroke="#c0c0c0" stroke-width="2" points="950.0496,-622.1467 945.8651,-612.4133 943.0664,-622.6317 950.0496,-622.1467"/>
</g>
<!-- 30&#45;&gt;20 -->
<g id="edge40" class="edge">
<title>30&#45;&gt;20</title>
<path fill="none" stroke="#c0c0c0" stroke-width="2" d="M730.2147,-180.1628C740.3834,-188.7744 751.8638,-199.2081 761.5412,-208.5888"/>
<polygon fill="#c0c0c0" stroke="#c0c0c0" stroke-width="2" points="759.2874,-211.2827 768.8561,-215.8314 764.2125,-206.3084 759.2874,-211.2827"/>
</g>
<!-- 30&#45;&gt;25 -->
<g id="edge48" class="edge">
<title>30&#45;&gt;25</title>
<path fill="none" stroke="#c0c0c0" stroke-width="2" d="M663.2023,-143.8314C641.2683,-134.2018 614.1472,-122.295 590.9934,-112.1299"/>
<polygon fill="#c0c0c0" stroke="#c0c0c0" stroke-width="2" points="592.2364,-108.8532 581.673,-108.038 589.4224,-115.2627 592.2364,-108.8532"/>
</g>
<!-- 31 -->
<g id="node32" class="node">
<title>31</title>
<path fill="none" stroke="#56d8b1" stroke-width="2" d="M768.5864,-108C768.5864,-108 738.5864,-108 738.5864,-108 732.5864,-108 726.5864,-102 726.5864,-96 726.5864,-96 726.5864,-84 726.5864,-84 726.5864,-78 732.5864,-72 738.5864,-72 738.5864,-72 768.5864,-72 768.5864,-72 774.5864,-72 780.5864,-78 780.5864,-84 780.5864,-84 780.5864,-96 780.5864,-96 780.5864,-102 774.5864,-108 768.5864,-108"/>
<text text-anchor="middle" x="753.5864" y="-87.5" font-family="sans" font-size="10.00" fill="#000000">cp_tbi</text>
</g>
<!-- 30&#45;&gt;31 -->
<g id="edge58" class="edge">
<title>30&#45;&gt;31</title>
<path fill="none" stroke="#c0c0c0" stroke-width="2" d="M716.9512,-143.8314C722.5373,-135.6232 729.2494,-125.7606 735.3936,-116.7323"/>
<polygon fill="#c0c0c0" stroke="#c0c0c0" stroke-width="2" points="738.3224,-118.6496 741.0552,-108.4133 732.5354,-114.7112 738.3224,-118.6496"/>
</g>
<!-- 31&#45;&gt;0 -->
<g id="edge5" class="edge">
<title>31&#45;&gt;0</title>
<path fill="none" stroke="#c0c0c0" stroke-width="2" d="M780.9338,-77.4586C806.8234,-65.5856 845.8611,-47.683 874.3353,-34.6247"/>
<polygon fill="#c0c0c0" stroke="#c0c0c0" stroke-width="2" points="875.9218,-37.7477 883.5525,-30.3977 873.0038,-31.3849 875.9218,-37.7477"/>
</g>
<!-- 32 -->
<g id="node33" class="node">
<title>32</title>
<path fill="none" stroke="#56d8b9" stroke-width="2" d="M1227.5864,-108C1227.5864,-108 1189.5864,-108 1189.5864,-108 1183.5864,-108 1177.5864,-102 1177.5864,-96 1177.5864,-96 1177.5864,-84 1177.5864,-84 1177.5864,-78 1183.5864,-72 1189.5864,-72 1189.5864,-72 1227.5864,-72 1227.5864,-72 1233.5864,-72 1239.5864,-78 1239.5864,-84 1239.5864,-84 1239.5864,-96 1239.5864,-96 1239.5864,-102 1233.5864,-108 1227.5864,-108"/>
<text text-anchor="middle" x="1208.5864" y="-87.5" font-family="sans" font-size="10.00" fill="#000000">cp_config</text>
</g>
<!-- 32&#45;&gt;0 -->
<g id="edge6" class="edge">
<title>32&#45;&gt;0</title>
<path fill="none" stroke="#c0c0c0" stroke-width="2" d="M1177.3586,-76.7189C1172.7834,-75.0047 1168.0944,-73.3718 1163.5864,-72 1088.3721,-49.1124 997.7255,-32.2769 947.9187,-23.9181"/>
<polygon fill="#c0c0c0" stroke="#c0c0c0" stroke-width="2" points="948.3681,-20.445 937.9306,-22.264 947.2244,-27.3509 948.3681,-20.445"/>
</g>
<!-- 33&#45;&gt;0 -->
<g id="edge9" class="edge">
<title>33&#45;&gt;0</title>
<path fill="none" stroke="#c0c0c0" stroke-width="2" d="M910.5864,-143.7623C910.5864,-119.201 910.5864,-75.2474 910.5864,-46.3541"/>
<polygon fill="#c0c0c0" stroke="#c0c0c0" stroke-width="2" points="914.0865,-46.0896 910.5864,-36.0896 907.0865,-46.0897 914.0865,-46.0896"/>
</g>
<!-- 34&#45;&gt;33 -->
<g id="edge61" class="edge">
<title>34&#45;&gt;33</title>
<path fill="none" stroke="#c0c0c0" stroke-width="2" d="M936.0068,-215.8314C932.2506,-207.8771 927.7607,-198.369 923.6067,-189.5723"/>
<polygon fill="#c0c0c0" stroke="#c0c0c0" stroke-width="2" points="926.7166,-187.9612 919.2816,-180.4133 920.3868,-190.9503 926.7166,-187.9612"/>
</g>
</g>
</svg>
