<?xml version="1.0" encoding="UTF-8" standalone="no"?>
<!DOCTYPE svg PUBLIC "-//W3C//DTD SVG 1.1//EN"
 "http://www.w3.org/Graphics/SVG/1.1/DTD/svg11.dtd">
<!-- Generated by graphviz version 2.40.1 (0)
 -->
<!-- Title: snakemake_dag Pages: 1 -->
<svg width="1526pt" height="980pt"
 viewBox="0.00 0.00 1526.00 980.00" xmlns="http://www.w3.org/2000/svg" xmlns:xlink="http://www.w3.org/1999/xlink">
<g id="graph0" class="graph" transform="scale(1 1) rotate(0) translate(4 976)">
<title>snakemake_dag</title>
<polygon fill="#ffffff" stroke="transparent" points="-4,4 -4,-976 1522,-976 1522,4 -4,4"/>
<!-- 0 -->
<g id="node1" class="node">
<title>0</title>
<path fill="none" stroke="#8fd856" stroke-width="2" d="M774,-36C774,-36 744,-36 744,-36 738,-36 732,-30 732,-24 732,-24 732,-12 732,-12 732,-6 738,0 744,0 744,0 774,0 774,0 780,0 786,-6 786,-12 786,-12 786,-24 786,-24 786,-30 780,-36 774,-36"/>
<text text-anchor="middle" x="759" y="-15.5" font-family="sans" font-size="10.00" fill="#000000">all</text>
</g>
<!-- 1 -->
<g id="node2" class="node">
<title>1</title>
<path fill="none" stroke="#5673d8" stroke-width="2" d="M1084,-468C1084,-468 1038,-468 1038,-468 1032,-468 1026,-462 1026,-456 1026,-456 1026,-444 1026,-444 1026,-438 1032,-432 1038,-432 1038,-432 1084,-432 1084,-432 1090,-432 1096,-438 1096,-444 1096,-444 1096,-456 1096,-456 1096,-462 1090,-468 1084,-468"/>
<text text-anchor="middle" x="1061" y="-447.5" font-family="sans" font-size="10.00" fill="#000000">cp_multiqc</text>
</g>
<!-- 1&#45;&gt;0 -->
<g id="edge7" class="edge">
<title>1&#45;&gt;0</title>
<path fill="none" stroke="#c0c0c0" stroke-width="2" d="M1046.5744,-431.6392C1027.4249,-405.37 996,-354.8235 996,-306 996,-306 996,-306 996,-162 996,-69.685 863.0453,-34.8739 796.3001,-23.2146"/>
<polygon fill="#c0c0c0" stroke="#c0c0c0" stroke-width="2" points="796.6249,-19.7207 786.1869,-21.5368 795.4793,-26.6263 796.6249,-19.7207"/>
</g>
<!-- 2 -->
<g id="node3" class="node">
<title>2</title>
<path fill="none" stroke="#70d856" stroke-width="2" d="M1287,-612C1287,-612 1241,-612 1241,-612 1235,-612 1229,-606 1229,-600 1229,-600 1229,-588 1229,-588 1229,-582 1235,-576 1241,-576 1241,-576 1287,-576 1287,-576 1293,-576 1299,-582 1299,-588 1299,-588 1299,-600 1299,-600 1299,-606 1293,-612 1287,-612"/>
<text text-anchor="middle" x="1264" y="-591.5" font-family="sans" font-size="10.00" fill="#000000">qc_multiqc</text>
</g>
<!-- 2&#45;&gt;1 -->
<g id="edge9" class="edge">
<title>2&#45;&gt;1</title>
<path fill="none" stroke="#c0c0c0" stroke-width="2" d="M1238.2899,-575.7623C1201.835,-549.9026 1135.0754,-502.5461 1094.6969,-473.9032"/>
<polygon fill="#c0c0c0" stroke="#c0c0c0" stroke-width="2" points="1096.6827,-471.0207 1086.5013,-468.0896 1092.6326,-476.7301 1096.6827,-471.0207"/>
</g>
<!-- 3 -->
<g id="node4" class="node">
<title>3</title>
<path fill="none" stroke="#56d8c9" stroke-width="2" d="M1439.5,-684C1439.5,-684 1400.5,-684 1400.5,-684 1394.5,-684 1388.5,-678 1388.5,-672 1388.5,-672 1388.5,-660 1388.5,-660 1388.5,-654 1394.5,-648 1400.5,-648 1400.5,-648 1439.5,-648 1439.5,-648 1445.5,-648 1451.5,-654 1451.5,-660 1451.5,-660 1451.5,-672 1451.5,-672 1451.5,-678 1445.5,-684 1439.5,-684"/>
<text text-anchor="middle" x="1420" y="-663.5" font-family="sans" font-size="10.00" fill="#000000">qc_fastqc</text>
</g>
<!-- 3&#45;&gt;2 -->
<g id="edge10" class="edge">
<title>3&#45;&gt;2</title>
<path fill="none" stroke="#c0c0c0" stroke-width="2" d="M1388.4311,-651.4297C1365.3568,-640.7801 1333.7593,-626.1966 1308.1798,-614.3907"/>
<polygon fill="#c0c0c0" stroke="#c0c0c0" stroke-width="2" points="1309.6013,-611.192 1299.055,-610.1792 1306.6679,-617.5477 1309.6013,-611.192"/>
</g>
<!-- 4 -->
<g id="node5" class="node">
<title>4</title>
<path fill="none" stroke="#5692d8" stroke-width="2" d="M1166,-684C1166,-684 1022,-684 1022,-684 1016,-684 1010,-678 1010,-672 1010,-672 1010,-660 1010,-660 1010,-654 1016,-648 1022,-648 1022,-648 1166,-648 1166,-648 1172,-648 1178,-654 1178,-660 1178,-660 1178,-672 1178,-672 1178,-678 1172,-684 1166,-684"/>
<text text-anchor="middle" x="1094" y="-663.5" font-family="sans" font-size="10.00" fill="#000000">qc_rseqc_gene_body_coverage</text>
</g>
<!-- 4&#45;&gt;2 -->
<g id="edge15" class="edge">
<title>4&#45;&gt;2</title>
<path fill="none" stroke="#c0c0c0" stroke-width="2" d="M1136.8982,-647.8314C1162.1045,-637.1558 1193.9192,-623.6813 1219.4126,-612.8841"/>
<polygon fill="#c0c0c0" stroke="#c0c0c0" stroke-width="2" points="1221.0036,-616.0113 1228.8468,-608.8884 1218.2736,-609.5655 1221.0036,-616.0113"/>
</g>
<!-- 5 -->
<g id="node6" class="node">
<title>5</title>
<path fill="none" stroke="#d8c356" stroke-width="2" d="M1037,-828C1037,-828 971,-828 971,-828 965,-828 959,-822 959,-816 959,-816 959,-804 959,-804 959,-798 965,-792 971,-792 971,-792 1037,-792 1037,-792 1043,-792 1049,-798 1049,-804 1049,-804 1049,-816 1049,-816 1049,-822 1043,-828 1037,-828"/>
<text text-anchor="middle" x="1004" y="-807.5" font-family="sans" font-size="10.00" fill="#000000">alignment_star</text>
</g>
<!-- 5&#45;&gt;2 -->
<g id="edge13" class="edge">
<title>5&#45;&gt;2</title>
<path fill="none" stroke="#c0c0c0" stroke-width="2" d="M1049.2661,-799.7842C1132.9983,-779.8709 1306.6872,-733.4618 1341,-684 1350.1199,-670.8536 1348.3828,-662.1949 1341,-648 1333.7073,-633.9783 1320.9209,-622.8399 1307.8379,-614.4089"/>
<polygon fill="#c0c0c0" stroke="#c0c0c0" stroke-width="2" points="1309.6279,-611.4013 1299.2524,-609.2565 1306.0258,-617.4034 1309.6279,-611.4013"/>
</g>
<!-- 5&#45;&gt;4 -->
<g id="edge17" class="edge">
<title>5&#45;&gt;4</title>
<path fill="none" stroke="#c0c0c0" stroke-width="2" d="M1015.3986,-791.7623C1031.0198,-766.7682 1059.1923,-721.6924 1077.2245,-692.8409"/>
<polygon fill="#c0c0c0" stroke="#c0c0c0" stroke-width="2" points="1080.362,-694.4246 1082.694,-684.0896 1074.426,-690.7146 1080.362,-694.4246"/>
</g>
<!-- 8 -->
<g id="node9" class="node">
<title>8</title>
<path fill="none" stroke="#56b9d8" stroke-width="2" d="M920.5,-756C920.5,-756 795.5,-756 795.5,-756 789.5,-756 783.5,-750 783.5,-744 783.5,-744 783.5,-732 783.5,-732 783.5,-726 789.5,-720 795.5,-720 795.5,-720 920.5,-720 920.5,-720 926.5,-720 932.5,-726 932.5,-732 932.5,-732 932.5,-744 932.5,-744 932.5,-750 926.5,-756 920.5,-756"/>
<text text-anchor="middle" x="858" y="-735.5" font-family="sans" font-size="10.00" fill="#000000">alignment_samtools_index</text>
</g>
<!-- 5&#45;&gt;8 -->
<g id="edge21" class="edge">
<title>5&#45;&gt;8</title>
<path fill="none" stroke="#c0c0c0" stroke-width="2" d="M967.158,-791.8314C947.8918,-782.3302 924.1301,-770.6121 903.7008,-760.5374"/>
<polygon fill="#c0c0c0" stroke="#c0c0c0" stroke-width="2" points="905.0938,-757.3219 894.577,-756.038 901.9977,-763.6 905.0938,-757.3219"/>
</g>
<!-- 9 -->
<g id="node10" class="node">
<title>9</title>
<path fill="none" stroke="#d86656" stroke-width="2" d="M979.5,-684C979.5,-684 898.5,-684 898.5,-684 892.5,-684 886.5,-678 886.5,-672 886.5,-672 886.5,-660 886.5,-660 886.5,-654 892.5,-648 898.5,-648 898.5,-648 979.5,-648 979.5,-648 985.5,-648 991.5,-654 991.5,-660 991.5,-660 991.5,-672 991.5,-672 991.5,-678 985.5,-684 979.5,-684"/>
<text text-anchor="middle" x="939" y="-663.5" font-family="sans" font-size="10.00" fill="#000000">qc_mosdepth_bed</text>
</g>
<!-- 5&#45;&gt;9 -->
<g id="edge23" class="edge">
<title>5&#45;&gt;9</title>
<path fill="none" stroke="#c0c0c0" stroke-width="2" d="M995.7677,-791.7623C984.5345,-766.8764 964.3149,-722.0822 951.2852,-693.2165"/>
<polygon fill="#c0c0c0" stroke="#c0c0c0" stroke-width="2" points="954.4698,-691.7641 947.1655,-684.0896 948.0896,-694.6441 954.4698,-691.7641"/>
</g>
<!-- 10 -->
<g id="node11" class="node">
<title>10</title>
<path fill="none" stroke="#d89c56" stroke-width="2" d="M1320,-684C1320,-684 1208,-684 1208,-684 1202,-684 1196,-678 1196,-672 1196,-672 1196,-660 1196,-660 1196,-654 1202,-648 1208,-648 1208,-648 1320,-648 1320,-648 1326,-648 1332,-654 1332,-660 1332,-660 1332,-672 1332,-672 1332,-678 1326,-684 1320,-684"/>
<text text-anchor="middle" x="1264" y="-663.5" font-family="sans" font-size="10.00" fill="#000000">qc_rseqc_inner_distance</text>
</g>
<!-- 5&#45;&gt;10 -->
<g id="edge25" class="edge">
<title>5&#45;&gt;10</title>
<path fill="none" stroke="#c0c0c0" stroke-width="2" d="M1036.6659,-791.9081C1083.7565,-765.8272 1170.7167,-717.6646 1222.3593,-689.0625"/>
<polygon fill="#c0c0c0" stroke="#c0c0c0" stroke-width="2" points="1224.211,-692.038 1231.2632,-684.1311 1220.8195,-685.9144 1224.211,-692.038"/>
</g>
<!-- 11 -->
<g id="node12" class="node">
<title>11</title>
<path fill="none" stroke="#c6d856" stroke-width="2" d="M1454.5,-756C1454.5,-756 1423.5,-756 1423.5,-756 1417.5,-756 1411.5,-750 1411.5,-744 1411.5,-744 1411.5,-732 1411.5,-732 1411.5,-726 1417.5,-720 1423.5,-720 1423.5,-720 1454.5,-720 1454.5,-720 1460.5,-720 1466.5,-726 1466.5,-732 1466.5,-732 1466.5,-744 1466.5,-744 1466.5,-750 1460.5,-756 1454.5,-756"/>
<text text-anchor="middle" x="1439" y="-735.5" font-family="sans" font-size="10.00" fill="#000000">cp_bam</text>
</g>
<!-- 5&#45;&gt;11 -->
<g id="edge26" class="edge">
<title>5&#45;&gt;11</title>
<path fill="none" stroke="#c0c0c0" stroke-width="2" d="M1049.0291,-805.2708C1119.0117,-797.5077 1257.9106,-780.4449 1374,-756 1382.9911,-754.1068 1392.5773,-751.683 1401.549,-749.2318"/>
<polygon fill="#c0c0c0" stroke="#c0c0c0" stroke-width="2" points="1402.6711,-752.5521 1411.3528,-746.4794 1400.779,-745.8127 1402.6711,-752.5521"/>
</g>
<!-- 14 -->
<g id="node15" class="node">
<title>14</title>
<path fill="none" stroke="#80d856" stroke-width="2" d="M553,-396C553,-396 491,-396 491,-396 485,-396 479,-390 479,-384 479,-384 479,-372 479,-372 479,-366 485,-360 491,-360 491,-360 553,-360 553,-360 559,-360 565,-366 565,-372 565,-372 565,-384 565,-384 565,-390 559,-396 553,-396"/>
<text text-anchor="middle" x="522" y="-375.5" font-family="sans" font-size="10.00" fill="#000000">fusions_arriba</text>
</g>
<!-- 5&#45;&gt;14 -->
<g id="edge30" class="edge">
<title>5&#45;&gt;14</title>
<path fill="none" stroke="#c0c0c0" stroke-width="2" d="M958.5709,-808.9824C823.5656,-805.5535 431.4585,-792.5168 388,-756 356.3057,-729.3683 364,-707.3978 364,-666 364,-666 364,-666 364,-522 364,-463.6675 423.5562,-422.6827 469.5392,-399.7321"/>
<polygon fill="#c0c0c0" stroke="#c0c0c0" stroke-width="2" points="471.3441,-402.7472 478.8258,-395.2456 468.299,-396.4442 471.3441,-402.7472"/>
</g>
<!-- 16 -->
<g id="node17" class="node">
<title>16</title>
<path fill="none" stroke="#d8cb56" stroke-width="2" d="M788,-324C788,-324 662,-324 662,-324 656,-324 650,-318 650,-312 650,-312 650,-300 650,-300 650,-294 656,-288 662,-288 662,-288 788,-288 788,-288 794,-288 800,-294 800,-300 800,-300 800,-312 800,-312 800,-318 794,-324 788,-324"/>
<text text-anchor="middle" x="725" y="-303.5" font-family="sans" font-size="10.00" fill="#000000">fusions_arriba_draw_fusion</text>
</g>
<!-- 5&#45;&gt;16 -->
<g id="edge33" class="edge">
<title>5&#45;&gt;16</title>
<path fill="none" stroke="#c0c0c0" stroke-width="2" d="M958.575,-807.3922C833.3051,-799.1498 487.7863,-768.979 421,-684 366.1772,-614.2434 607.5368,-403.2473 694.666,-330.7635"/>
<polygon fill="#c0c0c0" stroke="#c0c0c0" stroke-width="2" points="697.1326,-333.2652 702.6012,-324.1908 692.6673,-327.8743 697.1326,-333.2652"/>
</g>
<!-- 26 -->
<g id="node27" class="node">
<title>26</title>
<path fill="none" stroke="#88d856" stroke-width="2" d="M742,-684C742,-684 578,-684 578,-684 572,-684 566,-678 566,-672 566,-672 566,-660 566,-660 566,-654 572,-648 578,-648 578,-648 742,-648 742,-648 748,-648 754,-654 754,-660 754,-660 754,-672 754,-672 754,-678 748,-684 742,-684"/>
<text text-anchor="middle" x="660" y="-663.5" font-family="sans" font-size="10.00" fill="#000000">alignment_samtools_extract_reads</text>
</g>
<!-- 5&#45;&gt;26 -->
<g id="edge50" class="edge">
<title>5&#45;&gt;26</title>
<path fill="none" stroke="#c0c0c0" stroke-width="2" d="M958.8335,-805.2985C910.9958,-798.9967 834.2169,-785.0471 774,-756 740.0175,-739.6077 706.8153,-711.6324 685.09,-691.2137"/>
<polygon fill="#c0c0c0" stroke="#c0c0c0" stroke-width="2" points="687.2693,-688.4547 677.6251,-684.0683 682.429,-693.5115 687.2693,-688.4547"/>
</g>
<!-- 6 -->
<g id="node7" class="node">
<title>6</title>
<path fill="none" stroke="#56d86b" stroke-width="2" d="M1266.5,-900C1266.5,-900 1165.5,-900 1165.5,-900 1159.5,-900 1153.5,-894 1153.5,-888 1153.5,-888 1153.5,-876 1153.5,-876 1153.5,-870 1159.5,-864 1165.5,-864 1165.5,-864 1266.5,-864 1266.5,-864 1272.5,-864 1278.5,-870 1278.5,-876 1278.5,-876 1278.5,-888 1278.5,-888 1278.5,-894 1272.5,-900 1266.5,-900"/>
<text text-anchor="middle" x="1216" y="-879.5" font-family="sans" font-size="10.00" fill="#000000">prealignment_merged</text>
</g>
<!-- 6&#45;&gt;5 -->
<g id="edge18" class="edge">
<title>6&#45;&gt;5</title>
<path fill="none" stroke="#c0c0c0" stroke-width="2" d="M1162.7771,-863.9243C1131.098,-853.1654 1090.9755,-839.5388 1058.9897,-828.6757"/>
<polygon fill="#c0c0c0" stroke="#c0c0c0" stroke-width="2" points="1059.937,-825.3012 1049.3426,-825.3994 1057.6859,-831.9294 1059.937,-825.3012"/>
</g>
<!-- 7 -->
<g id="node8" class="node">
<title>7</title>
<path fill="none" stroke="#56d85b" stroke-width="2" d="M1313.5,-972C1313.5,-972 1208.5,-972 1208.5,-972 1202.5,-972 1196.5,-966 1196.5,-960 1196.5,-960 1196.5,-948 1196.5,-948 1196.5,-942 1202.5,-936 1208.5,-936 1208.5,-936 1313.5,-936 1313.5,-936 1319.5,-936 1325.5,-942 1325.5,-948 1325.5,-948 1325.5,-960 1325.5,-960 1325.5,-966 1319.5,-972 1313.5,-972"/>
<text text-anchor="middle" x="1261" y="-951.5" font-family="sans" font-size="10.00" fill="#000000">prealignment_fastp_pe</text>
</g>
<!-- 7&#45;&gt;2 -->
<g id="edge12" class="edge">
<title>7&#45;&gt;2</title>
<path fill="none" stroke="#c0c0c0" stroke-width="2" d="M1325.5202,-946.1345C1401.6486,-932.8343 1518,-898.0966 1518,-810 1518,-810 1518,-810 1518,-738 1518,-690.6526 1499.0651,-676.1572 1461,-648 1416.2239,-614.8786 1352.2439,-602.0725 1309.4742,-597.1212"/>
<polygon fill="#c0c0c0" stroke="#c0c0c0" stroke-width="2" points="1309.6629,-593.6217 1299.35,-596.0496 1308.926,-600.5828 1309.6629,-593.6217"/>
</g>
<!-- 7&#45;&gt;6 -->
<g id="edge19" class="edge">
<title>7&#45;&gt;6</title>
<path fill="none" stroke="#c0c0c0" stroke-width="2" d="M1249.6446,-935.8314C1244.5674,-927.7079 1238.4773,-917.9637 1232.8824,-909.0118"/>
<polygon fill="#c0c0c0" stroke="#c0c0c0" stroke-width="2" points="1235.7763,-907.0383 1227.5083,-900.4133 1229.8403,-910.7483 1235.7763,-907.0383"/>
</g>
<!-- 8&#45;&gt;4 -->
<g id="edge16" class="edge">
<title>8&#45;&gt;4</title>
<path fill="none" stroke="#c0c0c0" stroke-width="2" d="M917.2481,-719.9243C949.9315,-709.9531 990.6883,-697.5188 1024.8258,-687.104"/>
<polygon fill="#c0c0c0" stroke="#c0c0c0" stroke-width="2" points="1026.184,-690.3489 1034.7275,-684.0831 1024.1414,-683.6536 1026.184,-690.3489"/>
</g>
<!-- 8&#45;&gt;9 -->
<g id="edge22" class="edge">
<title>8&#45;&gt;9</title>
<path fill="none" stroke="#c0c0c0" stroke-width="2" d="M878.4397,-719.8314C888.3205,-711.0485 900.3324,-700.3712 911.045,-690.8489"/>
<polygon fill="#c0c0c0" stroke="#c0c0c0" stroke-width="2" points="913.418,-693.4224 918.5668,-684.1628 908.7674,-688.1906 913.418,-693.4224"/>
</g>
<!-- 8&#45;&gt;10 -->
<g id="edge24" class="edge">
<title>8&#45;&gt;10</title>
<path fill="none" stroke="#c0c0c0" stroke-width="2" d="M932.7359,-727.1922C997.2369,-717.5302 1093.1101,-702.3728 1185.5306,-684.2309"/>
<polygon fill="#c0c0c0" stroke="#c0c0c0" stroke-width="2" points="1186.4869,-687.6096 1195.6178,-682.236 1185.1288,-680.7426 1186.4869,-687.6096"/>
</g>
<!-- 12 -->
<g id="node13" class="node">
<title>12</title>
<path fill="none" stroke="#56d8a9" stroke-width="2" d="M890,-540C890,-540 860,-540 860,-540 854,-540 848,-534 848,-528 848,-528 848,-516 848,-516 848,-510 854,-504 860,-504 860,-504 890,-504 890,-504 896,-504 902,-510 902,-516 902,-516 902,-528 902,-528 902,-534 896,-540 890,-540"/>
<text text-anchor="middle" x="875" y="-519.5" font-family="sans" font-size="10.00" fill="#000000">cp_bai</text>
</g>
<!-- 8&#45;&gt;12 -->
<g id="edge27" class="edge">
<title>8&#45;&gt;12</title>
<path fill="none" stroke="#c0c0c0" stroke-width="2" d="M859.4202,-719.9555C862.3827,-682.3144 869.2399,-595.1867 872.7865,-550.1246"/>
<polygon fill="#c0c0c0" stroke="#c0c0c0" stroke-width="2" points="876.2764,-550.3889 873.5719,-540.1451 869.298,-549.8396 876.2764,-550.3889"/>
</g>
<!-- 8&#45;&gt;14 -->
<g id="edge29" class="edge">
<title>8&#45;&gt;14</title>
<path fill="none" stroke="#c0c0c0" stroke-width="2" d="M849.9412,-719.7668C838.7866,-692.8248 820,-640.5405 820,-594 820,-594 820,-594 820,-522 820,-468.1795 660.4254,-416.0174 574.8195,-391.9067"/>
<polygon fill="#c0c0c0" stroke="#c0c0c0" stroke-width="2" points="575.5859,-388.487 565.0135,-389.1763 573.7082,-395.2305 575.5859,-388.487"/>
</g>
<!-- 25 -->
<g id="node26" class="node">
<title>25</title>
<path fill="none" stroke="#56d8b9" stroke-width="2" d="M604,-612C604,-612 544,-612 544,-612 538,-612 532,-606 532,-600 532,-600 532,-588 532,-588 532,-582 538,-576 544,-576 544,-576 604,-576 604,-576 610,-576 616,-582 616,-588 616,-588 616,-600 616,-600 616,-606 610,-612 604,-612"/>
<text text-anchor="middle" x="574" y="-591.5" font-family="sans" font-size="10.00" fill="#000000">dotnet_pisces</text>
</g>
<!-- 8&#45;&gt;25 -->
<g id="edge47" class="edge">
<title>8&#45;&gt;25</title>
<path fill="none" stroke="#c0c0c0" stroke-width="2" d="M840.6726,-719.6293C818.321,-696.2896 780.268,-657.849 763,-648 720.1874,-623.5815 665.5255,-609.5278 626.0111,-601.916"/>
<polygon fill="#c0c0c0" stroke="#c0c0c0" stroke-width="2" points="626.5244,-598.4517 616.0542,-600.0721 625.2496,-605.3346 626.5244,-598.4517"/>
</g>
<!-- 8&#45;&gt;26 -->
<g id="edge49" class="edge">
<title>8&#45;&gt;26</title>
<path fill="none" stroke="#c0c0c0" stroke-width="2" d="M802.3485,-719.9243C774.4365,-710.1243 740.8419,-697.945 713.2677,-687.6422"/>
<polygon fill="#c0c0c0" stroke="#c0c0c0" stroke-width="2" points="714.3768,-684.3201 703.7846,-684.0831 711.9172,-690.8737 714.3768,-684.3201"/>
</g>
<!-- 9&#45;&gt;2 -->
<g id="edge14" class="edge">
<title>9&#45;&gt;2</title>
<path fill="none" stroke="#c0c0c0" stroke-width="2" d="M991.6876,-650.3924C994.8317,-649.5579 997.9535,-648.7537 1001,-648 1076.9319,-629.2143 1166.3264,-611.8533 1218.9053,-602.1215"/>
<polygon fill="#c0c0c0" stroke="#c0c0c0" stroke-width="2" points="1219.7143,-605.5315 1228.9153,-600.2787 1218.4469,-598.6472 1219.7143,-605.5315"/>
</g>
<!-- 30 -->
<g id="node31" class="node">
<title>30</title>
<path fill="none" stroke="#d8b456" stroke-width="2" d="M724,-180C724,-180 650,-180 650,-180 644,-180 638,-174 638,-168 638,-168 638,-156 638,-156 638,-150 644,-144 650,-144 650,-144 724,-144 724,-144 730,-144 736,-150 736,-156 736,-156 736,-168 736,-168 736,-174 730,-180 724,-180"/>
<text text-anchor="middle" x="687" y="-159.5" font-family="sans" font-size="10.00" fill="#000000">summary_report</text>
</g>
<!-- 9&#45;&gt;30 -->
<g id="edge55" class="edge">
<title>9&#45;&gt;30</title>
<path fill="none" stroke="#c0c0c0" stroke-width="2" d="M940.5412,-647.7349C945.1505,-580.6624 951.9246,-345.1486 834,-216 811.3526,-191.197 776.3317,-177.7572 746.1529,-170.4895"/>
<polygon fill="#c0c0c0" stroke="#c0c0c0" stroke-width="2" points="746.651,-167.0147 736.1289,-168.2539 745.1272,-173.8468 746.651,-167.0147"/>
</g>
<!-- 10&#45;&gt;2 -->
<g id="edge11" class="edge">
<title>10&#45;&gt;2</title>
<path fill="none" stroke="#c0c0c0" stroke-width="2" d="M1264,-647.8314C1264,-640.131 1264,-630.9743 1264,-622.4166"/>
<polygon fill="#c0c0c0" stroke="#c0c0c0" stroke-width="2" points="1267.5001,-622.4132 1264,-612.4133 1260.5001,-622.4133 1267.5001,-622.4132"/>
</g>
<!-- 11&#45;&gt;0 -->
<g id="edge4" class="edge">
<title>11&#45;&gt;0</title>
<path fill="none" stroke="#c0c0c0" stroke-width="2" d="M1447.695,-719.8324C1459.7302,-692.9721 1480,-640.7885 1480,-594 1480,-594 1480,-594 1480,-162 1480,-91.5705 944.1141,-35.5501 796.3399,-21.4409"/>
<polygon fill="#c0c0c0" stroke="#c0c0c0" stroke-width="2" points="796.6692,-17.9565 786.3836,-20.4979 796.009,-24.9254 796.6692,-17.9565"/>
</g>
<!-- 12&#45;&gt;0 -->
<g id="edge8" class="edge">
<title>12&#45;&gt;0</title>
<path fill="none" stroke="#c0c0c0" stroke-width="2" d="M878.5224,-503.8955C883.5018,-476.6824 892,-423.5642 892,-378 892,-378 892,-378 892,-162 892,-104.8167 834.7017,-60.6623 795.3222,-37.0688"/>
<polygon fill="#c0c0c0" stroke="#c0c0c0" stroke-width="2" points="796.6412,-33.7875 786.2355,-31.7947 793.1273,-39.8417 796.6412,-33.7875"/>
</g>
<!-- 13 -->
<g id="node14" class="node">
<title>13</title>
<path fill="none" stroke="#56d8d0" stroke-width="2" d="M661,-108C661,-108 583,-108 583,-108 577,-108 571,-102 571,-96 571,-96 571,-84 571,-84 571,-78 577,-72 583,-72 583,-72 661,-72 661,-72 667,-72 673,-78 673,-84 673,-84 673,-96 673,-96 673,-102 667,-108 661,-108"/>
<text text-anchor="middle" x="622" y="-87.5" font-family="sans" font-size="10.00" fill="#000000">cp_arrbia_fusions</text>
</g>
<!-- 13&#45;&gt;0 -->
<g id="edge1" class="edge">
<title>13&#45;&gt;0</title>
<path fill="none" stroke="#c0c0c0" stroke-width="2" d="M656.5709,-71.8314C676.7805,-61.2103 702.2614,-47.8188 722.7527,-37.0497"/>
<polygon fill="#c0c0c0" stroke="#c0c0c0" stroke-width="2" points="724.5559,-40.056 731.7797,-32.3056 721.2994,-33.8596 724.5559,-40.056"/>
</g>
<!-- 14&#45;&gt;13 -->
<g id="edge28" class="edge">
<title>14&#45;&gt;13</title>
<path fill="none" stroke="#c0c0c0" stroke-width="2" d="M528.2554,-359.9843C545.1969,-311.1929 592.0564,-176.2377 612.3845,-117.6927"/>
<polygon fill="#c0c0c0" stroke="#c0c0c0" stroke-width="2" points="615.7731,-118.6037 615.7469,-108.0089 609.1604,-116.3076 615.7731,-118.6037"/>
</g>
<!-- 14&#45;&gt;16 -->
<g id="edge32" class="edge">
<title>14&#45;&gt;16</title>
<path fill="none" stroke="#c0c0c0" stroke-width="2" d="M565.0511,-362.7307C593.9508,-352.4805 632.4403,-338.829 664.4203,-327.4864"/>
<polygon fill="#c0c0c0" stroke="#c0c0c0" stroke-width="2" points="665.8636,-330.6882 674.1184,-324.0467 663.5236,-324.0909 665.8636,-330.6882"/>
</g>
<!-- 14&#45;&gt;30 -->
<g id="edge56" class="edge">
<title>14&#45;&gt;30</title>
<path fill="none" stroke="#c0c0c0" stroke-width="2" d="M555.6868,-359.9803C570.282,-350.8043 586.5999,-338.509 598,-324 629.9197,-283.3753 614.3382,-260.2536 641,-216 646.8758,-206.2473 654.5071,-196.4959 661.8597,-188.0168"/>
<polygon fill="#c0c0c0" stroke="#c0c0c0" stroke-width="2" points="664.6906,-190.1022 668.7572,-180.3188 659.4772,-185.4309 664.6906,-190.1022"/>
</g>
<!-- 15 -->
<g id="node16" class="node">
<title>15</title>
<path fill="none" stroke="#56d863" stroke-width="2" d="M813.5,-252C813.5,-252 754.5,-252 754.5,-252 748.5,-252 742.5,-246 742.5,-240 742.5,-240 742.5,-228 742.5,-228 742.5,-222 748.5,-216 754.5,-216 754.5,-216 813.5,-216 813.5,-216 819.5,-216 825.5,-222 825.5,-228 825.5,-228 825.5,-240 825.5,-240 825.5,-246 819.5,-252 813.5,-252"/>
<text text-anchor="middle" x="784" y="-231.5" font-family="sans" font-size="10.00" fill="#000000">cp_arrbia_pdf</text>
</g>
<!-- 15&#45;&gt;0 -->
<g id="edge3" class="edge">
<title>15&#45;&gt;0</title>
<path fill="none" stroke="#c0c0c0" stroke-width="2" d="M781.9115,-215.9555C777.5549,-178.3144 767.4707,-91.1867 762.2552,-46.1246"/>
<polygon fill="#c0c0c0" stroke="#c0c0c0" stroke-width="2" points="765.7267,-45.6763 761.1001,-36.1451 758.7732,-46.4812 765.7267,-45.6763"/>
</g>
<!-- 16&#45;&gt;15 -->
<g id="edge31" class="edge">
<title>16&#45;&gt;15</title>
<path fill="none" stroke="#c0c0c0" stroke-width="2" d="M739.8882,-287.8314C746.753,-279.454 755.0301,-269.3531 762.5511,-260.1749"/>
<polygon fill="#c0c0c0" stroke="#c0c0c0" stroke-width="2" points="765.2803,-262.3665 768.9114,-252.4133 759.8659,-257.9297 765.2803,-262.3665"/>
</g>
<!-- 31 -->
<g id="node32" class="node">
<title>31</title>
<path fill="none" stroke="#d87556" stroke-width="2" d="M712,-252C712,-252 662,-252 662,-252 656,-252 650,-246 650,-240 650,-240 650,-228 650,-228 650,-222 656,-216 662,-216 662,-216 712,-216 712,-216 718,-216 724,-222 724,-228 724,-228 724,-240 724,-240 724,-246 718,-252 712,-252"/>
<text text-anchor="middle" x="687" y="-231.5" font-family="sans" font-size="10.00" fill="#000000">convert_pdf</text>
</g>
<!-- 16&#45;&gt;31 -->
<g id="edge59" class="edge">
<title>16&#45;&gt;31</title>
<path fill="none" stroke="#c0c0c0" stroke-width="2" d="M715.411,-287.8314C711.1683,-279.7925 706.0879,-270.1666 701.404,-261.2918"/>
<polygon fill="#c0c0c0" stroke="#c0c0c0" stroke-width="2" points="704.4811,-259.6235 696.7181,-252.4133 698.2904,-262.8908 704.4811,-259.6235"/>
</g>
<!-- 17 -->
<g id="node18" class="node">
<title>17</title>
<path fill="none" stroke="#56a9d8" stroke-width="2" d="M520,-180C520,-180 490,-180 490,-180 484,-180 478,-174 478,-168 478,-168 478,-156 478,-156 478,-150 484,-144 490,-144 490,-144 520,-144 520,-144 526,-144 532,-150 532,-156 532,-156 532,-168 532,-168 532,-174 526,-180 520,-180"/>
<text text-anchor="middle" x="505" y="-159.5" font-family="sans" font-size="10.00" fill="#000000">cp_vcf</text>
</g>
<!-- 17&#45;&gt;0 -->
<g id="edge5" class="edge">
<title>17&#45;&gt;0</title>
<path fill="none" stroke="#c0c0c0" stroke-width="2" d="M511.7202,-143.9575C520.2782,-123.4635 537.0198,-90.4781 562,-72 609.704,-36.7128 679.2055,-24.4846 721.6326,-20.2471"/>
<polygon fill="#c0c0c0" stroke="#c0c0c0" stroke-width="2" points="722.1595,-23.714 731.806,-19.3328 721.5329,-16.7421 722.1595,-23.714"/>
</g>
<!-- 18 -->
<g id="node19" class="node">
<title>18</title>
<path fill="none" stroke="#d8ac56" stroke-width="2" d="M543.5,-252C543.5,-252 430.5,-252 430.5,-252 424.5,-252 418.5,-246 418.5,-240 418.5,-240 418.5,-228 418.5,-228 418.5,-222 424.5,-216 430.5,-216 430.5,-216 543.5,-216 543.5,-216 549.5,-216 555.5,-222 555.5,-228 555.5,-228 555.5,-240 555.5,-240 555.5,-246 549.5,-252 543.5,-252"/>
<text text-anchor="middle" x="487" y="-231.5" font-family="sans" font-size="10.00" fill="#000000">snv_indels_bcftools_sort</text>
</g>
<!-- 18&#45;&gt;17 -->
<g id="edge34" class="edge">
<title>18&#45;&gt;17</title>
<path fill="none" stroke="#c0c0c0" stroke-width="2" d="M491.5422,-215.8314C493.4884,-208.0463 495.8068,-198.7729 497.9663,-190.1347"/>
<polygon fill="#c0c0c0" stroke="#c0c0c0" stroke-width="2" points="501.3668,-190.9636 500.3967,-180.4133 494.5758,-189.2658 501.3668,-190.9636"/>
</g>
<!-- 28 -->
<g id="node29" class="node">
<title>28</title>
<path fill="none" stroke="#56c1d8" stroke-width="2" d="M447,-180C447,-180 373,-180 373,-180 367,-180 361,-174 361,-168 361,-168 361,-156 361,-156 361,-150 367,-144 373,-144 373,-144 447,-144 447,-144 453,-144 459,-150 459,-156 459,-156 459,-168 459,-168 459,-174 453,-180 447,-180"/>
<text text-anchor="middle" x="410" y="-159.5" font-family="sans" font-size="10.00" fill="#000000">snv_indels_tabix</text>
</g>
<!-- 18&#45;&gt;28 -->
<g id="edge51" class="edge">
<title>18&#45;&gt;28</title>
<path fill="none" stroke="#c0c0c0" stroke-width="2" d="M461.6173,-215.8314C451.6442,-207.2848 440.4051,-196.9443 430.9048,-187.6198"/>
<polygon fill="#c0c0c0" stroke="#c0c0c0" stroke-width="2" points="433.2563,-185.0212 423.716,-180.4133 428.3004,-189.9649 433.2563,-185.0212"/>
</g>
<!-- 18&#45;&gt;30 -->
<g id="edge57" class="edge">
<title>18&#45;&gt;30</title>
<path fill="none" stroke="#c0c0c0" stroke-width="2" d="M537.2103,-215.9243C564.8633,-205.9692 599.3362,-193.559 628.2375,-183.1545"/>
<polygon fill="#c0c0c0" stroke="#c0c0c0" stroke-width="2" points="629.584,-186.3897 637.8073,-179.7094 627.2129,-179.8035 629.584,-186.3897"/>
</g>
<!-- 19 -->
<g id="node20" class="node">
<title>19</title>
<path fill="none" stroke="#d85656" stroke-width="2" d="M364.5,-324C364.5,-324 251.5,-324 251.5,-324 245.5,-324 239.5,-318 239.5,-312 239.5,-312 239.5,-300 239.5,-300 239.5,-294 245.5,-288 251.5,-288 251.5,-288 364.5,-288 364.5,-288 370.5,-288 376.5,-294 376.5,-300 376.5,-300 376.5,-312 376.5,-312 376.5,-318 370.5,-324 364.5,-324"/>
<text text-anchor="middle" x="308" y="-303.5" font-family="sans" font-size="10.00" fill="#000000">snv_indels_vt_normalize</text>
</g>
<!-- 19&#45;&gt;18 -->
<g id="edge36" class="edge">
<title>19&#45;&gt;18</title>
<path fill="none" stroke="#c0c0c0" stroke-width="2" d="M353.1693,-287.8314C377.3223,-278.1162 407.2378,-266.0831 432.6556,-255.8592"/>
<polygon fill="#c0c0c0" stroke="#c0c0c0" stroke-width="2" points="434.1841,-259.017 442.1556,-252.038 431.5718,-252.5227 434.1841,-259.017"/>
</g>
<!-- 19&#45;&gt;28 -->
<g id="edge52" class="edge">
<title>19&#45;&gt;28</title>
<path fill="none" stroke="#c0c0c0" stroke-width="2" d="M320.9184,-287.7623C338.6991,-262.66 370.828,-217.3017 391.2525,-188.4671"/>
<polygon fill="#c0c0c0" stroke="#c0c0c0" stroke-width="2" points="394.2624,-190.273 397.1865,-180.0896 388.5502,-186.2268 394.2624,-190.273"/>
</g>
<!-- 20 -->
<g id="node21" class="node">
<title>20</title>
<path fill="none" stroke="#56d88a" stroke-width="2" d="M364.5,-396C364.5,-396 243.5,-396 243.5,-396 237.5,-396 231.5,-390 231.5,-384 231.5,-384 231.5,-372 231.5,-372 231.5,-366 237.5,-360 243.5,-360 243.5,-360 364.5,-360 364.5,-360 370.5,-360 376.5,-366 376.5,-372 376.5,-372 376.5,-384 376.5,-384 376.5,-390 370.5,-396 364.5,-396"/>
<text text-anchor="middle" x="304" y="-375.5" font-family="sans" font-size="10.00" fill="#000000">snv_indels_vt_decompose</text>
</g>
<!-- 20&#45;&gt;19 -->
<g id="edge37" class="edge">
<title>20&#45;&gt;19</title>
<path fill="none" stroke="#c0c0c0" stroke-width="2" d="M305.0094,-359.8314C305.4372,-352.131 305.9459,-342.9743 306.4213,-334.4166"/>
<polygon fill="#c0c0c0" stroke="#c0c0c0" stroke-width="2" points="309.9169,-334.592 306.977,-324.4133 302.9276,-334.2037 309.9169,-334.592"/>
</g>
<!-- 21 -->
<g id="node22" class="node">
<title>21</title>
<path fill="none" stroke="#5682d8" stroke-width="2" d="M201,-468C201,-468 125,-468 125,-468 119,-468 113,-462 113,-456 113,-456 113,-444 113,-444 113,-438 119,-432 125,-432 125,-432 201,-432 201,-432 207,-432 213,-438 213,-444 213,-444 213,-456 213,-456 213,-462 207,-468 201,-468"/>
<text text-anchor="middle" x="163" y="-447.5" font-family="sans" font-size="10.00" fill="#000000">snv_indels_bgzip</text>
</g>
<!-- 21&#45;&gt;20 -->
<g id="edge38" class="edge">
<title>21&#45;&gt;20</title>
<path fill="none" stroke="#c0c0c0" stroke-width="2" d="M198.5803,-431.8314C217.0325,-422.4089 239.7545,-410.8062 259.373,-400.7883"/>
<polygon fill="#c0c0c0" stroke="#c0c0c0" stroke-width="2" points="261.1168,-403.8278 268.4311,-396.1628 257.9333,-397.5935 261.1168,-403.8278"/>
</g>
<!-- 22 -->
<g id="node23" class="node">
<title>22</title>
<path fill="none" stroke="#567bd8" stroke-width="2" d="M201.5,-396C201.5,-396 124.5,-396 124.5,-396 118.5,-396 112.5,-390 112.5,-384 112.5,-384 112.5,-372 112.5,-372 112.5,-366 118.5,-360 124.5,-360 124.5,-360 201.5,-360 201.5,-360 207.5,-360 213.5,-366 213.5,-372 213.5,-372 213.5,-384 213.5,-384 213.5,-390 207.5,-396 201.5,-396"/>
<text text-anchor="middle" x="163" y="-375.5" font-family="sans" font-size="10.00" fill="#000000">snv_indels_fix_af</text>
</g>
<!-- 21&#45;&gt;22 -->
<g id="edge42" class="edge">
<title>21&#45;&gt;22</title>
<path fill="none" stroke="#c0c0c0" stroke-width="2" d="M157.0476,-431.8314C156.2972,-424.131 156.0763,-414.9743 156.3849,-406.4166"/>
<polygon fill="#c0c0c0" stroke="#c0c0c0" stroke-width="2" points="159.8792,-406.6161 157.024,-396.4133 152.8935,-406.1697 159.8792,-406.6161"/>
</g>
<!-- 23 -->
<g id="node24" class="node">
<title>23</title>
<path fill="none" stroke="#d88556" stroke-width="2" d="M138,-108C138,-108 12,-108 12,-108 6,-108 0,-102 0,-96 0,-96 0,-84 0,-84 0,-78 6,-72 12,-72 12,-72 138,-72 138,-72 144,-72 150,-78 150,-84 150,-84 150,-96 150,-96 150,-102 144,-108 138,-108"/>
<text text-anchor="middle" x="75" y="-87.5" font-family="sans" font-size="10.00" fill="#000000">snv_indels_bcftools_concat</text>
</g>
<!-- 21&#45;&gt;23 -->
<g id="edge44" class="edge">
<title>21&#45;&gt;23</title>
<path fill="none" stroke="#c0c0c0" stroke-width="2" d="M129.1499,-431.9809C116.3657,-422.4849 102.921,-409.9241 94,-396 71.4013,-360.7273 66,-347.8911 66,-306 66,-306 66,-306 66,-234 66,-193.876 66,-147.4631 68.2178,-118.4177"/>
<polygon fill="#c0c0c0" stroke="#c0c0c0" stroke-width="2" points="71.7283,-118.4694 69.181,-108.1854 64.7591,-117.8133 71.7283,-118.4694"/>
</g>
<!-- 21&#45;&gt;28 -->
<g id="edge53" class="edge">
<title>21&#45;&gt;28</title>
<path fill="none" stroke="#c0c0c0" stroke-width="2" d="M213.0364,-444.4985C271.3767,-436.9901 362.6879,-421.4748 385,-396 398.336,-380.7737 406.0058,-248.9054 408.7906,-190.1007"/>
<polygon fill="#c0c0c0" stroke="#c0c0c0" stroke-width="2" points="412.2912,-190.1656 409.254,-180.0154 405.2986,-189.8442 412.2912,-190.1656"/>
</g>
<!-- 22&#45;&gt;21 -->
<g id="edge41" class="edge">
<title>22&#45;&gt;21</title>
<path fill="none" stroke="#c0c0c0" stroke-width="2" d="M168.976,-396.4133C169.7071,-404.0593 169.9203,-413.1084 169.6155,-421.5726"/>
<polygon fill="#c0c0c0" stroke="#c0c0c0" stroke-width="2" points="166.1048,-421.6264 168.9524,-431.8314 173.0902,-422.078 166.1048,-421.6264"/>
</g>
<!-- 23&#45;&gt;21 -->
<g id="edge40" class="edge">
<title>23&#45;&gt;21</title>
<path fill="none" stroke="#c0c0c0" stroke-width="2" d="M80.819,-108.1854C84,-135.5017 84,-188.75 84,-234 84,-306 84,-306 84,-306 84,-347.8911 89.4013,-360.7273 112,-396 118.9695,-406.8782 128.7001,-416.9243 137.8792,-425.327"/>
<polygon fill="#c0c0c0" stroke="#c0c0c0" stroke-width="2" points="135.5818,-427.9677 145.3871,-431.9809 140.2246,-422.7289 135.5818,-427.9677"/>
</g>
<!-- 24 -->
<g id="node25" class="node">
<title>24</title>
<path fill="none" stroke="#56d8a2" stroke-width="2" d="M256,-540C256,-540 176,-540 176,-540 170,-540 164,-534 164,-528 164,-528 164,-516 164,-516 164,-510 170,-504 176,-504 176,-504 256,-504 256,-504 262,-504 268,-510 268,-516 268,-516 268,-528 268,-528 268,-534 262,-540 256,-540"/>
<text text-anchor="middle" x="216" y="-519.5" font-family="sans" font-size="10.00" fill="#000000">bcftools_reheader</text>
</g>
<!-- 24&#45;&gt;21 -->
<g id="edge39" class="edge">
<title>24&#45;&gt;21</title>
<path fill="none" stroke="#c0c0c0" stroke-width="2" d="M202.6259,-503.8314C196.5838,-495.6232 189.3237,-485.7606 182.6779,-476.7323"/>
<polygon fill="#c0c0c0" stroke="#c0c0c0" stroke-width="2" points="185.3011,-474.3918 176.5542,-468.4133 179.6637,-478.5415 185.3011,-474.3918"/>
</g>
<!-- 25&#45;&gt;24 -->
<g id="edge45" class="edge">
<title>25&#45;&gt;24</title>
<path fill="none" stroke="#c0c0c0" stroke-width="2" d="M531.8801,-585.529C469.1238,-572.9076 350.6887,-549.0882 278.0188,-534.4731"/>
<polygon fill="#c0c0c0" stroke="#c0c0c0" stroke-width="2" points="278.5729,-531.0145 268.0791,-532.474 277.1927,-537.8771 278.5729,-531.0145"/>
</g>
<!-- 26&#45;&gt;8 -->
<g id="edge20" class="edge">
<title>26&#45;&gt;8</title>
<path fill="none" stroke="#c0c0c0" stroke-width="2" d="M715.5441,-684.038C743.401,-693.8177 776.939,-705.9752 804.506,-716.2733"/>
<polygon fill="#c0c0c0" stroke="#c0c0c0" stroke-width="2" points="803.3964,-719.5952 813.9886,-719.8314 805.8556,-713.0413 803.3964,-719.5952"/>
</g>
<!-- 26&#45;&gt;25 -->
<g id="edge46" class="edge">
<title>26&#45;&gt;25</title>
<path fill="none" stroke="#c0c0c0" stroke-width="2" d="M638.2986,-647.8314C627.8079,-639.0485 615.0545,-628.3712 603.6806,-618.8489"/>
<polygon fill="#c0c0c0" stroke="#c0c0c0" stroke-width="2" points="605.6089,-615.8986 595.6945,-612.1628 601.1153,-621.2659 605.6089,-615.8986"/>
</g>
<!-- 27 -->
<g id="node28" class="node">
<title>27</title>
<path fill="none" stroke="#56c9d8" stroke-width="2" d="M536,-684C536,-684 442,-684 442,-684 436,-684 430,-678 430,-672 430,-672 430,-660 430,-660 430,-654 436,-648 442,-648 442,-648 536,-648 536,-648 542,-648 548,-654 548,-660 548,-660 548,-672 548,-672 548,-678 542,-684 536,-684"/>
<text text-anchor="middle" x="489" y="-663.5" font-family="sans" font-size="10.00" fill="#000000">snv_indels_bed_split</text>
</g>
<!-- 27&#45;&gt;25 -->
<g id="edge48" class="edge">
<title>27&#45;&gt;25</title>
<path fill="none" stroke="#c0c0c0" stroke-width="2" d="M510.4491,-647.8314C520.8178,-639.0485 533.4229,-628.3712 544.6646,-618.8489"/>
<polygon fill="#c0c0c0" stroke="#c0c0c0" stroke-width="2" points="547.1895,-621.297 552.5578,-612.1628 542.6651,-615.9556 547.1895,-621.297"/>
</g>
<!-- 28&#45;&gt;18 -->
<g id="edge35" class="edge">
<title>28&#45;&gt;18</title>
<path fill="none" stroke="#c0c0c0" stroke-width="2" d="M435.376,-180.1628C445.4251,-188.7744 456.7606,-199.2081 466.3077,-208.5888"/>
<polygon fill="#c0c0c0" stroke="#c0c0c0" stroke-width="2" points="463.985,-211.2166 473.522,-215.8314 468.9444,-206.2765 463.985,-211.2166"/>
</g>
<!-- 28&#45;&gt;23 -->
<g id="edge43" class="edge">
<title>28&#45;&gt;23</title>
<path fill="none" stroke="#c0c0c0" stroke-width="2" d="M360.9294,-151.4535C308.3143,-140.1452 223.7798,-121.9766 160.2467,-108.3217"/>
<polygon fill="#c0c0c0" stroke="#c0c0c0" stroke-width="2" points="160.7506,-104.8501 150.2384,-106.1706 159.2797,-111.6939 160.7506,-104.8501"/>
</g>
<!-- 29 -->
<g id="node30" class="node">
<title>29</title>
<path fill="none" stroke="#d87d56" stroke-width="2" d="M443,-108C443,-108 413,-108 413,-108 407,-108 401,-102 401,-96 401,-96 401,-84 401,-84 401,-78 407,-72 413,-72 413,-72 443,-72 443,-72 449,-72 455,-78 455,-84 455,-84 455,-96 455,-96 455,-102 449,-108 443,-108"/>
<text text-anchor="middle" x="428" y="-87.5" font-family="sans" font-size="10.00" fill="#000000">cp_tbi</text>
</g>
<!-- 28&#45;&gt;29 -->
<g id="edge54" class="edge">
<title>28&#45;&gt;29</title>
<path fill="none" stroke="#c0c0c0" stroke-width="2" d="M414.5422,-143.8314C416.4884,-136.0463 418.8068,-126.7729 420.9663,-118.1347"/>
<polygon fill="#c0c0c0" stroke="#c0c0c0" stroke-width="2" points="424.3668,-118.9636 423.3967,-108.4133 417.5758,-117.2658 424.3668,-118.9636"/>
</g>
<!-- 29&#45;&gt;0 -->
<g id="edge6" class="edge">
<title>29&#45;&gt;0</title>
<path fill="none" stroke="#c0c0c0" stroke-width="2" d="M455.361,-83.8774C471.0545,-80.3763 491.1289,-75.9157 509,-72 584.7245,-55.4081 673.4344,-36.3324 722.2014,-25.8771"/>
<polygon fill="#c0c0c0" stroke="#c0c0c0" stroke-width="2" points="722.9379,-29.2988 731.9824,-23.7808 721.471,-22.4542 722.9379,-29.2988"/>
</g>
<!-- 30&#45;&gt;0 -->
<g id="edge2" class="edge">
<title>30&#45;&gt;0</title>
<path fill="none" stroke="#c0c0c0" stroke-width="2" d="M696.1188,-143.7623C708.5618,-118.8764 730.9589,-74.0822 745.3918,-45.2165"/>
<polygon fill="#c0c0c0" stroke="#c0c0c0" stroke-width="2" points="748.6135,-46.5992 749.9552,-36.0896 742.3525,-43.4686 748.6135,-46.5992"/>
</g>
<!-- 31&#45;&gt;30 -->
<g id="edge58" class="edge">
<title>31&#45;&gt;30</title>
<path fill="none" stroke="#c0c0c0" stroke-width="2" d="M687,-215.8314C687,-208.131 687,-198.9743 687,-190.4166"/>
<polygon fill="#c0c0c0" stroke="#c0c0c0" stroke-width="2" points="690.5001,-190.4132 687,-180.4133 683.5001,-190.4133 690.5001,-190.4132"/>
</g>
</g>
</svg>
